<ttFont>
<head>
    <!-- Most of this table will be recalculated by the compiler -->
    <tableVersion value="1.0"/>
    <fontRevision value="0.04"/>
    <checkSumAdjustment value="0x24f9c6f1"/>
    <magicNumber value="0x5f0f3cf5"/>
    <flags value="00100000 00000011"/>
    <unitsPerEm value="1024"/>
    <created value="Tue Sep  3 13:08:30 2019"/>
    <modified value="Tue Sep  3 13:45:08 2019"/>
    <xMin value="-458"/>
    <yMin value="-209"/>
    <xMax value="640"/>
    <yMax value="960"/>
    <macStyle value="00000000 00000000"/>
    <lowestRecPPEM value="7"/>
    <fontDirectionHint value="2"/>
    <indexToLocFormat value="0"/>
    <glyphDataFormat value="0"/>
  </head>
    <TTGlyph name=".notdef" xMin="34" yMin="-30" xMax="414" yMax="670">
      <contour>
        <pt x="224" y="-10" on="1"/>
        <pt x="252" y="-10" on="0"/>
        <pt x="288" y="24" on="0"/>
        <pt x="288" y="54" on="1"/>
        <pt x="288" y="84" on="0"/>
        <pt x="251" y="118" on="0"/>
        <pt x="224" y="118" on="1"/>
        <pt x="197" y="118" on="0"/>
        <pt x="160" y="84" on="0"/>
        <pt x="160" y="54" on="1"/>
        <pt x="160" y="24" on="0"/>
        <pt x="196" y="-10" on="0"/>
      </contour>
      <contour>
        <pt x="93" y="581" on="1"/>
        <pt x="190" y="576" on="0"/>
        <pt x="288" y="548" on="0"/>
        <pt x="316" y="512" on="0"/>
        <pt x="316" y="488" on="1"/>
        <pt x="316" y="462" on="0"/>
        <pt x="294" y="426" on="0"/>
        <pt x="269" y="398" on="1"/>
        <pt x="244" y="371" on="0"/>
        <pt x="211" y="325" on="0"/>
        <pt x="186" y="249" on="0"/>
        <pt x="185" y="195" on="1"/>
        <pt x="255" y="192" on="1"/>
        <pt x="256" y="256" on="0"/>
        <pt x="294" y="332" on="0"/>
        <pt x="330" y="371" on="1"/>
        <pt x="360" y="405" on="0"/>
        <pt x="388" y="455" on="0"/>
        <pt x="388" y="494" on="1"/>
        <pt x="388" y="542" on="0"/>
        <pt x="334" y="605" on="0"/>
        <pt x="206" y="642" on="0"/>
        <pt x="96" y="645" on="1"/>
      </contour>
      <contour>
        <pt x="414" y="670" on="1"/>
        <pt x="414" y="-30" on="1"/>
        <pt x="34" y="-30" on="1"/>
        <pt x="34" y="670" on="1"/>
      </contour>
    </TTGlyph>
    <TTGlyph name="A" xMin="35" yMin="0" xMax="413" yMax="643">
      <contour>
        <pt x="35" y="0" on="1"/>
        <pt x="50" y="187" on="0"/>
        <pt x="130" y="520" on="0"/>
        <pt x="192" y="643" on="1"/>
        <pt x="256" y="643" on="1"/>
        <pt x="318" y="520" on="0"/>
        <pt x="398" y="187" on="0"/>
        <pt x="413" y="0" on="1"/>
        <pt x="338" y="0" on="1"/>
        <pt x="330" y="92" on="0"/>
        <pt x="315" y="192" on="1"/>
        <pt x="133" y="192" on="1"/>
        <pt x="118" y="92" on="0"/>
        <pt x="110" y="0" on="1"/>
      </contour>
      <contour>
        <pt x="304" y="256" on="1"/>
        <pt x="272" y="429" on="0"/>
        <pt x="224" y="551" on="1"/>
        <pt x="176" y="429" on="0"/>
        <pt x="144" y="256" on="1"/>
      </contour>
    </TTGlyph>
    <TTGlyph name="A.sups" xMin="128" yMin="320" xMax="320" yMax="640">
      <contour>
        <pt x="192" y="640" on="1"/>
        <pt x="192" y="576" on="1"/>
        <pt x="128" y="576" on="1"/>
        <pt x="128" y="640" on="1"/>
      </contour>
      <contour>
        <pt x="192" y="576" on="1"/>
        <pt x="192" y="512" on="1"/>
        <pt x="128" y="512" on="1"/>
        <pt x="128" y="576" on="1"/>
      </contour>
      <contour>
        <pt x="320" y="640" on="1"/>
        <pt x="320" y="576" on="1"/>
        <pt x="256" y="576" on="1"/>
        <pt x="256" y="640" on="1"/>
      </contour>
      <contour>
        <pt x="320" y="576" on="1"/>
        <pt x="320" y="512" on="1"/>
        <pt x="256" y="512" on="1"/>
        <pt x="256" y="576" on="1"/>
      </contour>
      <contour>
        <pt x="256" y="640" on="1"/>
        <pt x="256" y="576" on="1"/>
        <pt x="192" y="576" on="1"/>
        <pt x="192" y="640" on="1"/>
      </contour>
      <contour>
        <pt x="192" y="512" on="1"/>
        <pt x="192" y="448" on="1"/>
        <pt x="128" y="448" on="1"/>
        <pt x="128" y="512" on="1"/>
      </contour>
      <contour>
        <pt x="192" y="448" on="1"/>
        <pt x="192" y="384" on="1"/>
        <pt x="128" y="384" on="1"/>
        <pt x="128" y="448" on="1"/>
      </contour>
      <contour>
        <pt x="192" y="384" on="1"/>
        <pt x="192" y="320" on="1"/>
        <pt x="128" y="320" on="1"/>
        <pt x="128" y="384" on="1"/>
      </contour>
      <contour>
        <pt x="256" y="512" on="1"/>
        <pt x="256" y="448" on="1"/>
        <pt x="192" y="448" on="1"/>
        <pt x="192" y="512" on="1"/>
      </contour>
      <contour>
        <pt x="320" y="512" on="1"/>
        <pt x="320" y="448" on="1"/>
        <pt x="256" y="448" on="1"/>
        <pt x="256" y="512" on="1"/>
      </contour>
      <contour>
        <pt x="320" y="448" on="1"/>
        <pt x="320" y="384" on="1"/>
        <pt x="256" y="384" on="1"/>
        <pt x="256" y="448" on="1"/>
      </contour>
      <contour>
        <pt x="320" y="384" on="1"/>
        <pt x="320" y="320" on="1"/>
        <pt x="256" y="320" on="1"/>
        <pt x="256" y="384" on="1"/>
      </contour>
    </TTGlyph>
    <TTGlyph name="AE" xMin="-18" yMin="-2" xMax="458" yMax="640">
      <contour>
        <pt x="458" y="64" on="1"/>
        <pt x="458" y="0" on="1"/>
        <pt x="199" y="0" on="1"/>
        <pt x="199" y="192" on="1"/>
        <pt x="79" y="192" on="1"/>
        <pt x="64" y="93" on="0"/>
        <pt x="56" y="-2" on="1"/>
        <pt x="-18" y="3" on="1"/>
        <pt x="-3" y="188" on="0"/>
        <pt x="76" y="519" on="0"/>
        <pt x="136" y="640" on="1"/>
        <pt x="448" y="640" on="1"/>
        <pt x="448" y="576" on="1"/>
        <pt x="271" y="576" on="1"/>
        <pt x="271" y="320" on="1"/>
        <pt x="394" y="320" on="1"/>
        <pt x="394" y="256" on="1"/>
        <pt x="271" y="256" on="1"/>
        <pt x="271" y="64" on="1"/>
      </contour>
      <contour>
        <pt x="199" y="256" on="1"/>
        <pt x="199" y="576" on="1"/>
        <pt x="181" y="576" on="1"/>
        <pt x="125" y="449" on="0"/>
        <pt x="90" y="256" on="1"/>
      </contour>
    </TTGlyph>
    <TTGlyph name="AEacute" xMin="-18" yMin="-2" xMax="458" yMax="842">
      <component glyphName="AE" x="0" y="0" flags="0x0"/>
      <component glyphName="acutecomb.case" x="448" y="0" flags="0x0"/>
    </TTGlyph>
    <TTGlyph name="Aacute" xMin="35" yMin="0" xMax="413" yMax="842">
      <component glyphName="A" x="0" y="0" flags="0x0"/>
      <component glyphName="acutecomb.case" x="448" y="0" flags="0x0"/>
    </TTGlyph>
    <TTGlyph name="Abreve" xMin="35" yMin="0" xMax="413" yMax="832">
      <component glyphName="A" x="0" y="0" flags="0x0"/>
      <component glyphName="uni0306.case" x="448" y="0" flags="0x0"/>
    </TTGlyph>
    <TTGlyph name="Acircumflex" xMin="35" yMin="0" xMax="413" yMax="842">
      <component glyphName="A" x="0" y="0" flags="0x0"/>
      <component glyphName="uni0302.case" x="448" y="0" flags="0x0"/>
    </TTGlyph>
    <TTGlyph name="Adieresis" xMin="35" yMin="0" xMax="413" yMax="822">
      <component glyphName="A" x="0" y="0" flags="0x0"/>
      <component glyphName="uni0308.case" x="448" y="0" flags="0x0"/>
    </TTGlyph>
    <TTGlyph name="Agrave" xMin="35" yMin="0" xMax="413" yMax="842">
      <component glyphName="A" x="0" y="0" flags="0x0"/>
      <component glyphName="gravecomb.case" x="448" y="0" flags="0x0"/>
    </TTGlyph>
    <TTGlyph name="Alpha" xMin="35" yMin="0" xMax="413" yMax="643">
      <component glyphName="A" x="0" y="0" flags="0x0"/>
    </TTGlyph>
    <TTGlyph name="Alphatonos" xMin="-10" yMin="0" xMax="413" yMax="704">
      <component glyphName="A" x="0" y="0" flags="0x0"/>
      <component glyphName="tonos" x="-192" y="0" flags="0x0"/>
    </TTGlyph>
    <TTGlyph name="Amacron" xMin="35" yMin="0" xMax="413" yMax="768">
      <component glyphName="A" x="0" y="0" flags="0x0"/>
      <component glyphName="uni0304.case" x="448" y="0" flags="0x0"/>
    </TTGlyph>
    <TTGlyph name="Aogonek" xMin="35" yMin="-197" xMax="430" yMax="643">
      <component glyphName="A" x="0" y="0" flags="0x0"/>
      <component glyphName="uni0328" x="477" y="0" flags="0x0"/>
    </TTGlyph>
    <TTGlyph name="Aring" xMin="35" yMin="0" xMax="413" yMax="889">
      <component glyphName="A" x="0" y="0" flags="0x0"/>
      <component glyphName="uni030A.case" x="448" y="0" flags="0x0"/>
    </TTGlyph>
    <TTGlyph name="Aringacute" xMin="35" yMin="0" xMax="413" yMax="907">
      <component glyphName="A" x="0" y="0" flags="0x0"/>
      <component glyphName="uni030A.case" x="448" y="-97" flags="0x4"/>
      <component glyphName="acutecomb.case" x="448" y="65" flags="0x4"/>
    </TTGlyph>
    <TTGlyph name="Atilde" xMin="35" yMin="0" xMax="413" yMax="832">
      <component glyphName="A" x="0" y="0" flags="0x0"/>
      <component glyphName="tildecomb.case" x="448" y="0" flags="0x0"/>
    </TTGlyph>
    <TTGlyph name="B" xMin="60" yMin="0" xMax="411" yMax="640">
      <contour>
        <pt x="60" y="640" on="1"/>
        <pt x="192" y="640" on="1"/>
        <pt x="286" y="640" on="0"/>
        <pt x="390" y="557" on="0"/>
        <pt x="390" y="476" on="1"/>
        <pt x="390" y="432" on="0"/>
        <pt x="349" y="351" on="0"/>
        <pt x="304" y="312" on="1"/>
        <pt x="354" y="297" on="0"/>
        <pt x="411" y="224" on="0"/>
        <pt x="411" y="168" on="1"/>
        <pt x="411" y="88" on="0"/>
        <pt x="303" y="0" on="0"/>
        <pt x="212" y="0" on="1"/>
        <pt x="60" y="0" on="1"/>
      </contour>
      <contour>
        <pt x="202" y="64" on="1"/>
        <pt x="275" y="64" on="0"/>
        <pt x="335" y="116" on="0"/>
        <pt x="335" y="170" on="1"/>
        <pt x="335" y="219" on="0"/>
        <pt x="273" y="272" on="0"/>
        <pt x="202" y="272" on="1"/>
        <pt x="132" y="272" on="1"/>
        <pt x="132" y="64" on="1"/>
      </contour>
      <contour>
        <pt x="242" y="336" on="1"/>
        <pt x="276" y="361" on="0"/>
        <pt x="312" y="437" on="0"/>
        <pt x="312" y="476" on="1"/>
        <pt x="312" y="527" on="0"/>
        <pt x="254" y="576" on="0"/>
        <pt x="184" y="576" on="1"/>
        <pt x="132" y="576" on="1"/>
        <pt x="132" y="336" on="1"/>
      </contour>
    </TTGlyph>
    <TTGlyph name="B.sups" xMin="128" yMin="320" xMax="320" yMax="640">
      <contour>
        <pt x="192" y="640" on="1"/>
        <pt x="192" y="576" on="1"/>
        <pt x="128" y="576" on="1"/>
        <pt x="128" y="640" on="1"/>
      </contour>
      <contour>
        <pt x="192" y="576" on="1"/>
        <pt x="192" y="512" on="1"/>
        <pt x="128" y="512" on="1"/>
        <pt x="128" y="576" on="1"/>
      </contour>
      <contour>
        <pt x="192" y="512" on="1"/>
        <pt x="192" y="448" on="1"/>
        <pt x="128" y="448" on="1"/>
        <pt x="128" y="512" on="1"/>
      </contour>
      <contour>
        <pt x="192" y="448" on="1"/>
        <pt x="192" y="384" on="1"/>
        <pt x="128" y="384" on="1"/>
        <pt x="128" y="448" on="1"/>
      </contour>
      <contour>
        <pt x="192" y="384" on="1"/>
        <pt x="192" y="320" on="1"/>
        <pt x="128" y="320" on="1"/>
        <pt x="128" y="384" on="1"/>
      </contour>
      <contour>
        <pt x="256" y="384" on="1"/>
        <pt x="256" y="320" on="1"/>
        <pt x="192" y="320" on="1"/>
        <pt x="192" y="384" on="1"/>
      </contour>
      <contour>
        <pt x="320" y="448" on="1"/>
        <pt x="320" y="384" on="1"/>
        <pt x="256" y="384" on="1"/>
        <pt x="256" y="448" on="1"/>
      </contour>
      <contour>
        <pt x="256" y="512" on="1"/>
        <pt x="256" y="448" on="1"/>
        <pt x="192" y="448" on="1"/>
        <pt x="192" y="512" on="1"/>
      </contour>
      <contour>
        <pt x="320" y="576" on="1"/>
        <pt x="320" y="512" on="1"/>
        <pt x="256" y="512" on="1"/>
        <pt x="256" y="576" on="1"/>
      </contour>
      <contour>
        <pt x="256" y="640" on="1"/>
        <pt x="256" y="576" on="1"/>
        <pt x="192" y="576" on="1"/>
        <pt x="192" y="640" on="1"/>
      </contour>
      <contour>
        <pt x="320" y="640" on="1"/>
        <pt x="320" y="576" on="1"/>
        <pt x="256" y="576" on="1"/>
        <pt x="256" y="640" on="1"/>
      </contour>
      <contour>
        <pt x="320" y="384" on="1"/>
        <pt x="320" y="320" on="1"/>
        <pt x="256" y="320" on="1"/>
        <pt x="256" y="384" on="1"/>
      </contour>
    </TTGlyph>
    <TTGlyph name="Beta" xMin="60" yMin="0" xMax="411" yMax="640">
      <component glyphName="B" x="0" y="0" flags="0x0"/>
    </TTGlyph>
    <TTGlyph name="C" xMin="60" yMin="-9" xMax="384" yMax="647">
      <contour>
        <pt x="274" y="-9" on="1"/>
        <pt x="195" y="-9" on="0"/>
        <pt x="102" y="55" on="0"/>
        <pt x="60" y="197" on="0"/>
        <pt x="60" y="319" on="1"/>
        <pt x="60" y="441" on="0"/>
        <pt x="102" y="583" on="0"/>
        <pt x="195" y="647" on="0"/>
        <pt x="274" y="647" on="1"/>
        <pt x="328" y="647" on="0"/>
        <pt x="378" y="635" on="1"/>
        <pt x="364" y="574" on="1"/>
        <pt x="320" y="583" on="0"/>
        <pt x="280" y="583" on="1"/>
        <pt x="216" y="583" on="0"/>
        <pt x="156" y="531" on="0"/>
        <pt x="138" y="425" on="0"/>
        <pt x="138" y="319" on="1"/>
        <pt x="138" y="213" on="0"/>
        <pt x="156" y="107" on="0"/>
        <pt x="216" y="55" on="0"/>
        <pt x="280" y="55" on="1"/>
        <pt x="325" y="55" on="0"/>
        <pt x="370" y="66" on="1"/>
        <pt x="384" y="5" on="1"/>
        <pt x="333" y="-9" on="0"/>
      </contour>
    </TTGlyph>
    <TTGlyph name="C.sups" xMin="128" yMin="316" xMax="326" yMax="644">
      <contour>
        <pt x="256" y="370" on="1"/>
        <pt x="281" y="370" on="0"/>
        <pt x="316" y="377" on="1"/>
        <pt x="326" y="326" on="1"/>
        <pt x="291" y="316" on="0"/>
        <pt x="252" y="316" on="1"/>
        <pt x="193" y="316" on="0"/>
        <pt x="128" y="400" on="0"/>
        <pt x="128" y="480" on="1"/>
        <pt x="128" y="560" on="0"/>
        <pt x="193" y="644" on="0"/>
        <pt x="252" y="644" on="1"/>
        <pt x="291" y="644" on="0"/>
        <pt x="326" y="634" on="1"/>
        <pt x="316" y="583" on="1"/>
        <pt x="281" y="590" on="0"/>
        <pt x="256" y="590" on="1"/>
        <pt x="223" y="590" on="0"/>
        <pt x="192" y="546" on="0"/>
        <pt x="192" y="480" on="1"/>
        <pt x="192" y="435" on="0"/>
        <pt x="207" y="387" on="0"/>
        <pt x="234" y="370" on="0"/>
      </contour>
    </TTGlyph>
    <TTGlyph name="Cacute" xMin="60" yMin="-9" xMax="384" yMax="842">
      <component glyphName="C" x="0" y="0" flags="0x0"/>
      <component glyphName="acutecomb.case" x="480" y="0" flags="0x0"/>
    </TTGlyph>
    <TTGlyph name="Ccaron" xMin="60" yMin="-9" xMax="384" yMax="841">
      <component glyphName="C" x="0" y="0" flags="0x0"/>
      <component glyphName="uni030C.case" x="480" y="0" flags="0x0"/>
    </TTGlyph>
    <TTGlyph name="Ccedilla" xMin="60" yMin="-192" xMax="384" yMax="647">
      <component glyphName="C" x="0" y="0" flags="0x0"/>
      <component glyphName="uni0327" x="448" y="0" flags="0x0"/>
    </TTGlyph>
    <TTGlyph name="Ccircumflex" xMin="60" yMin="-9" xMax="384" yMax="842">
      <component glyphName="C" x="0" y="0" flags="0x0"/>
      <component glyphName="uni0302.case" x="480" y="0" flags="0x0"/>
    </TTGlyph>
    <TTGlyph name="Cdotaccent" xMin="60" yMin="-9" xMax="384" yMax="817">
      <component glyphName="C" x="0" y="0" flags="0x0"/>
      <component glyphName="uni0307.case" x="480" y="0" flags="0x0"/>
    </TTGlyph>
    <TTGlyph name="Chi" xMin="47" yMin="0" xMax="400" yMax="640">
      <component glyphName="X" x="0" y="0" flags="0x0"/>
    </TTGlyph>
    <TTGlyph name="D" xMin="60" yMin="0" xMax="394" yMax="640">
      <contour>
        <pt x="180" y="640" on="1"/>
        <pt x="257" y="640" on="0"/>
        <pt x="351" y="574" on="0"/>
        <pt x="394" y="433" on="0"/>
        <pt x="394" y="317" on="1"/>
        <pt x="394" y="201" on="0"/>
        <pt x="351" y="63" on="0"/>
        <pt x="258" y="0" on="0"/>
        <pt x="181" y="0" on="1"/>
        <pt x="60" y="0" on="1"/>
        <pt x="60" y="640" on="1"/>
      </contour>
      <contour>
        <pt x="174" y="64" on="1"/>
        <pt x="237" y="64" on="0"/>
        <pt x="298" y="115" on="0"/>
        <pt x="316" y="218" on="0"/>
        <pt x="316" y="317" on="1"/>
        <pt x="316" y="418" on="0"/>
        <pt x="297" y="524" on="0"/>
        <pt x="236" y="576" on="0"/>
        <pt x="174" y="576" on="1"/>
        <pt x="132" y="576" on="1"/>
        <pt x="132" y="64" on="1"/>
      </contour>
    </TTGlyph>
    <TTGlyph name="D.sups" xMin="128" yMin="320" xMax="320" yMax="640">
      <contour>
        <pt x="192" y="640" on="1"/>
        <pt x="192" y="576" on="1"/>
        <pt x="128" y="576" on="1"/>
        <pt x="128" y="640" on="1"/>
      </contour>
      <contour>
        <pt x="192" y="576" on="1"/>
        <pt x="192" y="512" on="1"/>
        <pt x="128" y="512" on="1"/>
        <pt x="128" y="576" on="1"/>
      </contour>
      <contour>
        <pt x="192" y="512" on="1"/>
        <pt x="192" y="448" on="1"/>
        <pt x="128" y="448" on="1"/>
        <pt x="128" y="512" on="1"/>
      </contour>
      <contour>
        <pt x="192" y="448" on="1"/>
        <pt x="192" y="384" on="1"/>
        <pt x="128" y="384" on="1"/>
        <pt x="128" y="448" on="1"/>
      </contour>
      <contour>
        <pt x="192" y="384" on="1"/>
        <pt x="192" y="320" on="1"/>
        <pt x="128" y="320" on="1"/>
        <pt x="128" y="384" on="1"/>
      </contour>
      <contour>
        <pt x="256" y="384" on="1"/>
        <pt x="256" y="320" on="1"/>
        <pt x="192" y="320" on="1"/>
        <pt x="192" y="384" on="1"/>
      </contour>
      <contour>
        <pt x="320" y="448" on="1"/>
        <pt x="320" y="384" on="1"/>
        <pt x="256" y="384" on="1"/>
        <pt x="256" y="448" on="1"/>
      </contour>
      <contour>
        <pt x="320" y="512" on="1"/>
        <pt x="320" y="448" on="1"/>
        <pt x="256" y="448" on="1"/>
        <pt x="256" y="512" on="1"/>
      </contour>
      <contour>
        <pt x="320" y="576" on="1"/>
        <pt x="320" y="512" on="1"/>
        <pt x="256" y="512" on="1"/>
        <pt x="256" y="576" on="1"/>
      </contour>
      <contour>
        <pt x="256" y="640" on="1"/>
        <pt x="256" y="576" on="1"/>
        <pt x="192" y="576" on="1"/>
        <pt x="192" y="640" on="1"/>
      </contour>
    </TTGlyph>
    <TTGlyph name="Dcaron" xMin="60" yMin="0" xMax="394" yMax="841">
      <component glyphName="D" x="0" y="0" flags="0x0"/>
      <component glyphName="uni030C.case" x="436" y="0" flags="0x0"/>
    </TTGlyph>
    <TTGlyph name="Dcroat" xMin="5" yMin="0" xMax="394" yMax="640">
      <component glyphName="Eth" x="0" y="0" flags="0x0"/>
    </TTGlyph>
    <TTGlyph name="E" xMin="60" yMin="0" xMax="384" yMax="640">
      <contour>
        <pt x="60" y="640" on="1"/>
        <pt x="374" y="640" on="1"/>
        <pt x="374" y="576" on="1"/>
        <pt x="132" y="576" on="1"/>
        <pt x="132" y="320" on="1"/>
        <pt x="320" y="320" on="1"/>
        <pt x="320" y="256" on="1"/>
        <pt x="132" y="256" on="1"/>
        <pt x="132" y="64" on="1"/>
        <pt x="384" y="64" on="1"/>
        <pt x="384" y="0" on="1"/>
        <pt x="60" y="0" on="1"/>
      </contour>
    </TTGlyph>
    <TTGlyph name="E.sups" xMin="128" yMin="320" xMax="320" yMax="640">
      <contour>
        <pt x="192" y="640" on="1"/>
        <pt x="192" y="576" on="1"/>
        <pt x="128" y="576" on="1"/>
        <pt x="128" y="640" on="1"/>
      </contour>
      <contour>
        <pt x="192" y="576" on="1"/>
        <pt x="192" y="512" on="1"/>
        <pt x="128" y="512" on="1"/>
        <pt x="128" y="576" on="1"/>
      </contour>
      <contour>
        <pt x="192" y="512" on="1"/>
        <pt x="192" y="448" on="1"/>
        <pt x="128" y="448" on="1"/>
        <pt x="128" y="512" on="1"/>
      </contour>
      <contour>
        <pt x="192" y="448" on="1"/>
        <pt x="192" y="384" on="1"/>
        <pt x="128" y="384" on="1"/>
        <pt x="128" y="448" on="1"/>
      </contour>
      <contour>
        <pt x="192" y="384" on="1"/>
        <pt x="192" y="320" on="1"/>
        <pt x="128" y="320" on="1"/>
        <pt x="128" y="384" on="1"/>
      </contour>
      <contour>
        <pt x="256" y="384" on="1"/>
        <pt x="256" y="320" on="1"/>
        <pt x="192" y="320" on="1"/>
        <pt x="192" y="384" on="1"/>
      </contour>
      <contour>
        <pt x="320" y="384" on="1"/>
        <pt x="320" y="320" on="1"/>
        <pt x="256" y="320" on="1"/>
        <pt x="256" y="384" on="1"/>
      </contour>
      <contour>
        <pt x="256" y="640" on="1"/>
        <pt x="256" y="576" on="1"/>
        <pt x="192" y="576" on="1"/>
        <pt x="192" y="640" on="1"/>
      </contour>
      <contour>
        <pt x="320" y="640" on="1"/>
        <pt x="320" y="576" on="1"/>
        <pt x="256" y="576" on="1"/>
        <pt x="256" y="640" on="1"/>
      </contour>
      <contour>
        <pt x="256" y="512" on="1"/>
        <pt x="256" y="448" on="1"/>
        <pt x="192" y="448" on="1"/>
        <pt x="192" y="512" on="1"/>
      </contour>
      <contour>
        <pt x="320" y="512" on="1"/>
        <pt x="320" y="448" on="1"/>
        <pt x="256" y="448" on="1"/>
        <pt x="256" y="512" on="1"/>
      </contour>
    </TTGlyph>
    <TTGlyph name="Eacute" xMin="60" yMin="0" xMax="384" yMax="842">
      <component glyphName="E" x="0" y="0" flags="0x0"/>
      <component glyphName="acutecomb.case" x="444" y="0" flags="0x0"/>
    </TTGlyph>
    <TTGlyph name="Ebreve" xMin="60" yMin="0" xMax="384" yMax="832">
      <component glyphName="E" x="0" y="0" flags="0x0"/>
      <component glyphName="uni0306.case" x="444" y="0" flags="0x0"/>
    </TTGlyph>
    <TTGlyph name="Ecaron" xMin="60" yMin="0" xMax="384" yMax="841">
      <component glyphName="E" x="0" y="0" flags="0x0"/>
      <component glyphName="uni030C.case" x="444" y="0" flags="0x0"/>
    </TTGlyph>
    <TTGlyph name="Ecircumflex" xMin="60" yMin="0" xMax="384" yMax="842">
      <component glyphName="E" x="0" y="0" flags="0x0"/>
      <component glyphName="uni0302.case" x="444" y="0" flags="0x0"/>
    </TTGlyph>
    <TTGlyph name="Edieresis" xMin="60" yMin="0" xMax="384" yMax="822">
      <component glyphName="E" x="0" y="0" flags="0x0"/>
      <component glyphName="uni0308.case" x="444" y="0" flags="0x0"/>
    </TTGlyph>
    <TTGlyph name="Edotaccent" xMin="60" yMin="0" xMax="384" yMax="817">
      <component glyphName="E" x="0" y="0" flags="0x0"/>
      <component glyphName="uni0307.case" x="444" y="0" flags="0x0"/>
    </TTGlyph>
    <TTGlyph name="Egrave" xMin="60" yMin="0" xMax="384" yMax="842">
      <component glyphName="E" x="0" y="0" flags="0x0"/>
      <component glyphName="gravecomb.case" x="444" y="0" flags="0x0"/>
    </TTGlyph>
    <TTGlyph name="Emacron" xMin="60" yMin="0" xMax="384" yMax="768">
      <component glyphName="E" x="0" y="0" flags="0x0"/>
      <component glyphName="uni0304.case" x="444" y="0" flags="0x0"/>
    </TTGlyph>
    <TTGlyph name="Eng" xMin="60" yMin="-196" xMax="388" yMax="640">
      <contour>
        <pt x="60" y="640" on="1"/>
        <pt x="142" y="640" on="1"/>
        <pt x="292" y="259" on="1"/>
        <pt x="316" y="167" on="1"/>
        <pt x="316" y="640" on="1"/>
        <pt x="388" y="640" on="1"/>
        <pt x="388" y="-5" on="1"/>
        <pt x="388" y="-77" on="0"/>
        <pt x="334" y="-168" on="0"/>
        <pt x="268" y="-196" on="1"/>
        <pt x="239" y="-136" on="1"/>
        <pt x="284" y="-117" on="0"/>
        <pt x="316" y="-66" on="0"/>
        <pt x="316" y="-13" on="1"/>
        <pt x="316" y="3" on="1"/>
        <pt x="166" y="384" on="1"/>
        <pt x="132" y="513" on="1"/>
        <pt x="132" y="0" on="1"/>
        <pt x="60" y="0" on="1"/>
      </contour>
    </TTGlyph>
    <TTGlyph name="Eogonek" xMin="60" yMin="-197" xMax="401" yMax="640">
      <component glyphName="E" x="0" y="0" flags="0x0"/>
      <component glyphName="uni0328" x="448" y="0" flags="0x0"/>
    </TTGlyph>
    <TTGlyph name="Epsilon" xMin="60" yMin="0" xMax="384" yMax="640">
      <component glyphName="E" x="0" y="0" flags="0x0"/>
    </TTGlyph>
    <TTGlyph name="Epsilontonos" xMin="-74" yMin="0" xMax="384" yMax="704">
      <component glyphName="E" x="0" y="0" flags="0x0"/>
      <component glyphName="tonos" x="-256" y="0" flags="0x0"/>
    </TTGlyph>
    <TTGlyph name="Eta" xMin="60" yMin="0" xMax="388" yMax="640">
      <component glyphName="H" x="0" y="0" flags="0x0"/>
    </TTGlyph>
    <TTGlyph name="Etatonos" xMin="-74" yMin="0" xMax="388" yMax="704">
      <component glyphName="H" x="0" y="0" flags="0x0"/>
      <component glyphName="tonos" x="-256" y="0" flags="0x0"/>
    </TTGlyph>
    <TTGlyph name="Eth" xMin="5" yMin="0" xMax="394" yMax="640">
      <contour>
        <pt x="236" y="320" on="1"/>
        <pt x="236" y="256" on="1"/>
        <pt x="5" y="256" on="1"/>
        <pt x="5" y="320" on="1"/>
      </contour>
      <contour>
        <pt x="180" y="640" on="1"/>
        <pt x="257" y="640" on="0"/>
        <pt x="351" y="574" on="0"/>
        <pt x="394" y="433" on="0"/>
        <pt x="394" y="317" on="1"/>
        <pt x="394" y="201" on="0"/>
        <pt x="351" y="63" on="0"/>
        <pt x="258" y="0" on="0"/>
        <pt x="181" y="0" on="1"/>
        <pt x="60" y="0" on="1"/>
        <pt x="60" y="640" on="1"/>
      </contour>
      <contour>
        <pt x="174" y="64" on="1"/>
        <pt x="237" y="64" on="0"/>
        <pt x="298" y="115" on="0"/>
        <pt x="316" y="218" on="0"/>
        <pt x="316" y="317" on="1"/>
        <pt x="316" y="418" on="0"/>
        <pt x="297" y="524" on="0"/>
        <pt x="236" y="576" on="0"/>
        <pt x="174" y="576" on="1"/>
        <pt x="132" y="576" on="1"/>
        <pt x="132" y="64" on="1"/>
      </contour>
    </TTGlyph>
    <TTGlyph name="Euro" xMin="64" yMin="-7" xMax="409" yMax="583">
      <contour>
        <pt x="308" y="57" on="1"/>
        <pt x="348" y="57" on="0"/>
        <pt x="393" y="72" on="1"/>
        <pt x="409" y="13" on="1"/>
        <pt x="386" y="3" on="0"/>
        <pt x="331" y="-7" on="0"/>
        <pt x="308" y="-7" on="1"/>
        <pt x="206" y="-7" on="0"/>
        <pt x="112" y="142" on="0"/>
        <pt x="112" y="288" on="1"/>
        <pt x="112" y="433" on="0"/>
        <pt x="206" y="583" on="0"/>
        <pt x="308" y="583" on="1"/>
        <pt x="331" y="583" on="0"/>
        <pt x="386" y="573" on="0"/>
        <pt x="409" y="563" on="1"/>
        <pt x="393" y="504" on="1"/>
        <pt x="348" y="519" on="0"/>
        <pt x="308" y="519" on="1"/>
        <pt x="245" y="519" on="0"/>
        <pt x="184" y="413" on="0"/>
        <pt x="184" y="288" on="1"/>
        <pt x="184" y="162" on="0"/>
        <pt x="245" y="57" on="0"/>
      </contour>
      <contour>
        <pt x="367" y="384" on="1"/>
        <pt x="352" y="322" on="1"/>
        <pt x="64" y="322" on="1"/>
        <pt x="64" y="384" on="1"/>
      </contour>
      <contour>
        <pt x="339" y="254" on="1"/>
        <pt x="325" y="192" on="1"/>
        <pt x="64" y="192" on="1"/>
        <pt x="64" y="254" on="1"/>
      </contour>
    </TTGlyph>
    <TTGlyph name="F" xMin="60" yMin="0" xMax="384" yMax="640">
      <contour>
        <pt x="60" y="640" on="1"/>
        <pt x="384" y="640" on="1"/>
        <pt x="384" y="576" on="1"/>
        <pt x="132" y="576" on="1"/>
        <pt x="132" y="320" on="1"/>
        <pt x="320" y="320" on="1"/>
        <pt x="320" y="256" on="1"/>
        <pt x="132" y="256" on="1"/>
        <pt x="132" y="0" on="1"/>
        <pt x="60" y="0" on="1"/>
      </contour>
    </TTGlyph>
    <TTGlyph name="F.sups" xMin="128" yMin="320" xMax="320" yMax="640">
      <contour>
        <pt x="128" y="640" on="1"/>
        <pt x="320" y="640" on="1"/>
        <pt x="320" y="584" on="1"/>
        <pt x="192" y="584" on="1"/>
        <pt x="192" y="504" on="1"/>
        <pt x="300" y="504" on="1"/>
        <pt x="300" y="448" on="1"/>
        <pt x="192" y="448" on="1"/>
        <pt x="192" y="320" on="1"/>
        <pt x="128" y="320" on="1"/>
      </contour>
    </TTGlyph>
    <TTGlyph name="G" xMin="54" yMin="-9" xMax="388" yMax="647">
      <contour>
        <pt x="268" y="-9" on="1"/>
        <pt x="189" y="-9" on="0"/>
        <pt x="96" y="55" on="0"/>
        <pt x="54" y="197" on="0"/>
        <pt x="54" y="319" on="1"/>
        <pt x="54" y="441" on="0"/>
        <pt x="96" y="583" on="0"/>
        <pt x="189" y="647" on="0"/>
        <pt x="268" y="647" on="1"/>
        <pt x="294" y="647" on="0"/>
        <pt x="358" y="639" on="0"/>
        <pt x="385" y="632" on="1"/>
        <pt x="371" y="571" on="1"/>
        <pt x="320" y="583" on="0"/>
        <pt x="274" y="583" on="1"/>
        <pt x="210" y="583" on="0"/>
        <pt x="150" y="531" on="0"/>
        <pt x="132" y="425" on="0"/>
        <pt x="132" y="319" on="1"/>
        <pt x="132" y="213" on="0"/>
        <pt x="150" y="107" on="0"/>
        <pt x="210" y="55" on="0"/>
        <pt x="274" y="55" on="1"/>
        <pt x="283" y="55" on="0"/>
        <pt x="304" y="57" on="0"/>
        <pt x="316" y="58" on="1"/>
        <pt x="316" y="256" on="1"/>
        <pt x="226" y="256" on="1"/>
        <pt x="226" y="320" on="1"/>
        <pt x="388" y="320" on="1"/>
        <pt x="388" y="7" on="1"/>
        <pt x="361" y="-1" on="0"/>
        <pt x="295" y="-9" on="0"/>
      </contour>
    </TTGlyph>
    <TTGlyph name="G.sups" xMin="128" yMin="320" xMax="320" yMax="640">
      <contour>
        <pt x="192" y="576" on="1"/>
        <pt x="192" y="512" on="1"/>
        <pt x="128" y="512" on="1"/>
        <pt x="128" y="576" on="1"/>
      </contour>
      <contour>
        <pt x="256" y="640" on="1"/>
        <pt x="256" y="576" on="1"/>
        <pt x="192" y="576" on="1"/>
        <pt x="192" y="640" on="1"/>
      </contour>
      <contour>
        <pt x="320" y="640" on="1"/>
        <pt x="320" y="576" on="1"/>
        <pt x="256" y="576" on="1"/>
        <pt x="256" y="640" on="1"/>
      </contour>
      <contour>
        <pt x="192" y="512" on="1"/>
        <pt x="192" y="448" on="1"/>
        <pt x="128" y="448" on="1"/>
        <pt x="128" y="512" on="1"/>
      </contour>
      <contour>
        <pt x="192" y="448" on="1"/>
        <pt x="192" y="384" on="1"/>
        <pt x="128" y="384" on="1"/>
        <pt x="128" y="448" on="1"/>
      </contour>
      <contour>
        <pt x="256" y="384" on="1"/>
        <pt x="256" y="320" on="1"/>
        <pt x="192" y="320" on="1"/>
        <pt x="192" y="384" on="1"/>
      </contour>
      <contour>
        <pt x="320" y="384" on="1"/>
        <pt x="320" y="320" on="1"/>
        <pt x="256" y="320" on="1"/>
        <pt x="256" y="384" on="1"/>
      </contour>
      <contour>
        <pt x="320" y="448" on="1"/>
        <pt x="320" y="384" on="1"/>
        <pt x="256" y="384" on="1"/>
        <pt x="256" y="448" on="1"/>
      </contour>
      <contour>
        <pt x="320" y="512" on="1"/>
        <pt x="320" y="448" on="1"/>
        <pt x="256" y="448" on="1"/>
        <pt x="256" y="512" on="1"/>
      </contour>
    </TTGlyph>
    <TTGlyph name="Gamma" xMin="60" yMin="0" xMax="384" yMax="640">
      <component glyphName="uni0413" x="0" y="0" flags="0x0"/>
    </TTGlyph>
    <TTGlyph name="Gbreve" xMin="54" yMin="-9" xMax="404" yMax="832">
      <component glyphName="G" x="0" y="0" flags="0x0"/>
      <component glyphName="uni0306.case" x="468" y="0" flags="0x0"/>
    </TTGlyph>
    <TTGlyph name="Gcircumflex" xMin="54" yMin="-9" xMax="388" yMax="842">
      <component glyphName="G" x="0" y="0" flags="0x0"/>
      <component glyphName="uni0302.case" x="468" y="0" flags="0x0"/>
    </TTGlyph>
    <TTGlyph name="Gdotaccent" xMin="54" yMin="-9" xMax="388" yMax="817">
      <component glyphName="G" x="0" y="0" flags="0x0"/>
      <component glyphName="uni0307.case" x="468" y="0" flags="0x0"/>
    </TTGlyph>
    <TTGlyph name="H" xMin="60" yMin="0" xMax="388" yMax="640">
      <contour>
        <pt x="60" y="640" on="1"/>
        <pt x="132" y="640" on="1"/>
        <pt x="132" y="320" on="1"/>
        <pt x="316" y="320" on="1"/>
        <pt x="316" y="640" on="1"/>
        <pt x="388" y="640" on="1"/>
        <pt x="388" y="0" on="1"/>
        <pt x="316" y="0" on="1"/>
        <pt x="316" y="256" on="1"/>
        <pt x="132" y="256" on="1"/>
        <pt x="132" y="0" on="1"/>
        <pt x="60" y="0" on="1"/>
      </contour>
    </TTGlyph>
    <TTGlyph name="H.sups" xMin="128" yMin="320" xMax="320" yMax="640">
      <contour>
        <pt x="192" y="508" on="1"/>
        <pt x="256" y="508" on="1"/>
        <pt x="256" y="640" on="1"/>
        <pt x="320" y="640" on="1"/>
        <pt x="320" y="320" on="1"/>
        <pt x="256" y="320" on="1"/>
        <pt x="256" y="452" on="1"/>
        <pt x="192" y="452" on="1"/>
        <pt x="192" y="320" on="1"/>
        <pt x="128" y="320" on="1"/>
        <pt x="128" y="640" on="1"/>
        <pt x="192" y="640" on="1"/>
      </contour>
    </TTGlyph>
    <TTGlyph name="Hbar" xMin="10" yMin="0" xMax="438" yMax="640">
      <contour>
        <pt x="438" y="500" on="1"/>
        <pt x="438" y="440" on="1"/>
        <pt x="10" y="440" on="1"/>
        <pt x="10" y="500" on="1"/>
      </contour>
      <contour>
        <pt x="60" y="640" on="1"/>
        <pt x="132" y="640" on="1"/>
        <pt x="132" y="320" on="1"/>
        <pt x="316" y="320" on="1"/>
        <pt x="316" y="640" on="1"/>
        <pt x="388" y="640" on="1"/>
        <pt x="388" y="0" on="1"/>
        <pt x="316" y="0" on="1"/>
        <pt x="316" y="256" on="1"/>
        <pt x="132" y="256" on="1"/>
        <pt x="132" y="0" on="1"/>
        <pt x="60" y="0" on="1"/>
      </contour>
    </TTGlyph>
    <TTGlyph name="Hcircumflex" xMin="60" yMin="0" xMax="388" yMax="842">
      <component glyphName="H" x="0" y="0" flags="0x0"/>
      <component glyphName="uni0302.case" x="448" y="0" flags="0x0"/>
    </TTGlyph>
    <TTGlyph name="I" xMin="72" yMin="0" xMax="376" yMax="640">
      <contour>
        <pt x="72" y="54" on="1"/>
        <pt x="188" y="64" on="1"/>
        <pt x="188" y="576" on="1"/>
        <pt x="76" y="586" on="1"/>
        <pt x="76" y="640" on="1"/>
        <pt x="372" y="640" on="1"/>
        <pt x="372" y="586" on="1"/>
        <pt x="260" y="576" on="1"/>
        <pt x="260" y="64" on="1"/>
        <pt x="376" y="54" on="1"/>
        <pt x="376" y="0" on="1"/>
        <pt x="72" y="0" on="1"/>
      </contour>
    </TTGlyph>
    <TTGlyph name="I.sups" xMin="128" yMin="320" xMax="320" yMax="640">
      <contour>
        <pt x="320" y="320" on="1"/>
        <pt x="128" y="320" on="1"/>
        <pt x="128" y="368" on="1"/>
        <pt x="192" y="376" on="1"/>
        <pt x="192" y="584" on="1"/>
        <pt x="128" y="592" on="1"/>
        <pt x="128" y="640" on="1"/>
        <pt x="320" y="640" on="1"/>
        <pt x="320" y="592" on="1"/>
        <pt x="256" y="584" on="1"/>
        <pt x="256" y="376" on="1"/>
        <pt x="320" y="368" on="1"/>
      </contour>
    </TTGlyph>
    <TTGlyph name="IJ" xMin="0" yMin="0" xMax="452" yMax="640">
      <contour>
        <pt x="0" y="64" on="1"/>
        <pt x="60" y="64" on="1"/>
        <pt x="60" y="576" on="1"/>
        <pt x="4" y="576" on="1"/>
        <pt x="4" y="640" on="1"/>
        <pt x="188" y="640" on="1"/>
        <pt x="188" y="576" on="1"/>
        <pt x="132" y="576" on="1"/>
        <pt x="132" y="64" on="1"/>
        <pt x="288" y="64" on="1"/>
        <pt x="340" y="64" on="0"/>
        <pt x="380" y="121" on="0"/>
        <pt x="380" y="177" on="1"/>
        <pt x="380" y="576" on="1"/>
        <pt x="276" y="576" on="1"/>
        <pt x="276" y="640" on="1"/>
        <pt x="452" y="640" on="1"/>
        <pt x="452" y="181" on="1"/>
        <pt x="452" y="88" on="0"/>
        <pt x="364" y="0" on="0"/>
        <pt x="288" y="0" on="1"/>
        <pt x="0" y="0" on="1"/>
      </contour>
    </TTGlyph>
    <TTGlyph name="Iacute" xMin="72" yMin="0" xMax="376" yMax="842">
      <component glyphName="I" x="0" y="0" flags="0x0"/>
      <component glyphName="acutecomb.case" x="448" y="0" flags="0x0"/>
    </TTGlyph>
    <TTGlyph name="Ibreve" xMin="64" yMin="0" xMax="384" yMax="832">
      <component glyphName="I" x="0" y="0" flags="0x0"/>
      <component glyphName="uni0306.case" x="448" y="0" flags="0x0"/>
    </TTGlyph>
    <TTGlyph name="Icircumflex" xMin="72" yMin="0" xMax="376" yMax="842">
      <component glyphName="I" x="0" y="0" flags="0x0"/>
      <component glyphName="uni0302.case" x="448" y="0" flags="0x0"/>
    </TTGlyph>
    <TTGlyph name="Idieresis" xMin="72" yMin="0" xMax="376" yMax="822">
      <component glyphName="I" x="0" y="0" flags="0x0"/>
      <component glyphName="uni0308.case" x="448" y="0" flags="0x0"/>
    </TTGlyph>
    <TTGlyph name="Idotaccent" xMin="72" yMin="0" xMax="376" yMax="817">
      <component glyphName="I" x="0" y="0" flags="0x0"/>
      <component glyphName="uni0307.case" x="448" y="0" flags="0x0"/>
    </TTGlyph>
    <TTGlyph name="Igrave" xMin="72" yMin="0" xMax="376" yMax="842">
      <component glyphName="I" x="0" y="0" flags="0x0"/>
      <component glyphName="gravecomb.case" x="448" y="0" flags="0x0"/>
    </TTGlyph>
    <TTGlyph name="Imacron" xMin="72" yMin="0" xMax="376" yMax="768">
      <component glyphName="I" x="0" y="0" flags="0x0"/>
      <component glyphName="uni0304.case" x="448" y="0" flags="0x0"/>
    </TTGlyph>
    <TTGlyph name="Iogonek" xMin="72" yMin="-197" xMax="393" yMax="640">
      <component glyphName="I" x="0" y="0" flags="0x0"/>
      <component glyphName="uni0328" x="440" y="0" flags="0x0"/>
    </TTGlyph>
    <TTGlyph name="Iota" xMin="72" yMin="0" xMax="376" yMax="640">
      <component glyphName="I" x="0" y="0" flags="0x0"/>
    </TTGlyph>
    <TTGlyph name="Iotadieresis" xMin="72" yMin="0" xMax="376" yMax="822">
      <component glyphName="I" x="0" y="0" flags="0x0"/>
      <component glyphName="uni0308.case" x="448" y="0" flags="0x0"/>
    </TTGlyph>
    <TTGlyph name="Iotatonos" xMin="-74" yMin="0" xMax="376" yMax="704">
      <component glyphName="I" x="0" y="0" flags="0x0"/>
      <component glyphName="tonos" x="-256" y="0" flags="0x0"/>
    </TTGlyph>
    <TTGlyph name="Itilde" xMin="64" yMin="0" xMax="384" yMax="832">
      <component glyphName="I" x="0" y="0" flags="0x0"/>
      <component glyphName="tildecomb.case" x="448" y="0" flags="0x0"/>
    </TTGlyph>
    <TTGlyph name="J" xMin="62" yMin="-8" xMax="388" yMax="640">
      <contour>
        <pt x="130" y="137" on="1"/>
        <pt x="140" y="96" on="0"/>
        <pt x="183" y="56" on="0"/>
        <pt x="224" y="56" on="1"/>
        <pt x="276" y="56" on="0"/>
        <pt x="316" y="113" on="0"/>
        <pt x="316" y="169" on="1"/>
        <pt x="316" y="576" on="1"/>
        <pt x="162" y="576" on="1"/>
        <pt x="162" y="640" on="1"/>
        <pt x="388" y="640" on="1"/>
        <pt x="388" y="173" on="1"/>
        <pt x="388" y="80" on="0"/>
        <pt x="300" y="-8" on="0"/>
        <pt x="224" y="-8" on="1"/>
        <pt x="155" y="-8" on="0"/>
        <pt x="75" y="59" on="0"/>
        <pt x="62" y="120" on="1"/>
      </contour>
    </TTGlyph>
    <TTGlyph name="J.sups" xMin="128" yMin="320" xMax="320" yMax="640">
      <contour>
        <pt x="192" y="640" on="1"/>
        <pt x="192" y="576" on="1"/>
        <pt x="128" y="576" on="1"/>
        <pt x="128" y="640" on="1"/>
      </contour>
      <contour>
        <pt x="256" y="640" on="1"/>
        <pt x="256" y="576" on="1"/>
        <pt x="192" y="576" on="1"/>
        <pt x="192" y="640" on="1"/>
      </contour>
      <contour>
        <pt x="320" y="640" on="1"/>
        <pt x="320" y="576" on="1"/>
        <pt x="256" y="576" on="1"/>
        <pt x="256" y="640" on="1"/>
      </contour>
      <contour>
        <pt x="320" y="576" on="1"/>
        <pt x="320" y="512" on="1"/>
        <pt x="256" y="512" on="1"/>
        <pt x="256" y="576" on="1"/>
      </contour>
      <contour>
        <pt x="320" y="512" on="1"/>
        <pt x="320" y="448" on="1"/>
        <pt x="256" y="448" on="1"/>
        <pt x="256" y="512" on="1"/>
      </contour>
      <contour>
        <pt x="320" y="448" on="1"/>
        <pt x="320" y="384" on="1"/>
        <pt x="256" y="384" on="1"/>
        <pt x="256" y="448" on="1"/>
      </contour>
      <contour>
        <pt x="256" y="384" on="1"/>
        <pt x="256" y="320" on="1"/>
        <pt x="192" y="320" on="1"/>
        <pt x="192" y="384" on="1"/>
      </contour>
      <contour>
        <pt x="192" y="384" on="1"/>
        <pt x="192" y="320" on="1"/>
        <pt x="128" y="320" on="1"/>
        <pt x="128" y="384" on="1"/>
      </contour>
    </TTGlyph>
    <TTGlyph name="Jcircumflex" xMin="62" yMin="-8" xMax="388" yMax="842">
      <component glyphName="J" x="0" y="0" flags="0x0"/>
      <component glyphName="uni0302.case" x="494" y="0" flags="0x0"/>
    </TTGlyph>
    <TTGlyph name="K" xMin="60" yMin="0" xMax="400" yMax="640">
      <contour>
        <pt x="60" y="640" on="1"/>
        <pt x="132" y="640" on="1"/>
        <pt x="132" y="325" on="1"/>
        <pt x="180" y="325" on="1"/>
        <pt x="241" y="399" on="0"/>
        <pt x="308" y="537" on="0"/>
        <pt x="325" y="640" on="1"/>
        <pt x="400" y="640" on="1"/>
        <pt x="383" y="535" on="0"/>
        <pt x="317" y="391" on="0"/>
        <pt x="255" y="321" on="1"/>
        <pt x="318" y="309" on="0"/>
        <pt x="383" y="225" on="0"/>
        <pt x="388" y="151" on="1"/>
        <pt x="399" y="0" on="1"/>
        <pt x="324" y="0" on="1"/>
        <pt x="316" y="146" on="1"/>
        <pt x="313" y="189" on="0"/>
        <pt x="290" y="239" on="0"/>
        <pt x="241" y="261" on="0"/>
        <pt x="199" y="261" on="1"/>
        <pt x="132" y="261" on="1"/>
        <pt x="132" y="0" on="1"/>
        <pt x="60" y="0" on="1"/>
      </contour>
    </TTGlyph>
    <TTGlyph name="K.sups" xMin="128" yMin="320" xMax="320" yMax="640">
      <contour>
        <pt x="192" y="640" on="1"/>
        <pt x="192" y="576" on="1"/>
        <pt x="128" y="576" on="1"/>
        <pt x="128" y="640" on="1"/>
      </contour>
      <contour>
        <pt x="192" y="576" on="1"/>
        <pt x="192" y="512" on="1"/>
        <pt x="128" y="512" on="1"/>
        <pt x="128" y="576" on="1"/>
      </contour>
      <contour>
        <pt x="192" y="512" on="1"/>
        <pt x="192" y="448" on="1"/>
        <pt x="128" y="448" on="1"/>
        <pt x="128" y="512" on="1"/>
      </contour>
      <contour>
        <pt x="192" y="448" on="1"/>
        <pt x="192" y="384" on="1"/>
        <pt x="128" y="384" on="1"/>
        <pt x="128" y="448" on="1"/>
      </contour>
      <contour>
        <pt x="192" y="384" on="1"/>
        <pt x="192" y="320" on="1"/>
        <pt x="128" y="320" on="1"/>
        <pt x="128" y="384" on="1"/>
      </contour>
      <contour>
        <pt x="256" y="512" on="1"/>
        <pt x="256" y="448" on="1"/>
        <pt x="192" y="448" on="1"/>
        <pt x="192" y="512" on="1"/>
      </contour>
      <contour>
        <pt x="320" y="640" on="1"/>
        <pt x="320" y="576" on="1"/>
        <pt x="256" y="576" on="1"/>
        <pt x="256" y="640" on="1"/>
      </contour>
      <contour>
        <pt x="320" y="576" on="1"/>
        <pt x="320" y="512" on="1"/>
        <pt x="256" y="512" on="1"/>
        <pt x="256" y="576" on="1"/>
      </contour>
      <contour>
        <pt x="320" y="448" on="1"/>
        <pt x="320" y="384" on="1"/>
        <pt x="256" y="384" on="1"/>
        <pt x="256" y="448" on="1"/>
      </contour>
      <contour>
        <pt x="320" y="384" on="1"/>
        <pt x="320" y="320" on="1"/>
        <pt x="256" y="320" on="1"/>
        <pt x="256" y="384" on="1"/>
      </contour>
    </TTGlyph>
    <TTGlyph name="Kappa" xMin="60" yMin="0" xMax="400" yMax="640">
      <component glyphName="K" x="0" y="0" flags="0x0"/>
    </TTGlyph>
    <TTGlyph name="L" xMin="60" yMin="0" xMax="384" yMax="640">
      <contour>
        <pt x="60" y="640" on="1"/>
        <pt x="132" y="640" on="1"/>
        <pt x="132" y="64" on="1"/>
        <pt x="384" y="64" on="1"/>
        <pt x="384" y="0" on="1"/>
        <pt x="60" y="0" on="1"/>
      </contour>
    </TTGlyph>
    <TTGlyph name="L.sups" xMin="128" yMin="320" xMax="320" yMax="640">
      <contour>
        <pt x="320" y="320" on="1"/>
        <pt x="128" y="320" on="1"/>
        <pt x="128" y="640" on="1"/>
        <pt x="192" y="640" on="1"/>
        <pt x="192" y="376" on="1"/>
        <pt x="320" y="376" on="1"/>
      </contour>
    </TTGlyph>
    <TTGlyph name="Lacute" xMin="60" yMin="0" xMax="384" yMax="842">
      <component glyphName="L" x="0" y="0" flags="0x0"/>
      <component glyphName="acutecomb.case" x="320" y="0" flags="0x0"/>
    </TTGlyph>
    <TTGlyph name="Lambda" xMin="35" yMin="0" xMax="413" yMax="643">
      <contour>
        <pt x="35" y="0" on="1"/>
        <pt x="50" y="187" on="0"/>
        <pt x="130" y="520" on="0"/>
        <pt x="192" y="643" on="1"/>
        <pt x="256" y="643" on="1"/>
        <pt x="318" y="520" on="0"/>
        <pt x="398" y="187" on="0"/>
        <pt x="413" y="0" on="1"/>
        <pt x="338" y="0" on="1"/>
        <pt x="323" y="166" on="0"/>
        <pt x="265" y="448" on="0"/>
        <pt x="224" y="551" on="1"/>
        <pt x="183" y="448" on="0"/>
        <pt x="125" y="166" on="0"/>
        <pt x="110" y="0" on="1"/>
      </contour>
    </TTGlyph>
    <TTGlyph name="Lcaron" xMin="60" yMin="0" xMax="384" yMax="640">
      <component glyphName="L" x="0" y="0" flags="0x0"/>
      <component glyphName="uni0315" x="384" y="0" flags="0x0"/>
    </TTGlyph>
    <TTGlyph name="Ldot" xMin="60" yMin="0" xMax="384" yMax="640">
      <component glyphName="L" x="0" y="0" flags="0x0"/>
      <component glyphName="period" x="128" y="256" flags="0x4"/>
    </TTGlyph>
    <TTGlyph name="Lslash" xMin="-39" yMin="0" xMax="384" yMax="640">
      <component glyphName="L" x="0" y="0" flags="0x0"/>
      <component glyphName="_part.slash.comp" x="-112" y="0" flags="0x0"/>
    </TTGlyph>
    <TTGlyph name="M" xMin="14" yMin="0" xMax="434" yMax="640">
      <contour>
        <pt x="14" y="0" on="1"/>
        <pt x="19" y="356" on="0"/>
        <pt x="39" y="640" on="1"/>
        <pt x="126" y="640" on="1"/>
        <pt x="223" y="271" on="1"/>
        <pt x="225" y="271" on="1"/>
        <pt x="322" y="640" on="1"/>
        <pt x="409" y="640" on="1"/>
        <pt x="429" y="356" on="0"/>
        <pt x="434" y="0" on="1"/>
        <pt x="362" y="0" on="1"/>
        <pt x="362" y="24" on="0"/>
        <pt x="362" y="71" on="0"/>
        <pt x="362" y="95" on="1"/>
        <pt x="359" y="304" on="0"/>
        <pt x="350" y="510" on="1"/>
        <pt x="348" y="510" on="1"/>
        <pt x="252" y="150" on="1"/>
        <pt x="196" y="150" on="1"/>
        <pt x="99" y="510" on="1"/>
        <pt x="97" y="510" on="1"/>
        <pt x="86" y="243" on="0"/>
        <pt x="86" y="0" on="1"/>
      </contour>
    </TTGlyph>
    <TTGlyph name="M.sups" xMin="128" yMin="320" xMax="320" yMax="640">
      <contour>
        <pt x="192" y="384" on="1"/>
        <pt x="192" y="320" on="1"/>
        <pt x="128" y="320" on="1"/>
        <pt x="128" y="384" on="1"/>
      </contour>
      <contour>
        <pt x="192" y="448" on="1"/>
        <pt x="192" y="384" on="1"/>
        <pt x="128" y="384" on="1"/>
        <pt x="128" y="448" on="1"/>
      </contour>
      <contour>
        <pt x="192" y="512" on="1"/>
        <pt x="192" y="448" on="1"/>
        <pt x="128" y="448" on="1"/>
        <pt x="128" y="512" on="1"/>
      </contour>
      <contour>
        <pt x="192" y="576" on="1"/>
        <pt x="192" y="512" on="1"/>
        <pt x="128" y="512" on="1"/>
        <pt x="128" y="576" on="1"/>
      </contour>
      <contour>
        <pt x="192" y="640" on="1"/>
        <pt x="192" y="576" on="1"/>
        <pt x="128" y="576" on="1"/>
        <pt x="128" y="640" on="1"/>
      </contour>
      <contour>
        <pt x="256" y="640" on="1"/>
        <pt x="256" y="576" on="1"/>
        <pt x="192" y="576" on="1"/>
        <pt x="192" y="640" on="1"/>
      </contour>
      <contour>
        <pt x="320" y="640" on="1"/>
        <pt x="320" y="576" on="1"/>
        <pt x="256" y="576" on="1"/>
        <pt x="256" y="640" on="1"/>
      </contour>
      <contour>
        <pt x="320" y="576" on="1"/>
        <pt x="320" y="512" on="1"/>
        <pt x="256" y="512" on="1"/>
        <pt x="256" y="576" on="1"/>
      </contour>
      <contour>
        <pt x="320" y="512" on="1"/>
        <pt x="320" y="448" on="1"/>
        <pt x="256" y="448" on="1"/>
        <pt x="256" y="512" on="1"/>
      </contour>
      <contour>
        <pt x="320" y="448" on="1"/>
        <pt x="320" y="384" on="1"/>
        <pt x="256" y="384" on="1"/>
        <pt x="256" y="448" on="1"/>
      </contour>
      <contour>
        <pt x="320" y="384" on="1"/>
        <pt x="320" y="320" on="1"/>
        <pt x="256" y="320" on="1"/>
        <pt x="256" y="384" on="1"/>
      </contour>
      <contour>
        <pt x="256" y="576" on="1"/>
        <pt x="256" y="512" on="1"/>
        <pt x="192" y="512" on="1"/>
        <pt x="192" y="576" on="1"/>
      </contour>
      <contour>
        <pt x="256" y="512" on="1"/>
        <pt x="256" y="448" on="1"/>
        <pt x="192" y="448" on="1"/>
        <pt x="192" y="512" on="1"/>
      </contour>
      <contour>
        <pt x="256" y="448" on="1"/>
        <pt x="256" y="384" on="1"/>
        <pt x="192" y="384" on="1"/>
        <pt x="192" y="448" on="1"/>
      </contour>
    </TTGlyph>
    <TTGlyph name="Mu" xMin="14" yMin="0" xMax="434" yMax="640">
      <component glyphName="M" x="0" y="0" flags="0x0"/>
    </TTGlyph>
    <TTGlyph name="N" xMin="60" yMin="0" xMax="388" yMax="640">
      <contour>
        <pt x="60" y="640" on="1"/>
        <pt x="142" y="640" on="1"/>
        <pt x="286" y="256" on="1"/>
        <pt x="316" y="132" on="1"/>
        <pt x="316" y="640" on="1"/>
        <pt x="388" y="640" on="1"/>
        <pt x="388" y="0" on="1"/>
        <pt x="306" y="0" on="1"/>
        <pt x="162" y="384" on="1"/>
        <pt x="132" y="506" on="1"/>
        <pt x="132" y="0" on="1"/>
        <pt x="60" y="0" on="1"/>
      </contour>
    </TTGlyph>
    <TTGlyph name="N.sups" xMin="128" yMin="320" xMax="320" yMax="640">
      <contour>
        <pt x="192" y="640" on="1"/>
        <pt x="192" y="576" on="1"/>
        <pt x="128" y="576" on="1"/>
        <pt x="128" y="640" on="1"/>
      </contour>
      <contour>
        <pt x="192" y="576" on="1"/>
        <pt x="192" y="512" on="1"/>
        <pt x="128" y="512" on="1"/>
        <pt x="128" y="576" on="1"/>
      </contour>
      <contour>
        <pt x="192" y="512" on="1"/>
        <pt x="192" y="448" on="1"/>
        <pt x="128" y="448" on="1"/>
        <pt x="128" y="512" on="1"/>
      </contour>
      <contour>
        <pt x="192" y="448" on="1"/>
        <pt x="192" y="384" on="1"/>
        <pt x="128" y="384" on="1"/>
        <pt x="128" y="448" on="1"/>
      </contour>
      <contour>
        <pt x="192" y="384" on="1"/>
        <pt x="192" y="320" on="1"/>
        <pt x="128" y="320" on="1"/>
        <pt x="128" y="384" on="1"/>
      </contour>
      <contour>
        <pt x="256" y="640" on="1"/>
        <pt x="256" y="576" on="1"/>
        <pt x="192" y="576" on="1"/>
        <pt x="192" y="640" on="1"/>
      </contour>
      <contour>
        <pt x="320" y="576" on="1"/>
        <pt x="320" y="512" on="1"/>
        <pt x="256" y="512" on="1"/>
        <pt x="256" y="576" on="1"/>
      </contour>
      <contour>
        <pt x="320" y="512" on="1"/>
        <pt x="320" y="448" on="1"/>
        <pt x="256" y="448" on="1"/>
        <pt x="256" y="512" on="1"/>
      </contour>
      <contour>
        <pt x="320" y="448" on="1"/>
        <pt x="320" y="384" on="1"/>
        <pt x="256" y="384" on="1"/>
        <pt x="256" y="448" on="1"/>
      </contour>
      <contour>
        <pt x="320" y="384" on="1"/>
        <pt x="320" y="320" on="1"/>
        <pt x="256" y="320" on="1"/>
        <pt x="256" y="384" on="1"/>
      </contour>
    </TTGlyph>
    <TTGlyph name="Nacute" xMin="60" yMin="0" xMax="388" yMax="842">
      <component glyphName="N" x="0" y="0" flags="0x0"/>
      <component glyphName="acutecomb.case" x="448" y="0" flags="0x0"/>
    </TTGlyph>
    <TTGlyph name="Ncaron" xMin="60" yMin="0" xMax="388" yMax="841">
      <component glyphName="N" x="0" y="0" flags="0x0"/>
      <component glyphName="uni030C.case" x="448" y="0" flags="0x0"/>
    </TTGlyph>
    <TTGlyph name="Ntilde" xMin="60" yMin="0" xMax="388" yMax="832">
      <component glyphName="N" x="0" y="0" flags="0x0"/>
      <component glyphName="tildecomb.case" x="448" y="0" flags="0x0"/>
    </TTGlyph>
    <TTGlyph name="Nu" xMin="60" yMin="0" xMax="388" yMax="640">
      <component glyphName="N" x="0" y="0" flags="0x0"/>
    </TTGlyph>
    <TTGlyph name="O" xMin="37" yMin="-10" xMax="411" yMax="650">
      <contour>
        <pt x="224" y="-10" on="1"/>
        <pt x="130" y="-10" on="0"/>
        <pt x="37" y="155" on="0"/>
        <pt x="37" y="319" on="1"/>
        <pt x="37" y="486" on="0"/>
        <pt x="130" y="650" on="0"/>
        <pt x="224" y="650" on="1"/>
        <pt x="320" y="650" on="0"/>
        <pt x="411" y="487" on="0"/>
        <pt x="411" y="319" on="1"/>
        <pt x="411" y="154" on="0"/>
        <pt x="320" y="-10" on="0"/>
      </contour>
      <contour>
        <pt x="224" y="56" on="1"/>
        <pt x="265" y="56" on="0"/>
        <pt x="313" y="108" on="0"/>
        <pt x="335" y="222" on="0"/>
        <pt x="335" y="319" on="1"/>
        <pt x="335" y="417" on="0"/>
        <pt x="313" y="532" on="0"/>
        <pt x="265" y="584" on="0"/>
        <pt x="224" y="584" on="1"/>
        <pt x="183" y="584" on="0"/>
        <pt x="135" y="532" on="0"/>
        <pt x="113" y="417" on="0"/>
        <pt x="113" y="319" on="1"/>
        <pt x="113" y="222" on="0"/>
        <pt x="135" y="108" on="0"/>
        <pt x="183" y="56" on="0"/>
      </contour>
    </TTGlyph>
    <TTGlyph name="O.sups" xMin="128" yMin="320" xMax="320" yMax="640">
      <contour>
        <pt x="192" y="640" on="1"/>
        <pt x="192" y="576" on="1"/>
        <pt x="128" y="576" on="1"/>
        <pt x="128" y="640" on="1"/>
      </contour>
      <contour>
        <pt x="192" y="576" on="1"/>
        <pt x="192" y="512" on="1"/>
        <pt x="128" y="512" on="1"/>
        <pt x="128" y="576" on="1"/>
      </contour>
      <contour>
        <pt x="192" y="512" on="1"/>
        <pt x="192" y="448" on="1"/>
        <pt x="128" y="448" on="1"/>
        <pt x="128" y="512" on="1"/>
      </contour>
      <contour>
        <pt x="192" y="448" on="1"/>
        <pt x="192" y="384" on="1"/>
        <pt x="128" y="384" on="1"/>
        <pt x="128" y="448" on="1"/>
      </contour>
      <contour>
        <pt x="192" y="384" on="1"/>
        <pt x="192" y="320" on="1"/>
        <pt x="128" y="320" on="1"/>
        <pt x="128" y="384" on="1"/>
      </contour>
      <contour>
        <pt x="256" y="384" on="1"/>
        <pt x="256" y="320" on="1"/>
        <pt x="192" y="320" on="1"/>
        <pt x="192" y="384" on="1"/>
      </contour>
      <contour>
        <pt x="320" y="384" on="1"/>
        <pt x="320" y="320" on="1"/>
        <pt x="256" y="320" on="1"/>
        <pt x="256" y="384" on="1"/>
      </contour>
      <contour>
        <pt x="320" y="448" on="1"/>
        <pt x="320" y="384" on="1"/>
        <pt x="256" y="384" on="1"/>
        <pt x="256" y="448" on="1"/>
      </contour>
      <contour>
        <pt x="320" y="512" on="1"/>
        <pt x="320" y="448" on="1"/>
        <pt x="256" y="448" on="1"/>
        <pt x="256" y="512" on="1"/>
      </contour>
      <contour>
        <pt x="320" y="576" on="1"/>
        <pt x="320" y="512" on="1"/>
        <pt x="256" y="512" on="1"/>
        <pt x="256" y="576" on="1"/>
      </contour>
      <contour>
        <pt x="320" y="640" on="1"/>
        <pt x="320" y="576" on="1"/>
        <pt x="256" y="576" on="1"/>
        <pt x="256" y="640" on="1"/>
      </contour>
      <contour>
        <pt x="256" y="640" on="1"/>
        <pt x="256" y="576" on="1"/>
        <pt x="192" y="576" on="1"/>
        <pt x="192" y="640" on="1"/>
      </contour>
    </TTGlyph>
    <TTGlyph name="OE" xMin="-2" yMin="0" xMax="448" yMax="640">
      <contour>
        <pt x="170" y="0" on="1"/>
        <pt x="84" y="0" on="0"/>
        <pt x="-2" y="161" on="0"/>
        <pt x="-2" y="319" on="1"/>
        <pt x="-2" y="481" on="0"/>
        <pt x="83" y="640" on="0"/>
        <pt x="170" y="640" on="1"/>
        <pt x="438" y="640" on="1"/>
        <pt x="438" y="576" on="1"/>
        <pt x="270" y="576" on="1"/>
        <pt x="270" y="320" on="1"/>
        <pt x="400" y="320" on="1"/>
        <pt x="400" y="256" on="1"/>
        <pt x="270" y="256" on="1"/>
        <pt x="270" y="64" on="1"/>
        <pt x="448" y="64" on="1"/>
        <pt x="448" y="0" on="1"/>
      </contour>
      <contour>
        <pt x="198" y="64" on="1"/>
        <pt x="198" y="576" on="1"/>
        <pt x="170" y="576" on="1"/>
        <pt x="135" y="576" on="0"/>
        <pt x="93" y="525" on="0"/>
        <pt x="74" y="414" on="0"/>
        <pt x="74" y="319" on="1"/>
        <pt x="74" y="225" on="0"/>
        <pt x="93" y="115" on="0"/>
        <pt x="135" y="64" on="0"/>
        <pt x="170" y="64" on="1"/>
      </contour>
    </TTGlyph>
    <TTGlyph name="Oacute" xMin="37" yMin="-10" xMax="411" yMax="842">
      <component glyphName="O" x="0" y="0" flags="0x0"/>
      <component glyphName="acutecomb.case" x="448" y="0" flags="0x0"/>
    </TTGlyph>
    <TTGlyph name="Obreve" xMin="37" yMin="-10" xMax="411" yMax="832">
      <component glyphName="O" x="0" y="0" flags="0x0"/>
      <component glyphName="uni0306.case" x="448" y="0" flags="0x0"/>
    </TTGlyph>
    <TTGlyph name="Ocircumflex" xMin="37" yMin="-10" xMax="411" yMax="842">
      <component glyphName="O" x="0" y="0" flags="0x0"/>
      <component glyphName="uni0302.case" x="448" y="0" flags="0x0"/>
    </TTGlyph>
    <TTGlyph name="Odieresis" xMin="37" yMin="-10" xMax="411" yMax="822">
      <component glyphName="O" x="0" y="0" flags="0x0"/>
      <component glyphName="uni0308.case" x="448" y="0" flags="0x0"/>
    </TTGlyph>
    <TTGlyph name="Ograve" xMin="37" yMin="-10" xMax="411" yMax="842">
      <component glyphName="O" x="0" y="0" flags="0x0"/>
      <component glyphName="gravecomb.case" x="448" y="0" flags="0x0"/>
    </TTGlyph>
    <TTGlyph name="Ohungarumlaut" xMin="37" yMin="-10" xMax="448" yMax="896">
      <component glyphName="O" x="0" y="0" flags="0x0"/>
      <component glyphName="uni030B.case" x="448" y="0" flags="0x0"/>
    </TTGlyph>
    <TTGlyph name="Omacron" xMin="37" yMin="-10" xMax="411" yMax="768">
      <component glyphName="O" x="0" y="0" flags="0x0"/>
      <component glyphName="uni0304.case" x="448" y="0" flags="0x0"/>
    </TTGlyph>
    <TTGlyph name="Omegatonos" xMin="-74" yMin="0" xMax="411" yMax="704">
      <component glyphName="uni03A9" x="0" y="0" flags="0x0"/>
      <component glyphName="tonos" x="-256" y="0" flags="0x0"/>
    </TTGlyph>
    <TTGlyph name="Omicron" xMin="37" yMin="-10" xMax="411" yMax="650">
      <component glyphName="O" x="0" y="0" flags="0x0"/>
    </TTGlyph>
    <TTGlyph name="Omicrontonos" xMin="-74" yMin="-10" xMax="411" yMax="704">
      <component glyphName="O" x="0" y="0" flags="0x0"/>
      <component glyphName="tonos" x="-256" y="0" flags="0x0"/>
    </TTGlyph>
    <TTGlyph name="Oslash" xMin="34" yMin="-16" xMax="414" yMax="656">
      <contour>
        <pt x="414" y="626" on="1"/>
        <pt x="93" y="-16" on="1"/>
        <pt x="34" y="15" on="1"/>
        <pt x="355" y="656" on="1"/>
      </contour>
      <contour>
        <pt x="224" y="-10" on="1"/>
        <pt x="130" y="-10" on="0"/>
        <pt x="37" y="155" on="0"/>
        <pt x="37" y="319" on="1"/>
        <pt x="37" y="486" on="0"/>
        <pt x="130" y="650" on="0"/>
        <pt x="224" y="650" on="1"/>
        <pt x="320" y="650" on="0"/>
        <pt x="411" y="487" on="0"/>
        <pt x="411" y="319" on="1"/>
        <pt x="411" y="154" on="0"/>
        <pt x="320" y="-10" on="0"/>
      </contour>
      <contour>
        <pt x="224" y="56" on="1"/>
        <pt x="265" y="56" on="0"/>
        <pt x="313" y="108" on="0"/>
        <pt x="335" y="222" on="0"/>
        <pt x="335" y="319" on="1"/>
        <pt x="335" y="417" on="0"/>
        <pt x="313" y="532" on="0"/>
        <pt x="265" y="584" on="0"/>
        <pt x="224" y="584" on="1"/>
        <pt x="183" y="584" on="0"/>
        <pt x="135" y="532" on="0"/>
        <pt x="113" y="417" on="0"/>
        <pt x="113" y="319" on="1"/>
        <pt x="113" y="222" on="0"/>
        <pt x="135" y="108" on="0"/>
        <pt x="183" y="56" on="0"/>
      </contour>
    </TTGlyph>
    <TTGlyph name="Oslashacute" xMin="34" yMin="-16" xMax="414" yMax="842">
      <component glyphName="Oslash" x="0" y="0" flags="0x0"/>
      <component glyphName="acutecomb.case" x="448" y="0" flags="0x0"/>
    </TTGlyph>
    <TTGlyph name="Otilde" xMin="37" yMin="-10" xMax="411" yMax="832">
      <component glyphName="O" x="0" y="0" flags="0x0"/>
      <component glyphName="tildecomb.case" x="448" y="0" flags="0x0"/>
    </TTGlyph>
    <TTGlyph name="P" xMin="60" yMin="0" xMax="401" yMax="640">
      <contour>
        <pt x="60" y="640" on="1"/>
        <pt x="215" y="640" on="1"/>
        <pt x="301" y="640" on="0"/>
        <pt x="401" y="522" on="0"/>
        <pt x="401" y="414" on="1"/>
        <pt x="401" y="306" on="0"/>
        <pt x="301" y="192" on="0"/>
        <pt x="215" y="192" on="1"/>
        <pt x="132" y="192" on="1"/>
        <pt x="132" y="0" on="1"/>
        <pt x="60" y="0" on="1"/>
      </contour>
      <contour>
        <pt x="208" y="256" on="1"/>
        <pt x="275" y="256" on="0"/>
        <pt x="325" y="336" on="0"/>
        <pt x="325" y="414" on="1"/>
        <pt x="325" y="494" on="0"/>
        <pt x="274" y="576" on="0"/>
        <pt x="208" y="576" on="1"/>
        <pt x="132" y="576" on="1"/>
        <pt x="132" y="256" on="1"/>
      </contour>
    </TTGlyph>
    <TTGlyph name="P.sups" xMin="128" yMin="320" xMax="320" yMax="640">
      <contour>
        <pt x="192" y="640" on="1"/>
        <pt x="192" y="576" on="1"/>
        <pt x="128" y="576" on="1"/>
        <pt x="128" y="640" on="1"/>
      </contour>
      <contour>
        <pt x="192" y="576" on="1"/>
        <pt x="192" y="512" on="1"/>
        <pt x="128" y="512" on="1"/>
        <pt x="128" y="576" on="1"/>
      </contour>
      <contour>
        <pt x="192" y="448" on="1"/>
        <pt x="192" y="384" on="1"/>
        <pt x="128" y="384" on="1"/>
        <pt x="128" y="448" on="1"/>
      </contour>
      <contour>
        <pt x="192" y="384" on="1"/>
        <pt x="192" y="320" on="1"/>
        <pt x="128" y="320" on="1"/>
        <pt x="128" y="384" on="1"/>
      </contour>
      <contour>
        <pt x="192" y="512" on="1"/>
        <pt x="192" y="448" on="1"/>
        <pt x="128" y="448" on="1"/>
        <pt x="128" y="512" on="1"/>
      </contour>
      <contour>
        <pt x="256" y="640" on="1"/>
        <pt x="256" y="576" on="1"/>
        <pt x="192" y="576" on="1"/>
        <pt x="192" y="640" on="1"/>
      </contour>
      <contour>
        <pt x="320" y="576" on="1"/>
        <pt x="320" y="512" on="1"/>
        <pt x="256" y="512" on="1"/>
        <pt x="256" y="576" on="1"/>
      </contour>
      <contour>
        <pt x="256" y="512" on="1"/>
        <pt x="256" y="448" on="1"/>
        <pt x="192" y="448" on="1"/>
        <pt x="192" y="512" on="1"/>
      </contour>
      <contour>
        <pt x="320" y="640" on="1"/>
        <pt x="320" y="576" on="1"/>
        <pt x="256" y="576" on="1"/>
        <pt x="256" y="640" on="1"/>
      </contour>
      <contour>
        <pt x="320" y="512" on="1"/>
        <pt x="320" y="448" on="1"/>
        <pt x="256" y="448" on="1"/>
        <pt x="256" y="512" on="1"/>
      </contour>
    </TTGlyph>
    <TTGlyph name="Phi" xMin="64" yMin="0" xMax="384" yMax="640">
      <component glyphName="uni0424" x="0" y="0" flags="0x0"/>
    </TTGlyph>
    <TTGlyph name="Pi" xMin="60" yMin="0" xMax="388" yMax="640">
      <component glyphName="uni041F" x="0" y="0" flags="0x0"/>
    </TTGlyph>
    <TTGlyph name="Psi" xMin="64" yMin="0" xMax="384" yMax="640">
      <contour>
        <pt x="256" y="64" on="1"/>
        <pt x="256" y="0" on="1"/>
        <pt x="192" y="0" on="1"/>
        <pt x="192" y="64" on="1"/>
      </contour>
      <contour>
        <pt x="256" y="128" on="1"/>
        <pt x="256" y="64" on="1"/>
        <pt x="192" y="64" on="1"/>
        <pt x="192" y="128" on="1"/>
      </contour>
      <contour>
        <pt x="256" y="192" on="1"/>
        <pt x="256" y="128" on="1"/>
        <pt x="192" y="128" on="1"/>
        <pt x="192" y="192" on="1"/>
      </contour>
      <contour>
        <pt x="256" y="256" on="1"/>
        <pt x="256" y="192" on="1"/>
        <pt x="192" y="192" on="1"/>
        <pt x="192" y="256" on="1"/>
      </contour>
      <contour>
        <pt x="256" y="320" on="1"/>
        <pt x="256" y="256" on="1"/>
        <pt x="192" y="256" on="1"/>
        <pt x="192" y="320" on="1"/>
      </contour>
      <contour>
        <pt x="256" y="384" on="1"/>
        <pt x="256" y="320" on="1"/>
        <pt x="192" y="320" on="1"/>
        <pt x="192" y="384" on="1"/>
      </contour>
      <contour>
        <pt x="256" y="448" on="1"/>
        <pt x="256" y="384" on="1"/>
        <pt x="192" y="384" on="1"/>
        <pt x="192" y="448" on="1"/>
      </contour>
      <contour>
        <pt x="256" y="512" on="1"/>
        <pt x="256" y="448" on="1"/>
        <pt x="192" y="448" on="1"/>
        <pt x="192" y="512" on="1"/>
      </contour>
      <contour>
        <pt x="256" y="576" on="1"/>
        <pt x="256" y="512" on="1"/>
        <pt x="192" y="512" on="1"/>
        <pt x="192" y="576" on="1"/>
      </contour>
      <contour>
        <pt x="256" y="640" on="1"/>
        <pt x="256" y="576" on="1"/>
        <pt x="192" y="576" on="1"/>
        <pt x="192" y="640" on="1"/>
      </contour>
      <contour>
        <pt x="128" y="640" on="1"/>
        <pt x="128" y="576" on="1"/>
        <pt x="64" y="576" on="1"/>
        <pt x="64" y="640" on="1"/>
      </contour>
      <contour>
        <pt x="128" y="576" on="1"/>
        <pt x="128" y="512" on="1"/>
        <pt x="64" y="512" on="1"/>
        <pt x="64" y="576" on="1"/>
      </contour>
      <contour>
        <pt x="128" y="512" on="1"/>
        <pt x="128" y="448" on="1"/>
        <pt x="64" y="448" on="1"/>
        <pt x="64" y="512" on="1"/>
      </contour>
      <contour>
        <pt x="128" y="448" on="1"/>
        <pt x="128" y="384" on="1"/>
        <pt x="64" y="384" on="1"/>
        <pt x="64" y="448" on="1"/>
      </contour>
      <contour>
        <pt x="384" y="448" on="1"/>
        <pt x="384" y="384" on="1"/>
        <pt x="320" y="384" on="1"/>
        <pt x="320" y="448" on="1"/>
      </contour>
      <contour>
        <pt x="384" y="512" on="1"/>
        <pt x="384" y="448" on="1"/>
        <pt x="320" y="448" on="1"/>
        <pt x="320" y="512" on="1"/>
      </contour>
      <contour>
        <pt x="384" y="576" on="1"/>
        <pt x="384" y="512" on="1"/>
        <pt x="320" y="512" on="1"/>
        <pt x="320" y="576" on="1"/>
      </contour>
      <contour>
        <pt x="384" y="640" on="1"/>
        <pt x="384" y="576" on="1"/>
        <pt x="320" y="576" on="1"/>
        <pt x="320" y="640" on="1"/>
      </contour>
      <contour>
        <pt x="128" y="384" on="1"/>
        <pt x="128" y="320" on="1"/>
        <pt x="64" y="320" on="1"/>
        <pt x="64" y="384" on="1"/>
      </contour>
      <contour>
        <pt x="192" y="320" on="1"/>
        <pt x="192" y="256" on="1"/>
        <pt x="128" y="256" on="1"/>
        <pt x="128" y="320" on="1"/>
      </contour>
      <contour>
        <pt x="320" y="320" on="1"/>
        <pt x="320" y="256" on="1"/>
        <pt x="256" y="256" on="1"/>
        <pt x="256" y="320" on="1"/>
      </contour>
      <contour>
        <pt x="384" y="384" on="1"/>
        <pt x="384" y="320" on="1"/>
        <pt x="320" y="320" on="1"/>
        <pt x="320" y="384" on="1"/>
      </contour>
    </TTGlyph>
    <TTGlyph name="Q" xMin="37" yMin="-145" xMax="415" yMax="650">
      <contour>
        <pt x="405" y="-145" on="1"/>
        <pt x="325" y="-138" on="0"/>
        <pt x="221" y="-75" on="0"/>
        <pt x="208" y="-9" on="1"/>
        <pt x="122" y="-2" on="0"/>
        <pt x="37" y="163" on="0"/>
        <pt x="37" y="319" on="1"/>
        <pt x="37" y="486" on="0"/>
        <pt x="130" y="650" on="0"/>
        <pt x="224" y="650" on="1"/>
        <pt x="320" y="650" on="0"/>
        <pt x="411" y="487" on="0"/>
        <pt x="411" y="319" on="1"/>
        <pt x="411" y="181" on="0"/>
        <pt x="347" y="21" on="0"/>
        <pt x="281" y="-1" on="1"/>
        <pt x="286" y="-30" on="0"/>
        <pt x="316" y="-61" on="0"/>
        <pt x="369" y="-75" on="0"/>
        <pt x="415" y="-78" on="1"/>
      </contour>
      <contour>
        <pt x="224" y="56" on="1"/>
        <pt x="265" y="56" on="0"/>
        <pt x="313" y="108" on="0"/>
        <pt x="335" y="222" on="0"/>
        <pt x="335" y="319" on="1"/>
        <pt x="335" y="417" on="0"/>
        <pt x="313" y="532" on="0"/>
        <pt x="265" y="584" on="0"/>
        <pt x="224" y="584" on="1"/>
        <pt x="183" y="584" on="0"/>
        <pt x="135" y="532" on="0"/>
        <pt x="113" y="417" on="0"/>
        <pt x="113" y="319" on="1"/>
        <pt x="113" y="222" on="0"/>
        <pt x="135" y="108" on="0"/>
        <pt x="183" y="56" on="0"/>
      </contour>
    </TTGlyph>
    <TTGlyph name="Q.sups" xMin="128" yMin="256" xMax="320" yMax="640">
      <contour>
        <pt x="192" y="640" on="1"/>
        <pt x="192" y="576" on="1"/>
        <pt x="128" y="576" on="1"/>
        <pt x="128" y="640" on="1"/>
      </contour>
      <contour>
        <pt x="192" y="576" on="1"/>
        <pt x="192" y="512" on="1"/>
        <pt x="128" y="512" on="1"/>
        <pt x="128" y="576" on="1"/>
      </contour>
      <contour>
        <pt x="192" y="512" on="1"/>
        <pt x="192" y="448" on="1"/>
        <pt x="128" y="448" on="1"/>
        <pt x="128" y="512" on="1"/>
      </contour>
      <contour>
        <pt x="192" y="448" on="1"/>
        <pt x="192" y="384" on="1"/>
        <pt x="128" y="384" on="1"/>
        <pt x="128" y="448" on="1"/>
      </contour>
      <contour>
        <pt x="256" y="640" on="1"/>
        <pt x="256" y="576" on="1"/>
        <pt x="192" y="576" on="1"/>
        <pt x="192" y="640" on="1"/>
      </contour>
      <contour>
        <pt x="320" y="640" on="1"/>
        <pt x="320" y="576" on="1"/>
        <pt x="256" y="576" on="1"/>
        <pt x="256" y="640" on="1"/>
      </contour>
      <contour>
        <pt x="320" y="576" on="1"/>
        <pt x="320" y="512" on="1"/>
        <pt x="256" y="512" on="1"/>
        <pt x="256" y="576" on="1"/>
      </contour>
      <contour>
        <pt x="320" y="512" on="1"/>
        <pt x="320" y="448" on="1"/>
        <pt x="256" y="448" on="1"/>
        <pt x="256" y="512" on="1"/>
      </contour>
      <contour>
        <pt x="320" y="448" on="1"/>
        <pt x="320" y="384" on="1"/>
        <pt x="256" y="384" on="1"/>
        <pt x="256" y="448" on="1"/>
      </contour>
      <contour>
        <pt x="192" y="384" on="1"/>
        <pt x="192" y="320" on="1"/>
        <pt x="128" y="320" on="1"/>
        <pt x="128" y="384" on="1"/>
      </contour>
      <contour>
        <pt x="256" y="384" on="1"/>
        <pt x="256" y="320" on="1"/>
        <pt x="192" y="320" on="1"/>
        <pt x="192" y="384" on="1"/>
      </contour>
      <contour>
        <pt x="320" y="384" on="1"/>
        <pt x="320" y="320" on="1"/>
        <pt x="256" y="320" on="1"/>
        <pt x="256" y="384" on="1"/>
      </contour>
      <contour>
        <pt x="256" y="320" on="1"/>
        <pt x="256" y="256" on="1"/>
        <pt x="192" y="256" on="1"/>
        <pt x="192" y="320" on="1"/>
      </contour>
    </TTGlyph>
    <TTGlyph name="R" xMin="60" yMin="0" xMax="411" yMax="640">
      <contour>
        <pt x="60" y="640" on="1"/>
        <pt x="215" y="640" on="1"/>
        <pt x="300" y="640" on="0"/>
        <pt x="401" y="535" on="0"/>
        <pt x="401" y="440" on="1"/>
        <pt x="401" y="360" on="0"/>
        <pt x="327" y="267" on="0"/>
        <pt x="261" y="255" on="1"/>
        <pt x="324" y="228" on="0"/>
        <pt x="402" y="96" on="0"/>
        <pt x="411" y="0" on="1"/>
        <pt x="337" y="0" on="1"/>
        <pt x="327" y="96" on="0"/>
        <pt x="252" y="208" on="0"/>
        <pt x="182" y="241" on="1"/>
        <pt x="132" y="241" on="1"/>
        <pt x="132" y="0" on="1"/>
        <pt x="60" y="0" on="1"/>
      </contour>
      <contour>
        <pt x="208" y="305" on="1"/>
        <pt x="275" y="305" on="0"/>
        <pt x="325" y="373" on="0"/>
        <pt x="325" y="440" on="1"/>
        <pt x="325" y="507" on="0"/>
        <pt x="274" y="576" on="0"/>
        <pt x="208" y="576" on="1"/>
        <pt x="132" y="576" on="1"/>
        <pt x="132" y="305" on="1"/>
      </contour>
    </TTGlyph>
    <TTGlyph name="R.sups" xMin="128" yMin="320" xMax="320" yMax="640">
      <contour>
        <pt x="192" y="640" on="1"/>
        <pt x="192" y="576" on="1"/>
        <pt x="128" y="576" on="1"/>
        <pt x="128" y="640" on="1"/>
      </contour>
      <contour>
        <pt x="192" y="576" on="1"/>
        <pt x="192" y="512" on="1"/>
        <pt x="128" y="512" on="1"/>
        <pt x="128" y="576" on="1"/>
      </contour>
      <contour>
        <pt x="192" y="512" on="1"/>
        <pt x="192" y="448" on="1"/>
        <pt x="128" y="448" on="1"/>
        <pt x="128" y="512" on="1"/>
      </contour>
      <contour>
        <pt x="192" y="448" on="1"/>
        <pt x="192" y="384" on="1"/>
        <pt x="128" y="384" on="1"/>
        <pt x="128" y="448" on="1"/>
      </contour>
      <contour>
        <pt x="192" y="384" on="1"/>
        <pt x="192" y="320" on="1"/>
        <pt x="128" y="320" on="1"/>
        <pt x="128" y="384" on="1"/>
      </contour>
      <contour>
        <pt x="256" y="512" on="1"/>
        <pt x="256" y="448" on="1"/>
        <pt x="192" y="448" on="1"/>
        <pt x="192" y="512" on="1"/>
      </contour>
      <contour>
        <pt x="256" y="640" on="1"/>
        <pt x="256" y="576" on="1"/>
        <pt x="192" y="576" on="1"/>
        <pt x="192" y="640" on="1"/>
      </contour>
      <contour>
        <pt x="320" y="640" on="1"/>
        <pt x="320" y="576" on="1"/>
        <pt x="256" y="576" on="1"/>
        <pt x="256" y="640" on="1"/>
      </contour>
      <contour>
        <pt x="320" y="576" on="1"/>
        <pt x="320" y="512" on="1"/>
        <pt x="256" y="512" on="1"/>
        <pt x="256" y="576" on="1"/>
      </contour>
      <contour>
        <pt x="320" y="448" on="1"/>
        <pt x="320" y="384" on="1"/>
        <pt x="256" y="384" on="1"/>
        <pt x="256" y="448" on="1"/>
      </contour>
      <contour>
        <pt x="320" y="384" on="1"/>
        <pt x="320" y="320" on="1"/>
        <pt x="256" y="320" on="1"/>
        <pt x="256" y="384" on="1"/>
      </contour>
    </TTGlyph>
    <TTGlyph name="Racute" xMin="60" yMin="0" xMax="411" yMax="842">
      <component glyphName="R" x="0" y="0" flags="0x0"/>
      <component glyphName="acutecomb.case" x="448" y="0" flags="0x0"/>
    </TTGlyph>
    <TTGlyph name="Rcaron" xMin="60" yMin="0" xMax="411" yMax="841">
      <component glyphName="R" x="0" y="0" flags="0x0"/>
      <component glyphName="uni030C.case" x="448" y="0" flags="0x0"/>
    </TTGlyph>
    <TTGlyph name="Rho" xMin="60" yMin="0" xMax="401" yMax="640">
      <component glyphName="P" x="0" y="0" flags="0x0"/>
    </TTGlyph>
    <TTGlyph name="S" xMin="51" yMin="-8" xMax="391" yMax="648">
      <contour>
        <pt x="360" y="564" on="1"/>
        <pt x="308" y="582" on="0"/>
        <pt x="256" y="582" on="1"/>
        <pt x="186" y="582" on="0"/>
        <pt x="135" y="523" on="0"/>
        <pt x="135" y="468" on="1"/>
        <pt x="135" y="427" on="0"/>
        <pt x="168" y="373" on="0"/>
        <pt x="216" y="341" on="0"/>
        <pt x="257" y="321" on="1"/>
        <pt x="301" y="300" on="0"/>
        <pt x="354" y="263" on="0"/>
        <pt x="391" y="199" on="0"/>
        <pt x="391" y="149" on="1"/>
        <pt x="391" y="70" on="0"/>
        <pt x="290" y="-8" on="0"/>
        <pt x="195" y="-8" on="1"/>
        <pt x="160" y="-8" on="0"/>
        <pt x="84" y="5" on="0"/>
        <pt x="51" y="18" on="1"/>
        <pt x="70" y="84" on="1"/>
        <pt x="103" y="71" on="0"/>
        <pt x="163" y="58" on="0"/>
        <pt x="198" y="58" on="1"/>
        <pt x="262" y="58" on="0"/>
        <pt x="315" y="103" on="0"/>
        <pt x="315" y="143" on="1"/>
        <pt x="315" y="175" on="0"/>
        <pt x="287" y="219" on="0"/>
        <pt x="244" y="247" on="0"/>
        <pt x="207" y="264" on="1"/>
        <pt x="159" y="287" on="0"/>
        <pt x="101" y="328" on="0"/>
        <pt x="59" y="405" on="0"/>
        <pt x="59" y="465" on="1"/>
        <pt x="59" y="548" on="0"/>
        <pt x="161" y="648" on="0"/>
        <pt x="256" y="648" on="1"/>
        <pt x="286" y="648" on="0"/>
        <pt x="351" y="639" on="0"/>
        <pt x="376" y="630" on="1"/>
      </contour>
    </TTGlyph>
    <TTGlyph name="S.sups" xMin="125" yMin="316" xMax="320" yMax="644">
      <contour>
        <pt x="214" y="316" on="1"/>
        <pt x="171" y="316" on="0"/>
        <pt x="125" y="326" on="1"/>
        <pt x="134" y="377" on="1"/>
        <pt x="188" y="370" on="0"/>
        <pt x="208" y="370" on="1"/>
        <pt x="234" y="370" on="0"/>
        <pt x="256" y="390" on="0"/>
        <pt x="256" y="410" on="1"/>
        <pt x="256" y="431" on="0"/>
        <pt x="236" y="447" on="0"/>
        <pt x="206" y="456" on="1"/>
        <pt x="205" y="457" on="0"/>
        <pt x="202" y="457" on="0"/>
        <pt x="201" y="458" on="1"/>
        <pt x="164" y="471" on="0"/>
        <pt x="128" y="512" on="0"/>
        <pt x="128" y="550" on="1"/>
        <pt x="128" y="591" on="0"/>
        <pt x="178" y="644" on="0"/>
        <pt x="234" y="644" on="1"/>
        <pt x="275" y="644" on="0"/>
        <pt x="315" y="634" on="1"/>
        <pt x="305" y="583" on="1"/>
        <pt x="265" y="590" on="0"/>
        <pt x="238" y="590" on="1"/>
        <pt x="216" y="590" on="0"/>
        <pt x="192" y="571" on="0"/>
        <pt x="192" y="552" on="1"/>
        <pt x="192" y="533" on="0"/>
        <pt x="211" y="519" on="0"/>
        <pt x="236" y="511" on="1"/>
        <pt x="237" y="511" on="0"/>
        <pt x="239" y="510" on="0"/>
        <pt x="240" y="510" on="1"/>
        <pt x="282" y="497" on="0"/>
        <pt x="320" y="456" on="0"/>
        <pt x="320" y="412" on="1"/>
        <pt x="320" y="367" on="0"/>
        <pt x="266" y="316" on="0"/>
      </contour>
    </TTGlyph>
    <TTGlyph name="Sacute" xMin="51" yMin="-8" xMax="391" yMax="842">
      <component glyphName="S" x="0" y="0" flags="0x0"/>
      <component glyphName="acutecomb.case" x="448" y="0" flags="0x0"/>
    </TTGlyph>
    <TTGlyph name="Scaron" xMin="51" yMin="-8" xMax="391" yMax="841">
      <component glyphName="S" x="0" y="0" flags="0x0"/>
      <component glyphName="uni030C.case" x="448" y="0" flags="0x0"/>
    </TTGlyph>
    <TTGlyph name="Scedilla" xMin="51" yMin="-172" xMax="391" yMax="648">
      <component glyphName="S" x="0" y="0" flags="0x0"/>
      <component glyphName="uni0327" x="393" y="20" flags="0x4"/>
    </TTGlyph>
    <TTGlyph name="Scircumflex" xMin="51" yMin="-8" xMax="391" yMax="842">
      <component glyphName="S" x="0" y="0" flags="0x0"/>
      <component glyphName="uni0302.case" x="448" y="0" flags="0x0"/>
    </TTGlyph>
    <TTGlyph name="Sigma" xMin="64" yMin="0" xMax="384" yMax="640">
      <contour>
        <pt x="128" y="640" on="1"/>
        <pt x="128" y="576" on="1"/>
        <pt x="64" y="576" on="1"/>
        <pt x="64" y="640" on="1"/>
      </contour>
      <contour>
        <pt x="192" y="640" on="1"/>
        <pt x="192" y="576" on="1"/>
        <pt x="128" y="576" on="1"/>
        <pt x="128" y="640" on="1"/>
      </contour>
      <contour>
        <pt x="256" y="640" on="1"/>
        <pt x="256" y="576" on="1"/>
        <pt x="192" y="576" on="1"/>
        <pt x="192" y="640" on="1"/>
      </contour>
      <contour>
        <pt x="320" y="640" on="1"/>
        <pt x="320" y="576" on="1"/>
        <pt x="256" y="576" on="1"/>
        <pt x="256" y="640" on="1"/>
      </contour>
      <contour>
        <pt x="384" y="640" on="1"/>
        <pt x="384" y="576" on="1"/>
        <pt x="320" y="576" on="1"/>
        <pt x="320" y="640" on="1"/>
      </contour>
      <contour>
        <pt x="128" y="64" on="1"/>
        <pt x="128" y="0" on="1"/>
        <pt x="64" y="0" on="1"/>
        <pt x="64" y="64" on="1"/>
      </contour>
      <contour>
        <pt x="192" y="64" on="1"/>
        <pt x="192" y="0" on="1"/>
        <pt x="128" y="0" on="1"/>
        <pt x="128" y="64" on="1"/>
      </contour>
      <contour>
        <pt x="256" y="64" on="1"/>
        <pt x="256" y="0" on="1"/>
        <pt x="192" y="0" on="1"/>
        <pt x="192" y="64" on="1"/>
      </contour>
      <contour>
        <pt x="320" y="64" on="1"/>
        <pt x="320" y="0" on="1"/>
        <pt x="256" y="0" on="1"/>
        <pt x="256" y="64" on="1"/>
      </contour>
      <contour>
        <pt x="384" y="64" on="1"/>
        <pt x="384" y="0" on="1"/>
        <pt x="320" y="0" on="1"/>
        <pt x="320" y="64" on="1"/>
      </contour>
      <contour>
        <pt x="128" y="576" on="1"/>
        <pt x="128" y="512" on="1"/>
        <pt x="64" y="512" on="1"/>
        <pt x="64" y="576" on="1"/>
      </contour>
      <contour>
        <pt x="192" y="512" on="1"/>
        <pt x="192" y="448" on="1"/>
        <pt x="128" y="448" on="1"/>
        <pt x="128" y="512" on="1"/>
      </contour>
      <contour>
        <pt x="192" y="448" on="1"/>
        <pt x="192" y="384" on="1"/>
        <pt x="128" y="384" on="1"/>
        <pt x="128" y="448" on="1"/>
      </contour>
      <contour>
        <pt x="192" y="256" on="1"/>
        <pt x="192" y="192" on="1"/>
        <pt x="128" y="192" on="1"/>
        <pt x="128" y="256" on="1"/>
      </contour>
      <contour>
        <pt x="192" y="192" on="1"/>
        <pt x="192" y="128" on="1"/>
        <pt x="128" y="128" on="1"/>
        <pt x="128" y="192" on="1"/>
      </contour>
      <contour>
        <pt x="128" y="128" on="1"/>
        <pt x="128" y="64" on="1"/>
        <pt x="64" y="64" on="1"/>
        <pt x="64" y="128" on="1"/>
      </contour>
      <contour>
        <pt x="256" y="320" on="1"/>
        <pt x="256" y="256" on="1"/>
        <pt x="192" y="256" on="1"/>
        <pt x="192" y="320" on="1"/>
      </contour>
      <contour>
        <pt x="256" y="384" on="1"/>
        <pt x="256" y="320" on="1"/>
        <pt x="192" y="320" on="1"/>
        <pt x="192" y="384" on="1"/>
      </contour>
    </TTGlyph>
    <TTGlyph name="T" xMin="44" yMin="0" xMax="404" yMax="640">
      <contour>
        <pt x="260" y="576" on="1"/>
        <pt x="260" y="0" on="1"/>
        <pt x="188" y="0" on="1"/>
        <pt x="188" y="576" on="1"/>
        <pt x="44" y="576" on="1"/>
        <pt x="44" y="640" on="1"/>
        <pt x="404" y="640" on="1"/>
        <pt x="404" y="576" on="1"/>
      </contour>
    </TTGlyph>
    <TTGlyph name="T.sups" xMin="120" yMin="320" xMax="328" yMax="640">
      <contour>
        <pt x="328" y="584" on="1"/>
        <pt x="256" y="584" on="1"/>
        <pt x="256" y="320" on="1"/>
        <pt x="192" y="320" on="1"/>
        <pt x="192" y="584" on="1"/>
        <pt x="120" y="584" on="1"/>
        <pt x="120" y="640" on="1"/>
        <pt x="328" y="640" on="1"/>
      </contour>
    </TTGlyph>
    <TTGlyph name="Tau" xMin="44" yMin="0" xMax="404" yMax="640">
      <component glyphName="T" x="0" y="0" flags="0x0"/>
    </TTGlyph>
    <TTGlyph name="Tbar" xMin="44" yMin="0" xMax="404" yMax="640">
      <contour>
        <pt x="84" y="258" on="1"/>
        <pt x="84" y="318" on="1"/>
        <pt x="364" y="318" on="1"/>
        <pt x="364" y="258" on="1"/>
      </contour>
      <contour>
        <pt x="260" y="576" on="1"/>
        <pt x="260" y="0" on="1"/>
        <pt x="188" y="0" on="1"/>
        <pt x="188" y="576" on="1"/>
        <pt x="44" y="576" on="1"/>
        <pt x="44" y="640" on="1"/>
        <pt x="404" y="640" on="1"/>
        <pt x="404" y="576" on="1"/>
      </contour>
    </TTGlyph>
    <TTGlyph name="Tcaron" xMin="44" yMin="0" xMax="404" yMax="841">
      <component glyphName="T" x="0" y="0" flags="0x0"/>
      <component glyphName="uni030C.case" x="448" y="0" flags="0x0"/>
    </TTGlyph>
    <TTGlyph name="Theta" xMin="37" yMin="-10" xMax="411" yMax="650">
      <contour>
        <pt x="64" y="256" on="1"/>
        <pt x="64" y="320" on="1"/>
        <pt x="384" y="320" on="1"/>
        <pt x="384" y="256" on="1"/>
      </contour>
      <contour>
        <pt x="224" y="-10" on="1"/>
        <pt x="130" y="-10" on="0"/>
        <pt x="37" y="155" on="0"/>
        <pt x="37" y="319" on="1"/>
        <pt x="37" y="486" on="0"/>
        <pt x="130" y="650" on="0"/>
        <pt x="224" y="650" on="1"/>
        <pt x="320" y="650" on="0"/>
        <pt x="411" y="487" on="0"/>
        <pt x="411" y="319" on="1"/>
        <pt x="411" y="154" on="0"/>
        <pt x="320" y="-10" on="0"/>
      </contour>
      <contour>
        <pt x="224" y="56" on="1"/>
        <pt x="265" y="56" on="0"/>
        <pt x="313" y="108" on="0"/>
        <pt x="335" y="222" on="0"/>
        <pt x="335" y="319" on="1"/>
        <pt x="335" y="417" on="0"/>
        <pt x="313" y="532" on="0"/>
        <pt x="265" y="584" on="0"/>
        <pt x="224" y="584" on="1"/>
        <pt x="183" y="584" on="0"/>
        <pt x="135" y="532" on="0"/>
        <pt x="113" y="417" on="0"/>
        <pt x="113" y="319" on="1"/>
        <pt x="113" y="222" on="0"/>
        <pt x="135" y="108" on="0"/>
        <pt x="183" y="56" on="0"/>
      </contour>
    </TTGlyph>
    <TTGlyph name="Thorn" xMin="60" yMin="0" xMax="401" yMax="640">
      <contour>
        <pt x="215" y="512" on="1"/>
        <pt x="300" y="512" on="0"/>
        <pt x="401" y="410" on="0"/>
        <pt x="401" y="318" on="1"/>
        <pt x="401" y="226" on="0"/>
        <pt x="301" y="128" on="0"/>
        <pt x="215" y="128" on="1"/>
        <pt x="132" y="128" on="1"/>
        <pt x="132" y="0" on="1"/>
        <pt x="60" y="0" on="1"/>
        <pt x="60" y="640" on="1"/>
        <pt x="132" y="640" on="1"/>
        <pt x="132" y="512" on="1"/>
      </contour>
      <contour>
        <pt x="208" y="192" on="1"/>
        <pt x="275" y="192" on="0"/>
        <pt x="327" y="255" on="0"/>
        <pt x="327" y="318" on="1"/>
        <pt x="327" y="383" on="0"/>
        <pt x="274" y="448" on="0"/>
        <pt x="208" y="448" on="1"/>
        <pt x="132" y="448" on="1"/>
        <pt x="132" y="192" on="1"/>
      </contour>
    </TTGlyph>
    <TTGlyph name="U" xMin="60" yMin="-8" xMax="388" yMax="640">
      <contour>
        <pt x="132" y="640" on="1"/>
        <pt x="132" y="169" on="1"/>
        <pt x="132" y="112" on="0"/>
        <pt x="170" y="56" on="0"/>
        <pt x="224" y="56" on="1"/>
        <pt x="276" y="56" on="0"/>
        <pt x="316" y="113" on="0"/>
        <pt x="316" y="169" on="1"/>
        <pt x="316" y="640" on="1"/>
        <pt x="388" y="640" on="1"/>
        <pt x="388" y="173" on="1"/>
        <pt x="388" y="80" on="0"/>
        <pt x="300" y="-8" on="0"/>
        <pt x="224" y="-8" on="1"/>
        <pt x="148" y="-8" on="0"/>
        <pt x="60" y="79" on="0"/>
        <pt x="60" y="172" on="1"/>
        <pt x="60" y="640" on="1"/>
      </contour>
    </TTGlyph>
    <TTGlyph name="U.sups" xMin="128" yMin="320" xMax="320" yMax="640">
      <contour>
        <pt x="192" y="640" on="1"/>
        <pt x="192" y="576" on="1"/>
        <pt x="128" y="576" on="1"/>
        <pt x="128" y="640" on="1"/>
      </contour>
      <contour>
        <pt x="192" y="576" on="1"/>
        <pt x="192" y="512" on="1"/>
        <pt x="128" y="512" on="1"/>
        <pt x="128" y="576" on="1"/>
      </contour>
      <contour>
        <pt x="192" y="512" on="1"/>
        <pt x="192" y="448" on="1"/>
        <pt x="128" y="448" on="1"/>
        <pt x="128" y="512" on="1"/>
      </contour>
      <contour>
        <pt x="192" y="448" on="1"/>
        <pt x="192" y="384" on="1"/>
        <pt x="128" y="384" on="1"/>
        <pt x="128" y="448" on="1"/>
      </contour>
      <contour>
        <pt x="256" y="384" on="1"/>
        <pt x="256" y="320" on="1"/>
        <pt x="192" y="320" on="1"/>
        <pt x="192" y="384" on="1"/>
      </contour>
      <contour>
        <pt x="320" y="384" on="1"/>
        <pt x="320" y="320" on="1"/>
        <pt x="256" y="320" on="1"/>
        <pt x="256" y="384" on="1"/>
      </contour>
      <contour>
        <pt x="320" y="448" on="1"/>
        <pt x="320" y="384" on="1"/>
        <pt x="256" y="384" on="1"/>
        <pt x="256" y="448" on="1"/>
      </contour>
      <contour>
        <pt x="320" y="512" on="1"/>
        <pt x="320" y="448" on="1"/>
        <pt x="256" y="448" on="1"/>
        <pt x="256" y="512" on="1"/>
      </contour>
      <contour>
        <pt x="320" y="576" on="1"/>
        <pt x="320" y="512" on="1"/>
        <pt x="256" y="512" on="1"/>
        <pt x="256" y="576" on="1"/>
      </contour>
      <contour>
        <pt x="320" y="640" on="1"/>
        <pt x="320" y="576" on="1"/>
        <pt x="256" y="576" on="1"/>
        <pt x="256" y="640" on="1"/>
      </contour>
    </TTGlyph>
    <TTGlyph name="Uacute" xMin="60" yMin="-8" xMax="388" yMax="842">
      <component glyphName="U" x="0" y="0" flags="0x0"/>
      <component glyphName="acutecomb.case" x="448" y="0" flags="0x0"/>
    </TTGlyph>
    <TTGlyph name="Ubreve" xMin="60" yMin="-8" xMax="388" yMax="832">
      <component glyphName="U" x="0" y="0" flags="0x0"/>
      <component glyphName="uni0306.case" x="448" y="0" flags="0x0"/>
    </TTGlyph>
    <TTGlyph name="Ucircumflex" xMin="60" yMin="-8" xMax="388" yMax="842">
      <component glyphName="U" x="0" y="0" flags="0x0"/>
      <component glyphName="uni0302.case" x="448" y="0" flags="0x0"/>
    </TTGlyph>
    <TTGlyph name="Udieresis" xMin="60" yMin="-8" xMax="388" yMax="822">
      <component glyphName="U" x="0" y="0" flags="0x0"/>
      <component glyphName="uni0308.case" x="448" y="0" flags="0x0"/>
    </TTGlyph>
    <TTGlyph name="Ugrave" xMin="60" yMin="-8" xMax="388" yMax="842">
      <component glyphName="U" x="0" y="0" flags="0x0"/>
      <component glyphName="gravecomb.case" x="448" y="0" flags="0x0"/>
    </TTGlyph>
    <TTGlyph name="Uhungarumlaut" xMin="60" yMin="-8" xMax="388" yMax="896">
      <component glyphName="U" x="0" y="0" flags="0x0"/>
      <component glyphName="uni030B.case" x="384" y="0" flags="0x0"/>
    </TTGlyph>
    <TTGlyph name="Umacron" xMin="60" yMin="-8" xMax="388" yMax="768">
      <component glyphName="U" x="0" y="0" flags="0x0"/>
      <component glyphName="uni0304.case" x="448" y="0" flags="0x0"/>
    </TTGlyph>
    <TTGlyph name="Uogonek" xMin="60" yMin="-197" xMax="388" yMax="640">
      <component glyphName="U" x="0" y="0" flags="0x0"/>
      <component glyphName="uni0328" x="347" y="0" flags="0x0"/>
    </TTGlyph>
    <TTGlyph name="Upsilon" xMin="36" yMin="0" xMax="412" yMax="640">
      <component glyphName="Y" x="0" y="0" flags="0x0"/>
    </TTGlyph>
    <TTGlyph name="Upsilondieresis" xMin="36" yMin="0" xMax="412" yMax="822">
      <component glyphName="Y" x="0" y="0" flags="0x0"/>
      <component glyphName="uni0308.case" x="448" y="0" flags="0x0"/>
    </TTGlyph>
    <TTGlyph name="Upsilontonos" xMin="-74" yMin="0" xMax="412" yMax="704">
      <component glyphName="Y" x="0" y="0" flags="0x0"/>
      <component glyphName="tonos" x="-256" y="0" flags="0x0"/>
    </TTGlyph>
    <TTGlyph name="Uring" xMin="60" yMin="-8" xMax="388" yMax="889">
      <component glyphName="U" x="0" y="0" flags="0x0"/>
      <component glyphName="uni030A.case" x="448" y="0" flags="0x0"/>
    </TTGlyph>
    <TTGlyph name="Utilde" xMin="60" yMin="-8" xMax="388" yMax="832">
      <component glyphName="U" x="0" y="0" flags="0x0"/>
      <component glyphName="tildecomb.case" x="448" y="0" flags="0x0"/>
    </TTGlyph>
    <TTGlyph name="V" xMin="35" yMin="-3" xMax="413" yMax="640">
      <contour>
        <pt x="413" y="640" on="1"/>
        <pt x="398" y="453" on="0"/>
        <pt x="318" y="120" on="0"/>
        <pt x="256" y="-3" on="1"/>
        <pt x="192" y="-3" on="1"/>
        <pt x="130" y="120" on="0"/>
        <pt x="50" y="453" on="0"/>
        <pt x="35" y="640" on="1"/>
        <pt x="110" y="640" on="1"/>
        <pt x="125" y="474" on="0"/>
        <pt x="183" y="192" on="0"/>
        <pt x="224" y="89" on="1"/>
        <pt x="265" y="192" on="0"/>
        <pt x="323" y="474" on="0"/>
        <pt x="338" y="640" on="1"/>
      </contour>
    </TTGlyph>
    <TTGlyph name="V.sups" xMin="106" yMin="320" xMax="341" yMax="640">
      <contour>
        <pt x="168" y="640" on="1"/>
        <pt x="189" y="483" on="0"/>
        <pt x="242" y="328" on="1"/>
        <pt x="206" y="328" on="1"/>
        <pt x="261" y="489" on="0"/>
        <pt x="280" y="640" on="1"/>
        <pt x="341" y="640" on="1"/>
        <pt x="320" y="477" on="0"/>
        <pt x="252" y="320" on="1"/>
        <pt x="196" y="320" on="1"/>
        <pt x="126" y="486" on="0"/>
        <pt x="106" y="640" on="1"/>
      </contour>
    </TTGlyph>
    <TTGlyph name="W" xMin="42" yMin="0" xMax="406" yMax="640">
      <contour>
        <pt x="112" y="0" on="1"/>
        <pt x="74" y="151" on="0"/>
        <pt x="44" y="441" on="0"/>
        <pt x="42" y="640" on="1"/>
        <pt x="114" y="640" on="1"/>
        <pt x="116" y="447" on="0"/>
        <pt x="129" y="205" on="0"/>
        <pt x="150" y="81" on="1"/>
        <pt x="171" y="180" on="0"/>
        <pt x="192" y="357" on="0"/>
        <pt x="192" y="448" on="1"/>
        <pt x="256" y="448" on="1"/>
        <pt x="256" y="357" on="0"/>
        <pt x="277" y="180" on="0"/>
        <pt x="298" y="81" on="1"/>
        <pt x="319" y="205" on="0"/>
        <pt x="332" y="447" on="0"/>
        <pt x="334" y="640" on="1"/>
        <pt x="406" y="640" on="1"/>
        <pt x="404" y="441" on="0"/>
        <pt x="374" y="151" on="0"/>
        <pt x="336" y="0" on="1"/>
        <pt x="272" y="0" on="1"/>
        <pt x="251" y="59" on="0"/>
        <pt x="229" y="184" on="0"/>
        <pt x="224" y="261" on="1"/>
        <pt x="219" y="184" on="0"/>
        <pt x="197" y="59" on="0"/>
        <pt x="176" y="0" on="1"/>
      </contour>
    </TTGlyph>
    <TTGlyph name="W.sups" xMin="128" yMin="320" xMax="320" yMax="640">
      <contour>
        <pt x="192" y="640" on="1"/>
        <pt x="192" y="576" on="1"/>
        <pt x="128" y="576" on="1"/>
        <pt x="128" y="640" on="1"/>
      </contour>
      <contour>
        <pt x="192" y="576" on="1"/>
        <pt x="192" y="512" on="1"/>
        <pt x="128" y="512" on="1"/>
        <pt x="128" y="576" on="1"/>
      </contour>
      <contour>
        <pt x="192" y="512" on="1"/>
        <pt x="192" y="448" on="1"/>
        <pt x="128" y="448" on="1"/>
        <pt x="128" y="512" on="1"/>
      </contour>
      <contour>
        <pt x="192" y="448" on="1"/>
        <pt x="192" y="384" on="1"/>
        <pt x="128" y="384" on="1"/>
        <pt x="128" y="448" on="1"/>
      </contour>
      <contour>
        <pt x="192" y="384" on="1"/>
        <pt x="192" y="320" on="1"/>
        <pt x="128" y="320" on="1"/>
        <pt x="128" y="384" on="1"/>
      </contour>
      <contour>
        <pt x="256" y="384" on="1"/>
        <pt x="256" y="320" on="1"/>
        <pt x="192" y="320" on="1"/>
        <pt x="192" y="384" on="1"/>
      </contour>
      <contour>
        <pt x="320" y="384" on="1"/>
        <pt x="320" y="320" on="1"/>
        <pt x="256" y="320" on="1"/>
        <pt x="256" y="384" on="1"/>
      </contour>
      <contour>
        <pt x="320" y="448" on="1"/>
        <pt x="320" y="384" on="1"/>
        <pt x="256" y="384" on="1"/>
        <pt x="256" y="448" on="1"/>
      </contour>
      <contour>
        <pt x="320" y="512" on="1"/>
        <pt x="320" y="448" on="1"/>
        <pt x="256" y="448" on="1"/>
        <pt x="256" y="512" on="1"/>
      </contour>
      <contour>
        <pt x="320" y="576" on="1"/>
        <pt x="320" y="512" on="1"/>
        <pt x="256" y="512" on="1"/>
        <pt x="256" y="576" on="1"/>
      </contour>
      <contour>
        <pt x="320" y="640" on="1"/>
        <pt x="320" y="576" on="1"/>
        <pt x="256" y="576" on="1"/>
        <pt x="256" y="640" on="1"/>
      </contour>
      <contour>
        <pt x="256" y="576" on="1"/>
        <pt x="256" y="512" on="1"/>
        <pt x="192" y="512" on="1"/>
        <pt x="192" y="576" on="1"/>
      </contour>
      <contour>
        <pt x="256" y="512" on="1"/>
        <pt x="256" y="448" on="1"/>
        <pt x="192" y="448" on="1"/>
        <pt x="192" y="512" on="1"/>
      </contour>
      <contour>
        <pt x="256" y="448" on="1"/>
        <pt x="256" y="384" on="1"/>
        <pt x="192" y="384" on="1"/>
        <pt x="192" y="448" on="1"/>
      </contour>
    </TTGlyph>
    <TTGlyph name="Wacute" xMin="42" yMin="0" xMax="406" yMax="842">
      <component glyphName="W" x="0" y="0" flags="0x0"/>
      <component glyphName="acutecomb.case" x="448" y="0" flags="0x0"/>
    </TTGlyph>
    <TTGlyph name="Wcircumflex" xMin="42" yMin="0" xMax="406" yMax="842">
      <component glyphName="W" x="0" y="0" flags="0x0"/>
      <component glyphName="uni0302.case" x="448" y="0" flags="0x0"/>
    </TTGlyph>
    <TTGlyph name="Wdieresis" xMin="42" yMin="0" xMax="406" yMax="822">
      <component glyphName="W" x="0" y="0" flags="0x0"/>
      <component glyphName="uni0308.case" x="448" y="0" flags="0x0"/>
    </TTGlyph>
    <TTGlyph name="Wgrave" xMin="42" yMin="0" xMax="406" yMax="842">
      <component glyphName="W" x="0" y="0" flags="0x0"/>
      <component glyphName="gravecomb.case" x="448" y="0" flags="0x0"/>
    </TTGlyph>
    <TTGlyph name="X" xMin="47" yMin="0" xMax="400" yMax="640">
      <contour>
        <pt x="47" y="0" on="1"/>
        <pt x="65" y="95" on="0"/>
        <pt x="120" y="229" on="0"/>
        <pt x="174" y="300" on="1"/>
        <pt x="119" y="366" on="0"/>
        <pt x="67" y="518" on="0"/>
        <pt x="56" y="640" on="1"/>
        <pt x="128" y="640" on="1"/>
        <pt x="135" y="563" on="0"/>
        <pt x="156" y="459" on="0"/>
        <pt x="193" y="380" on="0"/>
        <pt x="222" y="344" on="1"/>
        <pt x="268" y="395" on="0"/>
        <pt x="309" y="524" on="0"/>
        <pt x="320" y="640" on="1"/>
        <pt x="392" y="640" on="1"/>
        <pt x="381" y="518" on="0"/>
        <pt x="329" y="366" on="0"/>
        <pt x="274" y="300" on="1"/>
        <pt x="327" y="229" on="0"/>
        <pt x="382" y="96" on="0"/>
        <pt x="400" y="0" on="1"/>
        <pt x="326" y="0" on="1"/>
        <pt x="308" y="91" on="0"/>
        <pt x="266" y="200" on="0"/>
        <pt x="224" y="255" on="1"/>
        <pt x="182" y="199" on="0"/>
        <pt x="139" y="90" on="0"/>
        <pt x="121" y="0" on="1"/>
      </contour>
    </TTGlyph>
    <TTGlyph name="X.sups" xMin="128" yMin="320" xMax="320" yMax="640">
      <contour>
        <pt x="192" y="640" on="1"/>
        <pt x="192" y="576" on="1"/>
        <pt x="128" y="576" on="1"/>
        <pt x="128" y="640" on="1"/>
      </contour>
      <contour>
        <pt x="192" y="576" on="1"/>
        <pt x="192" y="512" on="1"/>
        <pt x="128" y="512" on="1"/>
        <pt x="128" y="576" on="1"/>
      </contour>
      <contour>
        <pt x="256" y="512" on="1"/>
        <pt x="256" y="448" on="1"/>
        <pt x="192" y="448" on="1"/>
        <pt x="192" y="512" on="1"/>
      </contour>
      <contour>
        <pt x="192" y="448" on="1"/>
        <pt x="192" y="384" on="1"/>
        <pt x="128" y="384" on="1"/>
        <pt x="128" y="448" on="1"/>
      </contour>
      <contour>
        <pt x="192" y="384" on="1"/>
        <pt x="192" y="320" on="1"/>
        <pt x="128" y="320" on="1"/>
        <pt x="128" y="384" on="1"/>
      </contour>
      <contour>
        <pt x="320" y="384" on="1"/>
        <pt x="320" y="320" on="1"/>
        <pt x="256" y="320" on="1"/>
        <pt x="256" y="384" on="1"/>
      </contour>
      <contour>
        <pt x="320" y="448" on="1"/>
        <pt x="320" y="384" on="1"/>
        <pt x="256" y="384" on="1"/>
        <pt x="256" y="448" on="1"/>
      </contour>
      <contour>
        <pt x="320" y="576" on="1"/>
        <pt x="320" y="512" on="1"/>
        <pt x="256" y="512" on="1"/>
        <pt x="256" y="576" on="1"/>
      </contour>
      <contour>
        <pt x="320" y="640" on="1"/>
        <pt x="320" y="576" on="1"/>
        <pt x="256" y="576" on="1"/>
        <pt x="256" y="640" on="1"/>
      </contour>
    </TTGlyph>
    <TTGlyph name="Xi" xMin="50" yMin="0" xMax="398" yMax="640">
      <contour>
        <pt x="393" y="640" on="1"/>
        <pt x="393" y="576" on="1"/>
        <pt x="55" y="576" on="1"/>
        <pt x="55" y="640" on="1"/>
      </contour>
      <contour>
        <pt x="398" y="64" on="1"/>
        <pt x="398" y="0" on="1"/>
        <pt x="50" y="0" on="1"/>
        <pt x="50" y="64" on="1"/>
      </contour>
      <contour>
        <pt x="344" y="320" on="1"/>
        <pt x="344" y="256" on="1"/>
        <pt x="104" y="256" on="1"/>
        <pt x="104" y="320" on="1"/>
      </contour>
    </TTGlyph>
    <TTGlyph name="Y" xMin="36" yMin="0" xMax="412" yMax="640">
      <contour>
        <pt x="188" y="202" on="1"/>
        <pt x="126" y="285" on="0"/>
        <pt x="52" y="498" on="0"/>
        <pt x="36" y="640" on="1"/>
        <pt x="108" y="640" on="1"/>
        <pt x="122" y="519" on="0"/>
        <pt x="174" y="346" on="0"/>
        <pt x="224" y="256" on="1"/>
        <pt x="274" y="346" on="0"/>
        <pt x="326" y="519" on="0"/>
        <pt x="340" y="640" on="1"/>
        <pt x="412" y="640" on="1"/>
        <pt x="396" y="498" on="0"/>
        <pt x="322" y="285" on="0"/>
        <pt x="260" y="202" on="1"/>
        <pt x="260" y="0" on="1"/>
        <pt x="188" y="0" on="1"/>
      </contour>
    </TTGlyph>
    <TTGlyph name="Y.sups" xMin="128" yMin="320" xMax="320" yMax="640">
      <contour>
        <pt x="192" y="640" on="1"/>
        <pt x="192" y="576" on="1"/>
        <pt x="128" y="576" on="1"/>
        <pt x="128" y="640" on="1"/>
      </contour>
      <contour>
        <pt x="192" y="576" on="1"/>
        <pt x="192" y="512" on="1"/>
        <pt x="128" y="512" on="1"/>
        <pt x="128" y="576" on="1"/>
      </contour>
      <contour>
        <pt x="320" y="640" on="1"/>
        <pt x="320" y="576" on="1"/>
        <pt x="256" y="576" on="1"/>
        <pt x="256" y="640" on="1"/>
      </contour>
      <contour>
        <pt x="320" y="576" on="1"/>
        <pt x="320" y="512" on="1"/>
        <pt x="256" y="512" on="1"/>
        <pt x="256" y="576" on="1"/>
      </contour>
      <contour>
        <pt x="320" y="512" on="1"/>
        <pt x="320" y="448" on="1"/>
        <pt x="256" y="448" on="1"/>
        <pt x="256" y="512" on="1"/>
      </contour>
      <contour>
        <pt x="256" y="384" on="1"/>
        <pt x="256" y="320" on="1"/>
        <pt x="192" y="320" on="1"/>
        <pt x="192" y="384" on="1"/>
      </contour>
      <contour>
        <pt x="192" y="384" on="1"/>
        <pt x="192" y="320" on="1"/>
        <pt x="128" y="320" on="1"/>
        <pt x="128" y="384" on="1"/>
      </contour>
      <contour>
        <pt x="320" y="448" on="1"/>
        <pt x="320" y="384" on="1"/>
        <pt x="256" y="384" on="1"/>
        <pt x="256" y="448" on="1"/>
      </contour>
      <contour>
        <pt x="256" y="512" on="1"/>
        <pt x="256" y="448" on="1"/>
        <pt x="192" y="448" on="1"/>
        <pt x="192" y="512" on="1"/>
      </contour>
      <contour>
        <pt x="192" y="512" on="1"/>
        <pt x="192" y="448" on="1"/>
        <pt x="128" y="448" on="1"/>
        <pt x="128" y="512" on="1"/>
      </contour>
    </TTGlyph>
    <TTGlyph name="Yacute" xMin="36" yMin="0" xMax="412" yMax="842">
      <component glyphName="Y" x="0" y="0" flags="0x0"/>
      <component glyphName="acutecomb.case" x="448" y="0" flags="0x0"/>
    </TTGlyph>
    <TTGlyph name="Ycircumflex" xMin="36" yMin="0" xMax="412" yMax="842">
      <component glyphName="Y" x="0" y="0" flags="0x0"/>
      <component glyphName="uni0302.case" x="448" y="0" flags="0x0"/>
    </TTGlyph>
    <TTGlyph name="Ydieresis" xMin="36" yMin="0" xMax="412" yMax="822">
      <component glyphName="Y" x="0" y="0" flags="0x0"/>
      <component glyphName="uni0308.case" x="448" y="0" flags="0x0"/>
    </TTGlyph>
    <TTGlyph name="Ygrave" xMin="36" yMin="0" xMax="412" yMax="842">
      <component glyphName="Y" x="0" y="0" flags="0x0"/>
      <component glyphName="gravecomb.case" x="448" y="0" flags="0x0"/>
    </TTGlyph>
    <TTGlyph name="Z" xMin="55" yMin="0" xMax="388" yMax="640">
      <contour>
        <pt x="55" y="52" on="1"/>
        <pt x="304" y="576" on="1"/>
        <pt x="67" y="576" on="1"/>
        <pt x="67" y="640" on="1"/>
        <pt x="388" y="640" on="1"/>
        <pt x="388" y="588" on="1"/>
        <pt x="139" y="64" on="1"/>
        <pt x="388" y="64" on="1"/>
        <pt x="388" y="0" on="1"/>
        <pt x="55" y="0" on="1"/>
      </contour>
    </TTGlyph>
    <TTGlyph name="Z.sups" xMin="128" yMin="320" xMax="320" yMax="640">
      <contour>
        <pt x="192" y="640" on="1"/>
        <pt x="192" y="576" on="1"/>
        <pt x="128" y="576" on="1"/>
        <pt x="128" y="640" on="1"/>
      </contour>
      <contour>
        <pt x="256" y="640" on="1"/>
        <pt x="256" y="576" on="1"/>
        <pt x="192" y="576" on="1"/>
        <pt x="192" y="640" on="1"/>
      </contour>
      <contour>
        <pt x="320" y="640" on="1"/>
        <pt x="320" y="576" on="1"/>
        <pt x="256" y="576" on="1"/>
        <pt x="256" y="640" on="1"/>
      </contour>
      <contour>
        <pt x="192" y="384" on="1"/>
        <pt x="192" y="320" on="1"/>
        <pt x="128" y="320" on="1"/>
        <pt x="128" y="384" on="1"/>
      </contour>
      <contour>
        <pt x="256" y="384" on="1"/>
        <pt x="256" y="320" on="1"/>
        <pt x="192" y="320" on="1"/>
        <pt x="192" y="384" on="1"/>
      </contour>
      <contour>
        <pt x="320" y="384" on="1"/>
        <pt x="320" y="320" on="1"/>
        <pt x="256" y="320" on="1"/>
        <pt x="256" y="384" on="1"/>
      </contour>
      <contour>
        <pt x="192" y="448" on="1"/>
        <pt x="192" y="384" on="1"/>
        <pt x="128" y="384" on="1"/>
        <pt x="128" y="448" on="1"/>
      </contour>
      <contour>
        <pt x="256" y="512" on="1"/>
        <pt x="256" y="448" on="1"/>
        <pt x="192" y="448" on="1"/>
        <pt x="192" y="512" on="1"/>
      </contour>
      <contour>
        <pt x="320" y="576" on="1"/>
        <pt x="320" y="512" on="1"/>
        <pt x="256" y="512" on="1"/>
        <pt x="256" y="576" on="1"/>
      </contour>
    </TTGlyph>
    <TTGlyph name="Zacute" xMin="55" yMin="0" xMax="388" yMax="842">
      <component glyphName="Z" x="0" y="0" flags="0x0"/>
      <component glyphName="acutecomb.case" x="448" y="0" flags="0x0"/>
    </TTGlyph>
    <TTGlyph name="Zcaron" xMin="55" yMin="0" xMax="388" yMax="841">
      <component glyphName="Z" x="0" y="0" flags="0x0"/>
      <component glyphName="uni030C.case" x="448" y="0" flags="0x0"/>
    </TTGlyph>
    <TTGlyph name="Zdotaccent" xMin="55" yMin="0" xMax="388" yMax="842">
      <component glyphName="Z" x="0" y="0" flags="0x0"/>
      <component glyphName="uni0307" x="448" y="192" flags="0x4"/>
    </TTGlyph>
    <TTGlyph name="Zeta" xMin="55" yMin="0" xMax="388" yMax="640">
      <component glyphName="Z" x="0" y="0" flags="0x0"/>
    </TTGlyph>
    <TTGlyph name="_part.slash.comp" xMin="73" yMin="148" xMax="375" yMax="390">
      <contour>
        <pt x="339" y="390" on="1"/>
        <pt x="375" y="338" on="1"/>
        <pt x="109" y="148" on="1"/>
        <pt x="73" y="200" on="1"/>
      </contour>
    </TTGlyph>
    <TTGlyph name="a" xMin="50" yMin="-4" xMax="384" yMax="453">
      <contour>
        <pt x="176" y="-4" on="1"/>
        <pt x="123" y="-4" on="0"/>
        <pt x="50" y="60" on="0"/>
        <pt x="50" y="119" on="1"/>
        <pt x="50" y="190" on="0"/>
        <pt x="171" y="264" on="0"/>
        <pt x="308" y="268" on="1"/>
        <pt x="308" y="285" on="1"/>
        <pt x="308" y="343" on="0"/>
        <pt x="267" y="388" on="0"/>
        <pt x="216" y="388" on="1"/>
        <pt x="188" y="388" on="0"/>
        <pt x="126" y="373" on="0"/>
        <pt x="94" y="361" on="1"/>
        <pt x="73" y="419" on="1"/>
        <pt x="149" y="453" on="0"/>
        <pt x="221" y="453" on="1"/>
        <pt x="299" y="453" on="0"/>
        <pt x="380" y="379" on="0"/>
        <pt x="380" y="299" on="1"/>
        <pt x="380" y="64" on="1"/>
        <pt x="384" y="0" on="1"/>
        <pt x="316" y="0" on="1"/>
        <pt x="311" y="39" on="1"/>
        <pt x="277" y="19" on="0"/>
        <pt x="212" y="-4" on="0"/>
      </contour>
      <contour>
        <pt x="191" y="60" on="1"/>
        <pt x="217" y="60" on="0"/>
        <pt x="273" y="81" on="0"/>
        <pt x="308" y="100" on="1"/>
        <pt x="308" y="206" on="1"/>
        <pt x="209" y="203" on="0"/>
        <pt x="126" y="163" on="0"/>
        <pt x="126" y="123" on="1"/>
        <pt x="126" y="94" on="0"/>
        <pt x="158" y="60" on="0"/>
      </contour>
    </TTGlyph>
    <TTGlyph name="aacute" xMin="50" yMin="-4" xMax="384" yMax="650">
      <component glyphName="a" x="0" y="0" flags="0x0"/>
      <component glyphName="acutecomb" x="448" y="0" flags="0x0"/>
    </TTGlyph>
    <TTGlyph name="abreve" xMin="50" yMin="-4" xMax="384" yMax="640">
      <component glyphName="a" x="0" y="0" flags="0x0"/>
      <component glyphName="uni0306" x="448" y="0" flags="0x0"/>
    </TTGlyph>
    <TTGlyph name="acircumflex" xMin="50" yMin="-4" xMax="384" yMax="650">
      <component glyphName="a" x="0" y="0" flags="0x0"/>
      <component glyphName="uni0302" x="448" y="0" flags="0x0"/>
    </TTGlyph>
    <TTGlyph name="acute" xMin="149" yMin="384" xMax="313" yMax="640">
      <contour>
        <pt x="149" y="384" on="1"/>
        <pt x="214" y="640" on="1"/>
        <pt x="313" y="640" on="1"/>
        <pt x="221" y="384" on="1"/>
      </contour>
    </TTGlyph>
    <TTGlyph name="acutecomb" xMin="-255" yMin="512" xMax="-108" yMax="650">
      <contour>
        <pt x="-108" y="650" on="1"/>
        <pt x="-193" y="512" on="1"/>
        <pt x="-255" y="512" on="1"/>
        <pt x="-208" y="650" on="1"/>
      </contour>
    </TTGlyph>
    <TTGlyph name="acutecomb.case" xMin="-255" yMin="704" xMax="-108" yMax="842">
      <component glyphName="acutecomb" x="0" y="192" flags="0x4"/>
    </TTGlyph>
    <TTGlyph name="adieresis" xMin="50" yMin="-4" xMax="384" yMax="648">
      <component glyphName="a" x="0" y="0" flags="0x0"/>
      <component glyphName="uni0308" x="448" y="0" flags="0x0"/>
    </TTGlyph>
    <TTGlyph name="ae" xMin="64" yMin="0" xMax="384" yMax="448">
      <contour>
        <pt x="384" y="384" on="1"/>
        <pt x="384" y="192" on="1"/>
        <pt x="256" y="192" on="1"/>
        <pt x="256" y="64" on="1"/>
        <pt x="384" y="64" on="1"/>
        <pt x="384" y="0" on="1"/>
        <pt x="128" y="0" on="1"/>
        <pt x="128" y="64" on="1"/>
        <pt x="192" y="64" on="1"/>
        <pt x="192" y="192" on="1"/>
        <pt x="128" y="192" on="1"/>
        <pt x="128" y="256" on="1"/>
        <pt x="192" y="256" on="1"/>
        <pt x="192" y="384" on="1"/>
        <pt x="128" y="384" on="1"/>
        <pt x="128" y="448" on="1"/>
        <pt x="320" y="448" on="1"/>
        <pt x="320" y="384" on="1"/>
        <pt x="256" y="384" on="1"/>
        <pt x="256" y="256" on="1"/>
        <pt x="320" y="256" on="1"/>
        <pt x="320" y="384" on="1"/>
      </contour>
      <contour>
        <pt x="128" y="64" on="1"/>
        <pt x="64" y="64" on="1"/>
        <pt x="64" y="192" on="1"/>
        <pt x="128" y="192" on="1"/>
      </contour>
    </TTGlyph>
    <TTGlyph name="aeacute" xMin="64" yMin="0" xMax="384" yMax="650">
      <component glyphName="ae" x="0" y="0" flags="0x0"/>
      <component glyphName="acutecomb" x="448" y="0" flags="0x0"/>
    </TTGlyph>
    <TTGlyph name="agrave" xMin="50" yMin="-4" xMax="384" yMax="650">
      <component glyphName="a" x="0" y="0" flags="0x0"/>
      <component glyphName="gravecomb" x="448" y="0" flags="0x0"/>
    </TTGlyph>
    <TTGlyph name="alpha" xMin="51" yMin="-8" xMax="400" yMax="456">
      <contour>
        <pt x="194" y="-8" on="1"/>
        <pt x="118" y="-8" on="0"/>
        <pt x="51" y="117" on="0"/>
        <pt x="51" y="224" on="1"/>
        <pt x="51" y="331" on="0"/>
        <pt x="118" y="456" on="0"/>
        <pt x="194" y="456" on="1"/>
        <pt x="232" y="456" on="0"/>
        <pt x="298" y="410" on="0"/>
        <pt x="325" y="364" on="1"/>
        <pt x="328" y="451" on="1"/>
        <pt x="400" y="446" on="1"/>
        <pt x="393" y="357" on="1"/>
        <pt x="387" y="279" on="0"/>
        <pt x="374" y="224" on="1"/>
        <pt x="387" y="169" on="0"/>
        <pt x="393" y="91" on="1"/>
        <pt x="400" y="2" on="1"/>
        <pt x="328" y="-3" on="1"/>
        <pt x="325" y="84" on="1"/>
        <pt x="298" y="38" on="0"/>
        <pt x="232" y="-8" on="0"/>
      </contour>
      <contour>
        <pt x="199" y="56" on="1"/>
        <pt x="236" y="56" on="0"/>
        <pt x="299" y="142" on="0"/>
        <pt x="313" y="224" on="1"/>
        <pt x="299" y="306" on="0"/>
        <pt x="236" y="392" on="0"/>
        <pt x="199" y="392" on="1"/>
        <pt x="162" y="392" on="0"/>
        <pt x="129" y="318" on="0"/>
        <pt x="129" y="224" on="1"/>
        <pt x="129" y="160" on="0"/>
        <pt x="144" y="87" on="0"/>
        <pt x="175" y="56" on="0"/>
      </contour>
    </TTGlyph>
    <TTGlyph name="alphatonos" xMin="51" yMin="-8" xMax="400" yMax="704">
      <component glyphName="alpha" x="0" y="0" flags="0x0"/>
      <component glyphName="tonos" x="0" y="0" flags="0x0"/>
    </TTGlyph>
    <TTGlyph name="amacron" xMin="50" yMin="-4" xMax="384" yMax="640">
      <component glyphName="a" x="0" y="0" flags="0x0"/>
      <component glyphName="uni0304" x="448" y="0" flags="0x0"/>
    </TTGlyph>
    <TTGlyph name="ampersand" xMin="35" yMin="-10" xMax="428" yMax="542">
      <contour>
        <pt x="308" y="468" on="1"/>
        <pt x="252" y="478" on="0"/>
        <pt x="214" y="478" on="1"/>
        <pt x="165" y="478" on="0"/>
        <pt x="122" y="432" on="0"/>
        <pt x="122" y="399" on="1"/>
        <pt x="122" y="363" on="0"/>
        <pt x="167" y="320" on="0"/>
        <pt x="226" y="320" on="1"/>
        <pt x="428" y="320" on="1"/>
        <pt x="428" y="256" on="1"/>
        <pt x="238" y="256" on="1"/>
        <pt x="166" y="256" on="0"/>
        <pt x="108" y="194" on="0"/>
        <pt x="108" y="147" on="1"/>
        <pt x="108" y="107" on="0"/>
        <pt x="150" y="54" on="0"/>
        <pt x="204" y="54" on="1"/>
        <pt x="243" y="54" on="0"/>
        <pt x="319" y="68" on="0"/>
        <pt x="351" y="82" on="1"/>
        <pt x="296" y="26" on="1"/>
        <pt x="296" y="288" on="1"/>
        <pt x="368" y="288" on="1"/>
        <pt x="368" y="18" on="1"/>
        <pt x="330" y="5" on="0"/>
        <pt x="243" y="-10" on="0"/>
        <pt x="208" y="-10" on="1"/>
        <pt x="118" y="-10" on="0"/>
        <pt x="35" y="77" on="0"/>
        <pt x="35" y="145" on="1"/>
        <pt x="35" y="197" on="0"/>
        <pt x="99" y="286" on="0"/>
        <pt x="175" y="306" on="1"/>
        <pt x="175" y="274" on="1"/>
        <pt x="112" y="284" on="0"/>
        <pt x="50" y="353" on="0"/>
        <pt x="50" y="402" on="1"/>
        <pt x="50" y="465" on="0"/>
        <pt x="135" y="542" on="0"/>
        <pt x="215" y="542" on="1"/>
        <pt x="266" y="542" on="0"/>
        <pt x="320" y="529" on="1"/>
      </contour>
    </TTGlyph>
    <TTGlyph name="ampersand.alt001" xMin="38" yMin="-21" xMax="451" yMax="516">
      <contour>
        <pt x="388" y="-21" on="1"/>
        <pt x="373" y="31" on="0"/>
        <pt x="314" y="112" on="0"/>
        <pt x="248" y="169" on="0"/>
        <pt x="196" y="208" on="1"/>
        <pt x="148" y="243" on="0"/>
        <pt x="94" y="291" on="0"/>
        <pt x="58" y="353" on="0"/>
        <pt x="58" y="391" on="1"/>
        <pt x="58" y="449" on="0"/>
        <pt x="132" y="516" on="0"/>
        <pt x="195" y="516" on="1"/>
        <pt x="256" y="516" on="0"/>
        <pt x="329" y="451" on="0"/>
        <pt x="329" y="398" on="1"/>
        <pt x="329" y="361" on="0"/>
        <pt x="295" y="303" on="0"/>
        <pt x="247" y="264" on="0"/>
        <pt x="207" y="237" on="1"/>
        <pt x="158" y="204" on="0"/>
        <pt x="112" y="158" on="0"/>
        <pt x="112" y="125" on="1"/>
        <pt x="112" y="96" on="0"/>
        <pt x="154" y="57" on="0"/>
        <pt x="204" y="57" on="1"/>
        <pt x="284" y="57" on="0"/>
        <pt x="362" y="162" on="0"/>
        <pt x="370" y="261" on="1"/>
        <pt x="436" y="256" on="1"/>
        <pt x="427" y="130" on="0"/>
        <pt x="304" y="-7" on="0"/>
        <pt x="203" y="-7" on="1"/>
        <pt x="119" y="-7" on="0"/>
        <pt x="38" y="65" on="0"/>
        <pt x="38" y="121" on="1"/>
        <pt x="38" y="157" on="0"/>
        <pt x="72" y="213" on="0"/>
        <pt x="119" y="251" on="0"/>
        <pt x="159" y="277" on="1"/>
        <pt x="210" y="310" on="0"/>
        <pt x="260" y="359" on="0"/>
        <pt x="260" y="395" on="1"/>
        <pt x="260" y="421" on="0"/>
        <pt x="230" y="452" on="0"/>
        <pt x="192" y="452" on="1"/>
        <pt x="158" y="452" on="0"/>
        <pt x="128" y="417" on="0"/>
        <pt x="128" y="390" on="1"/>
        <pt x="128" y="366" on="0"/>
        <pt x="156" y="323" on="0"/>
        <pt x="200" y="286" on="0"/>
        <pt x="240" y="256" on="1"/>
        <pt x="294" y="216" on="0"/>
        <pt x="367" y="152" on="0"/>
        <pt x="434" y="59" on="0"/>
        <pt x="451" y="0" on="1"/>
      </contour>
    </TTGlyph>
    <TTGlyph name="ampersand.alt002" xMin="54" yMin="-8" xMax="448" yMax="458">
      <contour>
        <pt x="388" y="192" on="1"/>
        <pt x="388" y="30" on="1"/>
        <pt x="352" y="12" on="0"/>
        <pt x="264" y="-8" on="0"/>
        <pt x="224" y="-8" on="1"/>
        <pt x="145" y="-8" on="0"/>
        <pt x="54" y="109" on="0"/>
        <pt x="54" y="234" on="1"/>
        <pt x="54" y="344" on="0"/>
        <pt x="135" y="458" on="0"/>
        <pt x="199" y="458" on="1"/>
        <pt x="253" y="458" on="0"/>
        <pt x="320" y="394" on="0"/>
        <pt x="320" y="347" on="1"/>
        <pt x="320" y="288" on="0"/>
        <pt x="209" y="205" on="0"/>
        <pt x="107" y="192" on="1"/>
        <pt x="100" y="253" on="1"/>
        <pt x="179" y="265" on="0"/>
        <pt x="244" y="315" on="0"/>
        <pt x="244" y="347" on="1"/>
        <pt x="244" y="366" on="0"/>
        <pt x="223" y="394" on="0"/>
        <pt x="198" y="394" on="1"/>
        <pt x="165" y="394" on="0"/>
        <pt x="128" y="319" on="0"/>
        <pt x="128" y="235" on="1"/>
        <pt x="128" y="167" on="0"/>
        <pt x="148" y="89" on="0"/>
        <pt x="190" y="56" on="0"/>
        <pt x="224" y="56" on="1"/>
        <pt x="250" y="56" on="0"/>
        <pt x="293" y="65" on="0"/>
        <pt x="316" y="74" on="1"/>
        <pt x="316" y="192" on="1"/>
        <pt x="256" y="192" on="1"/>
        <pt x="256" y="256" on="1"/>
        <pt x="448" y="256" on="1"/>
        <pt x="448" y="192" on="1"/>
      </contour>
    </TTGlyph>
    <TTGlyph name="ampersand.alt003" xMin="43" yMin="-8" xMax="448" yMax="512">
      <contour>
        <pt x="378" y="196" on="1"/>
        <pt x="336" y="196" on="1"/>
        <pt x="254" y="196" on="0"/>
        <pt x="130" y="240" on="0"/>
        <pt x="62" y="322" on="0"/>
        <pt x="62" y="379" on="1"/>
        <pt x="62" y="437" on="0"/>
        <pt x="144" y="512" on="0"/>
        <pt x="204" y="512" on="1"/>
        <pt x="264" y="512" on="0"/>
        <pt x="344" y="445" on="0"/>
        <pt x="344" y="393" on="1"/>
        <pt x="344" y="359" on="0"/>
        <pt x="312" y="311" on="0"/>
        <pt x="266" y="280" on="0"/>
        <pt x="228" y="261" on="1"/>
        <pt x="190" y="241" on="0"/>
        <pt x="148" y="213" on="0"/>
        <pt x="119" y="170" on="0"/>
        <pt x="119" y="139" on="1"/>
        <pt x="119" y="56" on="0"/>
        <pt x="224" y="56" on="1"/>
        <pt x="250" y="56" on="0"/>
        <pt x="293" y="65" on="0"/>
        <pt x="316" y="74" on="1"/>
        <pt x="316" y="206" on="1"/>
        <pt x="388" y="206" on="1"/>
        <pt x="388" y="30" on="1"/>
        <pt x="352" y="12" on="0"/>
        <pt x="264" y="-8" on="0"/>
        <pt x="224" y="-8" on="1"/>
        <pt x="143" y="-8" on="0"/>
        <pt x="43" y="71" on="0"/>
        <pt x="43" y="143" on="1"/>
        <pt x="43" y="183" on="0"/>
        <pt x="80" y="239" on="0"/>
        <pt x="132" y="274" on="0"/>
        <pt x="174" y="296" on="1"/>
        <pt x="222" y="320" on="0"/>
        <pt x="268" y="358" on="0"/>
        <pt x="268" y="388" on="1"/>
        <pt x="268" y="417" on="0"/>
        <pt x="232" y="448" on="0"/>
        <pt x="204" y="448" on="1"/>
        <pt x="176" y="448" on="0"/>
        <pt x="138" y="408" on="0"/>
        <pt x="138" y="373" on="1"/>
        <pt x="138" y="318" on="0"/>
        <pt x="223" y="256" on="0"/>
        <pt x="325" y="256" on="1"/>
        <pt x="448" y="256" on="1"/>
        <pt x="448" y="201" on="1"/>
      </contour>
    </TTGlyph>
    <TTGlyph name="angle" xMin="64" yMin="64" xMax="384" yMax="522">
      <contour>
        <pt x="64" y="64" on="1"/>
        <pt x="64" y="128" on="1"/>
        <pt x="258" y="522" on="1"/>
        <pt x="316" y="494" on="1"/>
        <pt x="136" y="128" on="1"/>
        <pt x="384" y="128" on="1"/>
        <pt x="384" y="64" on="1"/>
      </contour>
    </TTGlyph>
    <TTGlyph name="anoteleia" xMin="160" yMin="192" xMax="288" yMax="320">
      <component glyphName="period" x="32" y="202" flags="0x4"/>
    </TTGlyph>
    <TTGlyph name="aogonek" xMin="50" yMin="-197" xMax="401" yMax="453">
      <component glyphName="a" x="0" y="0" flags="0x0"/>
      <component glyphName="uni0328" x="448" y="0" flags="0x0"/>
    </TTGlyph>
    <TTGlyph name="approxequal" xMin="64" yMin="64" xMax="384" yMax="448">
      <contour>
        <pt x="128" y="128" on="1"/>
        <pt x="128" y="64" on="1"/>
        <pt x="64" y="64" on="1"/>
        <pt x="64" y="128" on="1"/>
      </contour>
      <contour>
        <pt x="256" y="192" on="1"/>
        <pt x="256" y="128" on="1"/>
        <pt x="192" y="128" on="1"/>
        <pt x="192" y="192" on="1"/>
      </contour>
      <contour>
        <pt x="320" y="128" on="1"/>
        <pt x="320" y="64" on="1"/>
        <pt x="256" y="64" on="1"/>
        <pt x="256" y="128" on="1"/>
      </contour>
      <contour>
        <pt x="384" y="192" on="1"/>
        <pt x="384" y="128" on="1"/>
        <pt x="320" y="128" on="1"/>
        <pt x="320" y="192" on="1"/>
      </contour>
      <contour>
        <pt x="128" y="320" on="1"/>
        <pt x="128" y="256" on="1"/>
        <pt x="64" y="256" on="1"/>
        <pt x="64" y="320" on="1"/>
      </contour>
      <contour>
        <pt x="256" y="384" on="1"/>
        <pt x="256" y="320" on="1"/>
        <pt x="192" y="320" on="1"/>
        <pt x="192" y="384" on="1"/>
      </contour>
      <contour>
        <pt x="384" y="384" on="1"/>
        <pt x="384" y="320" on="1"/>
        <pt x="320" y="320" on="1"/>
        <pt x="320" y="384" on="1"/>
      </contour>
      <contour>
        <pt x="128" y="192" on="1"/>
        <pt x="128" y="128" on="1"/>
        <pt x="64" y="128" on="1"/>
        <pt x="64" y="192" on="1"/>
      </contour>
      <contour>
        <pt x="384" y="256" on="1"/>
        <pt x="384" y="192" on="1"/>
        <pt x="320" y="192" on="1"/>
        <pt x="320" y="256" on="1"/>
      </contour>
      <contour>
        <pt x="128" y="384" on="1"/>
        <pt x="128" y="320" on="1"/>
        <pt x="64" y="320" on="1"/>
        <pt x="64" y="384" on="1"/>
      </contour>
      <contour>
        <pt x="192" y="448" on="1"/>
        <pt x="192" y="384" on="1"/>
        <pt x="128" y="384" on="1"/>
        <pt x="128" y="448" on="1"/>
      </contour>
      <contour>
        <pt x="320" y="320" on="1"/>
        <pt x="320" y="256" on="1"/>
        <pt x="256" y="256" on="1"/>
        <pt x="256" y="320" on="1"/>
      </contour>
      <contour>
        <pt x="384" y="448" on="1"/>
        <pt x="384" y="384" on="1"/>
        <pt x="320" y="384" on="1"/>
        <pt x="320" y="448" on="1"/>
      </contour>
      <contour>
        <pt x="192" y="256" on="1"/>
        <pt x="192" y="192" on="1"/>
        <pt x="128" y="192" on="1"/>
        <pt x="128" y="256" on="1"/>
      </contour>
    </TTGlyph>
    <TTGlyph name="aring" xMin="50" yMin="-4" xMax="384" yMax="697">
      <component glyphName="a" x="0" y="0" flags="0x0"/>
      <component glyphName="uni030A" x="448" y="0" flags="0x0"/>
    </TTGlyph>
    <TTGlyph name="aringacute" xMin="50" yMin="-4" xMax="384" yMax="842">
      <component glyphName="a" x="0" y="0" flags="0x0"/>
      <component glyphName="uni030A" x="448" y="0" flags="0x0"/>
      <component glyphName="acutecomb" x="448" y="192" flags="0x4"/>
    </TTGlyph>
    <TTGlyph name="arrowboth" xMin="-10" yMin="54" xMax="458" yMax="394">
      <contour>
        <pt x="207" y="98" on="1"/>
        <pt x="169" y="54" on="1"/>
        <pt x="-10" y="202" on="1"/>
        <pt x="-10" y="246" on="1"/>
        <pt x="169" y="394" on="1"/>
        <pt x="207" y="350" on="1"/>
        <pt x="98" y="256" on="1"/>
        <pt x="350" y="256" on="1"/>
        <pt x="241" y="350" on="1"/>
        <pt x="279" y="394" on="1"/>
        <pt x="458" y="246" on="1"/>
        <pt x="458" y="202" on="1"/>
        <pt x="279" y="54" on="1"/>
        <pt x="241" y="98" on="1"/>
        <pt x="350" y="192" on="1"/>
        <pt x="98" y="192" on="1"/>
      </contour>
    </TTGlyph>
    <TTGlyph name="arrowdown" xMin="54" yMin="54" xMax="394" yMax="512">
      <contour>
        <pt x="256" y="512" on="1"/>
        <pt x="256" y="162" on="1"/>
        <pt x="350" y="271" on="1"/>
        <pt x="394" y="233" on="1"/>
        <pt x="246" y="54" on="1"/>
        <pt x="202" y="54" on="1"/>
        <pt x="54" y="233" on="1"/>
        <pt x="98" y="271" on="1"/>
        <pt x="192" y="162" on="1"/>
        <pt x="192" y="512" on="1"/>
      </contour>
    </TTGlyph>
    <TTGlyph name="arrowleft" xMin="-10" yMin="54" xMax="448" yMax="394">
      <contour>
        <pt x="207" y="98" on="1"/>
        <pt x="169" y="54" on="1"/>
        <pt x="-10" y="202" on="1"/>
        <pt x="-10" y="246" on="1"/>
        <pt x="169" y="394" on="1"/>
        <pt x="207" y="350" on="1"/>
        <pt x="98" y="256" on="1"/>
        <pt x="448" y="256" on="1"/>
        <pt x="448" y="192" on="1"/>
        <pt x="98" y="192" on="1"/>
      </contour>
    </TTGlyph>
    <TTGlyph name="arrowright" xMin="0" yMin="54" xMax="458" yMax="394">
      <contour>
        <pt x="0" y="256" on="1"/>
        <pt x="350" y="256" on="1"/>
        <pt x="241" y="350" on="1"/>
        <pt x="279" y="394" on="1"/>
        <pt x="458" y="246" on="1"/>
        <pt x="458" y="202" on="1"/>
        <pt x="279" y="54" on="1"/>
        <pt x="241" y="98" on="1"/>
        <pt x="350" y="192" on="1"/>
        <pt x="0" y="192" on="1"/>
      </contour>
    </TTGlyph>
    <TTGlyph name="arrowup" xMin="54" yMin="64" xMax="394" yMax="522">
      <contour>
        <pt x="98" y="305" on="1"/>
        <pt x="54" y="343" on="1"/>
        <pt x="202" y="522" on="1"/>
        <pt x="246" y="522" on="1"/>
        <pt x="394" y="343" on="1"/>
        <pt x="350" y="305" on="1"/>
        <pt x="256" y="414" on="1"/>
        <pt x="256" y="64" on="1"/>
        <pt x="192" y="64" on="1"/>
        <pt x="192" y="414" on="1"/>
      </contour>
    </TTGlyph>
    <TTGlyph name="arrowupdn" xMin="54" yMin="54" xMax="394" yMax="522">
      <contour>
        <pt x="98" y="305" on="1"/>
        <pt x="54" y="343" on="1"/>
        <pt x="202" y="522" on="1"/>
        <pt x="246" y="522" on="1"/>
        <pt x="394" y="343" on="1"/>
        <pt x="350" y="305" on="1"/>
        <pt x="256" y="414" on="1"/>
        <pt x="256" y="162" on="1"/>
        <pt x="350" y="271" on="1"/>
        <pt x="394" y="233" on="1"/>
        <pt x="246" y="54" on="1"/>
        <pt x="202" y="54" on="1"/>
        <pt x="54" y="233" on="1"/>
        <pt x="98" y="271" on="1"/>
        <pt x="192" y="162" on="1"/>
        <pt x="192" y="414" on="1"/>
      </contour>
    </TTGlyph>
    <TTGlyph name="arrowupdnbse" xMin="54" yMin="0" xMax="394" yMax="522">
      <contour>
        <pt x="384" y="64" on="1"/>
        <pt x="384" y="0" on="1"/>
        <pt x="64" y="0" on="1"/>
        <pt x="64" y="64" on="1"/>
      </contour>
      <contour>
        <pt x="98" y="305" on="1"/>
        <pt x="54" y="343" on="1"/>
        <pt x="202" y="522" on="1"/>
        <pt x="246" y="522" on="1"/>
        <pt x="394" y="343" on="1"/>
        <pt x="350" y="305" on="1"/>
        <pt x="256" y="414" on="1"/>
        <pt x="256" y="162" on="1"/>
        <pt x="350" y="271" on="1"/>
        <pt x="394" y="233" on="1"/>
        <pt x="246" y="54" on="1"/>
        <pt x="202" y="54" on="1"/>
        <pt x="54" y="233" on="1"/>
        <pt x="98" y="271" on="1"/>
        <pt x="192" y="162" on="1"/>
        <pt x="192" y="414" on="1"/>
      </contour>
    </TTGlyph>
    <TTGlyph name="asciicircum" xMin="53" yMin="182" xMax="395" yMax="566">
      <contour>
        <pt x="250" y="566" on="1"/>
        <pt x="121" y="182" on="1"/>
        <pt x="53" y="206" on="1"/>
        <pt x="181" y="566" on="1"/>
      </contour>
      <contour>
        <pt x="327" y="182" on="1"/>
        <pt x="198" y="566" on="1"/>
        <pt x="267" y="566" on="1"/>
        <pt x="395" y="206" on="1"/>
      </contour>
    </TTGlyph>
    <TTGlyph name="asciitilde" xMin="58" yMin="192" xMax="390" yMax="384">
      <contour>
        <pt x="292" y="252" on="1"/>
        <pt x="304" y="252" on="0"/>
        <pt x="316" y="276" on="0"/>
        <pt x="322" y="323" on="0"/>
        <pt x="325" y="369" on="1"/>
        <pt x="390" y="367" on="1"/>
        <pt x="390" y="360" on="1"/>
        <pt x="387" y="298" on="0"/>
        <pt x="372" y="230" on="0"/>
        <pt x="331" y="192" on="0"/>
        <pt x="292" y="192" on="1"/>
        <pt x="261" y="192" on="0"/>
        <pt x="220" y="219" on="0"/>
        <pt x="199" y="255" on="0"/>
        <pt x="186" y="283" on="1"/>
        <pt x="178" y="304" on="0"/>
        <pt x="165" y="324" on="0"/>
        <pt x="156" y="324" on="1"/>
        <pt x="144" y="324" on="0"/>
        <pt x="132" y="300" on="0"/>
        <pt x="126" y="253" on="0"/>
        <pt x="123" y="207" on="1"/>
        <pt x="58" y="209" on="1"/>
        <pt x="58" y="211" on="0"/>
        <pt x="58" y="217" on="0"/>
        <pt x="59" y="219" on="1"/>
        <pt x="62" y="280" on="0"/>
        <pt x="77" y="347" on="0"/>
        <pt x="117" y="384" on="0"/>
        <pt x="156" y="384" on="1"/>
        <pt x="187" y="384" on="0"/>
        <pt x="228" y="357" on="0"/>
        <pt x="249" y="321" on="0"/>
        <pt x="262" y="293" on="1"/>
        <pt x="270" y="272" on="0"/>
        <pt x="283" y="252" on="0"/>
      </contour>
    </TTGlyph>
    <TTGlyph name="asterisk" xMin="37" yMin="74" xMax="411" yMax="502">
      <contour>
        <pt x="270" y="288" on="1"/>
        <pt x="411" y="178" on="1"/>
        <pt x="364" y="123" on="1"/>
        <pt x="254" y="223" on="1"/>
        <pt x="260" y="74" on="1"/>
        <pt x="188" y="74" on="1"/>
        <pt x="194" y="223" on="1"/>
        <pt x="84" y="123" on="1"/>
        <pt x="37" y="178" on="1"/>
        <pt x="178" y="288" on="1"/>
        <pt x="37" y="398" on="1"/>
        <pt x="84" y="453" on="1"/>
        <pt x="194" y="353" on="1"/>
        <pt x="188" y="502" on="1"/>
        <pt x="260" y="502" on="1"/>
        <pt x="254" y="353" on="1"/>
        <pt x="364" y="453" on="1"/>
        <pt x="411" y="398" on="1"/>
      </contour>
    </TTGlyph>
    <TTGlyph name="at" xMin="48" yMin="-128" xMax="388" yMax="586">
      <contour>
        <pt x="244" y="-128" on="1"/>
        <pt x="174" y="-128" on="0"/>
        <pt x="88" y="-54" on="0"/>
        <pt x="48" y="100" on="0"/>
        <pt x="48" y="223" on="1"/>
        <pt x="48" y="409" on="0"/>
        <pt x="133" y="586" on="0"/>
        <pt x="233" y="586" on="1"/>
        <pt x="311" y="586" on="0"/>
        <pt x="388" y="477" on="0"/>
        <pt x="388" y="382" on="1"/>
        <pt x="388" y="74" on="1"/>
        <pt x="372" y="69" on="0"/>
        <pt x="326" y="64" on="0"/>
        <pt x="306" y="64" on="1"/>
        <pt x="241" y="64" on="0"/>
        <pt x="169" y="145" on="0"/>
        <pt x="169" y="219" on="1"/>
        <pt x="169" y="289" on="0"/>
        <pt x="239" y="375" on="0"/>
        <pt x="316" y="389" on="1"/>
        <pt x="315" y="458" on="0"/>
        <pt x="277" y="522" on="0"/>
        <pt x="231" y="522" on="1"/>
        <pt x="189" y="522" on="0"/>
        <pt x="141" y="463" on="0"/>
        <pt x="120" y="333" on="0"/>
        <pt x="120" y="223" on="1"/>
        <pt x="120" y="116" on="0"/>
        <pt x="148" y="-10" on="0"/>
        <pt x="202" y="-64" on="0"/>
        <pt x="244" y="-64" on="1"/>
        <pt x="284" y="-64" on="0"/>
        <pt x="329" y="-49" on="1"/>
        <pt x="345" y="-108" on="1"/>
        <pt x="322" y="-118" on="0"/>
        <pt x="267" y="-128" on="0"/>
      </contour>
      <contour>
        <pt x="316" y="324" on="1"/>
        <pt x="274" y="315" on="0"/>
        <pt x="243" y="267" on="0"/>
        <pt x="243" y="220" on="1"/>
        <pt x="243" y="172" on="0"/>
        <pt x="275" y="126" on="0"/>
        <pt x="316" y="130" on="1"/>
      </contour>
    </TTGlyph>
    <TTGlyph name="atilde" xMin="50" yMin="-4" xMax="384" yMax="640">
      <component glyphName="a" x="0" y="0" flags="0x0"/>
      <component glyphName="tildecomb" x="448" y="0" flags="0x0"/>
    </TTGlyph>
    <TTGlyph name="b" xMin="58" yMin="-8" xMax="397" yMax="640">
      <contour>
        <pt x="233" y="-8" on="1"/>
        <pt x="198" y="-8" on="0"/>
        <pt x="143" y="15" on="0"/>
        <pt x="124" y="36" on="1"/>
        <pt x="119" y="0" on="1"/>
        <pt x="58" y="0" on="1"/>
        <pt x="60" y="64" on="1"/>
        <pt x="60" y="640" on="1"/>
        <pt x="132" y="640" on="1"/>
        <pt x="132" y="421" on="1"/>
        <pt x="150" y="438" on="0"/>
        <pt x="200" y="456" on="0"/>
        <pt x="232" y="456" on="1"/>
        <pt x="314" y="456" on="0"/>
        <pt x="397" y="328" on="0"/>
        <pt x="397" y="224" on="1"/>
        <pt x="397" y="120" on="0"/>
        <pt x="315" y="-8" on="0"/>
      </contour>
      <contour>
        <pt x="224" y="56" on="1"/>
        <pt x="259" y="56" on="0"/>
        <pt x="300" y="87" on="0"/>
        <pt x="319" y="160" on="0"/>
        <pt x="319" y="224" on="1"/>
        <pt x="319" y="289" on="0"/>
        <pt x="300" y="361" on="0"/>
        <pt x="259" y="392" on="0"/>
        <pt x="224" y="392" on="1"/>
        <pt x="160" y="392" on="0"/>
        <pt x="132" y="350" on="1"/>
        <pt x="132" y="99" on="1"/>
        <pt x="161" y="56" on="0"/>
      </contour>
    </TTGlyph>
    <TTGlyph name="backslash" xMin="119" yMin="-69" xMax="329" yMax="710">
      <contour>
        <pt x="258" y="-69" on="1"/>
        <pt x="119" y="698" on="1"/>
        <pt x="190" y="710" on="1"/>
        <pt x="329" y="-57" on="1"/>
      </contour>
    </TTGlyph>
    <TTGlyph name="bar" xMin="188" yMin="-64" xMax="260" yMax="704">
      <contour>
        <pt x="188" y="-64" on="1"/>
        <pt x="188" y="704" on="1"/>
        <pt x="260" y="704" on="1"/>
        <pt x="260" y="-64" on="1"/>
      </contour>
    </TTGlyph>
    <TTGlyph name="beta" xMin="64" yMin="-192" xMax="384" yMax="640">
      <contour>
        <pt x="128" y="640" on="1"/>
        <pt x="320" y="640" on="1"/>
        <pt x="320" y="576" on="1"/>
        <pt x="128" y="576" on="1"/>
      </contour>
      <contour>
        <pt x="192" y="128" on="1"/>
        <pt x="192" y="64" on="1"/>
        <pt x="128" y="64" on="1"/>
        <pt x="128" y="-192" on="1"/>
        <pt x="64" y="-192" on="1"/>
        <pt x="64" y="576" on="1"/>
        <pt x="128" y="576" on="1"/>
        <pt x="128" y="128" on="1"/>
      </contour>
      <contour>
        <pt x="384" y="576" on="1"/>
        <pt x="384" y="384" on="1"/>
        <pt x="320" y="384" on="1"/>
        <pt x="320" y="576" on="1"/>
      </contour>
      <contour>
        <pt x="320" y="384" on="1"/>
        <pt x="320" y="320" on="1"/>
        <pt x="192" y="320" on="1"/>
        <pt x="192" y="384" on="1"/>
      </contour>
      <contour>
        <pt x="384" y="320" on="1"/>
        <pt x="384" y="64" on="1"/>
        <pt x="320" y="64" on="1"/>
        <pt x="320" y="320" on="1"/>
      </contour>
      <contour>
        <pt x="320" y="64" on="1"/>
        <pt x="320" y="0" on="1"/>
        <pt x="192" y="0" on="1"/>
        <pt x="192" y="64" on="1"/>
      </contour>
    </TTGlyph>
    <TTGlyph name="block" xMin="0" yMin="-192" xMax="448" yMax="832">
      <contour>
        <pt x="0" y="-192" on="1"/>
        <pt x="0" y="832" on="1"/>
        <pt x="448" y="832" on="1"/>
        <pt x="448" y="-192" on="1"/>
      </contour>
    </TTGlyph>
    <TTGlyph name="braceleft" xMin="84" yMin="-64" xMax="341" yMax="704">
      <contour>
        <pt x="331" y="-64" on="1"/>
        <pt x="243" y="-53" on="0"/>
        <pt x="152" y="5" on="0"/>
        <pt x="152" y="74" on="1"/>
        <pt x="152" y="91" on="0"/>
        <pt x="158" y="127" on="1"/>
        <pt x="164" y="167" on="0"/>
        <pt x="164" y="192" on="1"/>
        <pt x="164" y="228" on="0"/>
        <pt x="125" y="269" on="0"/>
        <pt x="84" y="276" on="1"/>
        <pt x="84" y="364" on="1"/>
        <pt x="125" y="371" on="0"/>
        <pt x="164" y="412" on="0"/>
        <pt x="164" y="448" on="1"/>
        <pt x="164" y="473" on="0"/>
        <pt x="158" y="513" on="1"/>
        <pt x="156" y="526" on="0"/>
        <pt x="152" y="554" on="0"/>
        <pt x="152" y="566" on="1"/>
        <pt x="152" y="613" on="0"/>
        <pt x="197" y="669" on="0"/>
        <pt x="273" y="697" on="0"/>
        <pt x="331" y="704" on="1"/>
        <pt x="341" y="647" on="1"/>
        <pt x="294" y="638" on="0"/>
        <pt x="243" y="620" on="0"/>
        <pt x="220" y="591" on="0"/>
        <pt x="220" y="566" on="1"/>
        <pt x="220" y="553" on="0"/>
        <pt x="223" y="529" on="0"/>
        <pt x="225" y="516" on="1"/>
        <pt x="232" y="479" on="0"/>
        <pt x="232" y="448" on="1"/>
        <pt x="232" y="391" on="0"/>
        <pt x="184" y="335" on="0"/>
        <pt x="134" y="320" on="1"/>
        <pt x="184" y="305" on="0"/>
        <pt x="232" y="249" on="0"/>
        <pt x="232" y="192" on="1"/>
        <pt x="232" y="161" on="0"/>
        <pt x="225" y="124" on="1"/>
        <pt x="223" y="111" on="0"/>
        <pt x="220" y="87" on="0"/>
        <pt x="220" y="74" on="1"/>
        <pt x="220" y="49" on="0"/>
        <pt x="243" y="20" on="0"/>
        <pt x="294" y="2" on="0"/>
        <pt x="341" y="-7" on="1"/>
      </contour>
    </TTGlyph>
    <TTGlyph name="braceright" xMin="107" yMin="-64" xMax="364" yMax="704">
      <contour>
        <pt x="107" y="-7" on="1"/>
        <pt x="154" y="2" on="0"/>
        <pt x="205" y="20" on="0"/>
        <pt x="228" y="49" on="0"/>
        <pt x="228" y="74" on="1"/>
        <pt x="228" y="87" on="0"/>
        <pt x="225" y="111" on="0"/>
        <pt x="223" y="124" on="1"/>
        <pt x="216" y="161" on="0"/>
        <pt x="216" y="192" on="1"/>
        <pt x="216" y="249" on="0"/>
        <pt x="264" y="305" on="0"/>
        <pt x="314" y="320" on="1"/>
        <pt x="264" y="335" on="0"/>
        <pt x="216" y="391" on="0"/>
        <pt x="216" y="448" on="1"/>
        <pt x="216" y="466" on="0"/>
        <pt x="220" y="500" on="0"/>
        <pt x="223" y="516" on="1"/>
        <pt x="225" y="529" on="0"/>
        <pt x="228" y="553" on="0"/>
        <pt x="228" y="566" on="1"/>
        <pt x="228" y="591" on="0"/>
        <pt x="205" y="620" on="0"/>
        <pt x="154" y="638" on="0"/>
        <pt x="107" y="647" on="1"/>
        <pt x="117" y="704" on="1"/>
        <pt x="205" y="693" on="0"/>
        <pt x="296" y="635" on="0"/>
        <pt x="296" y="566" on="1"/>
        <pt x="296" y="554" on="0"/>
        <pt x="292" y="526" on="0"/>
        <pt x="290" y="513" on="1"/>
        <pt x="284" y="473" on="0"/>
        <pt x="284" y="448" on="1"/>
        <pt x="284" y="412" on="0"/>
        <pt x="323" y="371" on="0"/>
        <pt x="364" y="364" on="1"/>
        <pt x="364" y="276" on="1"/>
        <pt x="323" y="269" on="0"/>
        <pt x="284" y="228" on="0"/>
        <pt x="284" y="192" on="1"/>
        <pt x="284" y="176" on="0"/>
        <pt x="288" y="142" on="0"/>
        <pt x="290" y="127" on="1"/>
        <pt x="292" y="114" on="0"/>
        <pt x="296" y="86" on="0"/>
        <pt x="296" y="74" on="1"/>
        <pt x="296" y="27" on="0"/>
        <pt x="251" y="-29" on="0"/>
        <pt x="175" y="-57" on="0"/>
        <pt x="117" y="-64" on="1"/>
      </contour>
    </TTGlyph>
    <TTGlyph name="bracketleft" xMin="144" yMin="-64" xMax="340" yMax="704">
      <contour>
        <pt x="216" y="640" on="1"/>
        <pt x="216" y="0" on="1"/>
        <pt x="340" y="0" on="1"/>
        <pt x="340" y="-64" on="1"/>
        <pt x="144" y="-64" on="1"/>
        <pt x="144" y="704" on="1"/>
        <pt x="340" y="704" on="1"/>
        <pt x="340" y="640" on="1"/>
      </contour>
    </TTGlyph>
    <TTGlyph name="bracketright" xMin="108" yMin="-64" xMax="304" yMax="704">
      <contour>
        <pt x="108" y="-64" on="1"/>
        <pt x="108" y="0" on="1"/>
        <pt x="232" y="0" on="1"/>
        <pt x="232" y="640" on="1"/>
        <pt x="108" y="640" on="1"/>
        <pt x="108" y="704" on="1"/>
        <pt x="304" y="704" on="1"/>
        <pt x="304" y="-64" on="1"/>
      </contour>
    </TTGlyph>
    <TTGlyph name="breve" xMin="64" yMin="512" xMax="384" yMax="640">
      <component glyphName="uni0306" x="448" y="0" flags="0x0"/>
    </TTGlyph>
    <TTGlyph name="brokenbar" xMin="190" yMin="-192" xMax="258" yMax="704">
      <contour>
        <pt x="190" y="320" on="1"/>
        <pt x="190" y="704" on="1"/>
        <pt x="258" y="704" on="1"/>
        <pt x="258" y="320" on="1"/>
      </contour>
      <contour>
        <pt x="190" y="-192" on="1"/>
        <pt x="190" y="192" on="1"/>
        <pt x="258" y="192" on="1"/>
        <pt x="258" y="-192" on="1"/>
      </contour>
    </TTGlyph>
    <TTGlyph name="bullet" xMin="122" yMin="120" xMax="326" yMax="328">
      <contour>
        <pt x="224" y="328" on="1"/>
        <pt x="253" y="328" on="0"/>
        <pt x="299" y="301" on="0"/>
        <pt x="326" y="253" on="0"/>
        <pt x="326" y="224" on="1"/>
        <pt x="326" y="180" on="0"/>
        <pt x="267" y="120" on="0"/>
        <pt x="224" y="120" on="1"/>
        <pt x="195" y="120" on="0"/>
        <pt x="149" y="147" on="0"/>
        <pt x="122" y="195" on="0"/>
        <pt x="122" y="224" on="1"/>
        <pt x="122" y="268" on="0"/>
        <pt x="181" y="328" on="0"/>
      </contour>
    </TTGlyph>
    <TTGlyph name="c" xMin="50" yMin="-7" xMax="358" yMax="455">
      <contour>
        <pt x="345" y="376" on="1"/>
        <pt x="291" y="391" on="0"/>
        <pt x="242" y="391" on="1"/>
        <pt x="198" y="391" on="0"/>
        <pt x="148" y="359" on="0"/>
        <pt x="126" y="288" on="0"/>
        <pt x="126" y="224" on="1"/>
        <pt x="126" y="160" on="0"/>
        <pt x="148" y="89" on="0"/>
        <pt x="198" y="57" on="0"/>
        <pt x="242" y="57" on="1"/>
        <pt x="291" y="57" on="0"/>
        <pt x="345" y="72" on="1"/>
        <pt x="358" y="12" on="1"/>
        <pt x="302" y="-7" on="0"/>
        <pt x="238" y="-7" on="1"/>
        <pt x="137" y="-7" on="0"/>
        <pt x="50" y="118" on="0"/>
        <pt x="50" y="224" on="1"/>
        <pt x="50" y="330" on="0"/>
        <pt x="137" y="455" on="0"/>
        <pt x="238" y="455" on="1"/>
        <pt x="302" y="455" on="0"/>
        <pt x="358" y="436" on="1"/>
      </contour>
    </TTGlyph>
    <TTGlyph name="cacute" xMin="50" yMin="-7" xMax="358" yMax="650">
      <component glyphName="c" x="0" y="0" flags="0x0"/>
      <component glyphName="acutecomb" x="464" y="0" flags="0x0"/>
    </TTGlyph>
    <TTGlyph name="caron" xMin="114" yMin="504" xMax="334" yMax="643">
      <component glyphName="uni030C" x="448" y="0" flags="0x0"/>
    </TTGlyph>
    <TTGlyph name="ccaron" xMin="50" yMin="-7" xMax="358" yMax="643">
      <component glyphName="c" x="0" y="0" flags="0x0"/>
      <component glyphName="uni030C" x="464" y="0" flags="0x0"/>
    </TTGlyph>
    <TTGlyph name="ccedilla" xMin="50" yMin="-192" xMax="358" yMax="455">
      <component glyphName="c" x="0" y="0" flags="0x0"/>
      <component glyphName="uni0327" x="426" y="0" flags="0x0"/>
    </TTGlyph>
    <TTGlyph name="ccircumflex" xMin="50" yMin="-7" xMax="358" yMax="650">
      <component glyphName="c" x="0" y="0" flags="0x0"/>
      <component glyphName="uni0302" x="464" y="0" flags="0x0"/>
    </TTGlyph>
    <TTGlyph name="cdotaccent" xMin="50" yMin="-7" xMax="358" yMax="650">
      <component glyphName="c" x="0" y="0" flags="0x0"/>
      <component glyphName="uni0307" x="464" y="0" flags="0x0"/>
    </TTGlyph>
    <TTGlyph name="cedilla" xMin="126" yMin="-192" xMax="322" yMax="10">
      <component glyphName="uni0327" x="448" y="0" flags="0x0"/>
    </TTGlyph>
    <TTGlyph name="cent" xMin="64" yMin="0" xMax="384" yMax="640">
      <contour>
        <pt x="384" y="192" on="1"/>
        <pt x="384" y="128" on="1"/>
        <pt x="256" y="128" on="1"/>
        <pt x="256" y="0" on="1"/>
        <pt x="192" y="0" on="1"/>
        <pt x="192" y="128" on="1"/>
        <pt x="128" y="128" on="1"/>
        <pt x="128" y="192" on="1"/>
        <pt x="192" y="192" on="1"/>
        <pt x="192" y="448" on="1"/>
        <pt x="128" y="448" on="1"/>
        <pt x="128" y="512" on="1"/>
        <pt x="192" y="512" on="1"/>
        <pt x="192" y="640" on="1"/>
        <pt x="256" y="640" on="1"/>
        <pt x="256" y="512" on="1"/>
        <pt x="384" y="512" on="1"/>
        <pt x="384" y="448" on="1"/>
        <pt x="256" y="448" on="1"/>
        <pt x="256" y="192" on="1"/>
      </contour>
      <contour>
        <pt x="64" y="192" on="1"/>
        <pt x="64" y="448" on="1"/>
        <pt x="128" y="448" on="1"/>
        <pt x="128" y="192" on="1"/>
      </contour>
    </TTGlyph>
    <TTGlyph name="chi" xMin="30" yMin="-199" xMax="393" yMax="458">
      <contour>
        <pt x="30" y="-177" on="1"/>
        <pt x="178" y="139" on="1"/>
        <pt x="123" y="211" on="0"/>
        <pt x="68" y="343" on="0"/>
        <pt x="50" y="438" on="1"/>
        <pt x="122" y="451" on="1"/>
        <pt x="138" y="365" on="0"/>
        <pt x="176" y="259" on="0"/>
        <pt x="211" y="209" on="1"/>
        <pt x="328" y="458" on="1"/>
        <pt x="392" y="429" on="1"/>
        <pt x="264" y="156" on="1"/>
        <pt x="325" y="88" on="0"/>
        <pt x="381" y="-66" on="0"/>
        <pt x="393" y="-192" on="1"/>
        <pt x="321" y="-199" on="1"/>
        <pt x="311" y="-87" on="0"/>
        <pt x="273" y="39" on="0"/>
        <pt x="232" y="89" on="1"/>
        <pt x="97" y="-199" on="1"/>
      </contour>
    </TTGlyph>
    <TTGlyph name="circle" xMin="54" yMin="56" xMax="394" yMax="392">
      <contour>
        <pt x="224" y="120" on="1"/>
        <pt x="267" y="120" on="0"/>
        <pt x="324" y="180" on="0"/>
        <pt x="324" y="224" on="1"/>
        <pt x="324" y="268" on="0"/>
        <pt x="267" y="328" on="0"/>
        <pt x="224" y="328" on="1"/>
        <pt x="181" y="328" on="0"/>
        <pt x="124" y="268" on="0"/>
        <pt x="124" y="224" on="1"/>
        <pt x="124" y="180" on="0"/>
        <pt x="181" y="120" on="0"/>
      </contour>
      <contour>
        <pt x="224" y="392" on="1"/>
        <pt x="271" y="392" on="0"/>
        <pt x="349" y="348" on="0"/>
        <pt x="394" y="271" on="0"/>
        <pt x="394" y="224" on="1"/>
        <pt x="394" y="177" on="0"/>
        <pt x="349" y="100" on="0"/>
        <pt x="271" y="56" on="0"/>
        <pt x="224" y="56" on="1"/>
        <pt x="177" y="56" on="0"/>
        <pt x="99" y="100" on="0"/>
        <pt x="54" y="177" on="0"/>
        <pt x="54" y="224" on="1"/>
        <pt x="54" y="271" on="0"/>
        <pt x="99" y="348" on="0"/>
        <pt x="177" y="392" on="0"/>
      </contour>
    </TTGlyph>
    <TTGlyph name="circumflex" xMin="114" yMin="511" xMax="334" yMax="650">
      <component glyphName="uni0302" x="448" y="0" flags="0x0"/>
    </TTGlyph>
    <TTGlyph name="club" xMin="64" yMin="64" xMax="384" yMax="512">
      <contour>
        <pt x="384" y="384" on="1"/>
        <pt x="384" y="192" on="1"/>
        <pt x="320" y="192" on="1"/>
        <pt x="320" y="256" on="1"/>
        <pt x="256" y="256" on="1"/>
        <pt x="256" y="128" on="1"/>
        <pt x="384" y="128" on="1"/>
        <pt x="384" y="64" on="1"/>
        <pt x="64" y="64" on="1"/>
        <pt x="64" y="128" on="1"/>
        <pt x="192" y="128" on="1"/>
        <pt x="192" y="256" on="1"/>
        <pt x="128" y="256" on="1"/>
        <pt x="128" y="192" on="1"/>
        <pt x="64" y="192" on="1"/>
        <pt x="64" y="384" on="1"/>
        <pt x="128" y="384" on="1"/>
        <pt x="128" y="320" on="1"/>
        <pt x="192" y="320" on="1"/>
        <pt x="192" y="448" on="1"/>
        <pt x="128" y="448" on="1"/>
        <pt x="128" y="512" on="1"/>
        <pt x="320" y="512" on="1"/>
        <pt x="320" y="448" on="1"/>
        <pt x="256" y="448" on="1"/>
        <pt x="256" y="320" on="1"/>
        <pt x="320" y="320" on="1"/>
        <pt x="320" y="384" on="1"/>
      </contour>
    </TTGlyph>
    <TTGlyph name="colon" xMin="128" yMin="-10" xMax="256" yMax="458">
      <contour>
        <pt x="192" y="118" on="1"/>
        <pt x="219" y="118" on="0"/>
        <pt x="256" y="84" on="0"/>
        <pt x="256" y="54" on="1"/>
        <pt x="256" y="24" on="0"/>
        <pt x="220" y="-10" on="0"/>
        <pt x="192" y="-10" on="1"/>
        <pt x="164" y="-10" on="0"/>
        <pt x="128" y="24" on="0"/>
        <pt x="128" y="54" on="1"/>
        <pt x="128" y="84" on="0"/>
        <pt x="165" y="118" on="0"/>
      </contour>
      <contour>
        <pt x="192" y="458" on="1"/>
        <pt x="219" y="458" on="0"/>
        <pt x="256" y="424" on="0"/>
        <pt x="256" y="394" on="1"/>
        <pt x="256" y="364" on="0"/>
        <pt x="220" y="330" on="0"/>
        <pt x="192" y="330" on="1"/>
        <pt x="164" y="330" on="0"/>
        <pt x="128" y="364" on="0"/>
        <pt x="128" y="394" on="1"/>
        <pt x="128" y="424" on="0"/>
        <pt x="165" y="458" on="0"/>
      </contour>
    </TTGlyph>
    <TTGlyph name="comma" xMin="128" yMin="-133" xMax="258" yMax="118">
      <contour>
        <pt x="190" y="118" on="1"/>
        <pt x="220" y="118" on="0"/>
        <pt x="258" y="76" on="0"/>
        <pt x="258" y="32" on="1"/>
        <pt x="258" y="-17" on="0"/>
        <pt x="210" y="-100" on="0"/>
        <pt x="172" y="-133" on="1"/>
        <pt x="134" y="-91" on="1"/>
        <pt x="157" y="-70" on="0"/>
        <pt x="185" y="-33" on="0"/>
        <pt x="189" y="-10" on="1"/>
        <pt x="160" y="-9" on="0"/>
        <pt x="128" y="26" on="0"/>
        <pt x="128" y="54" on="1"/>
        <pt x="128" y="83" on="0"/>
        <pt x="164" y="118" on="0"/>
      </contour>
    </TTGlyph>
    <TTGlyph name="copyright" xMin="8" yMin="11" xMax="440" yMax="501">
      <contour>
        <pt x="298" y="336" on="1"/>
        <pt x="270" y="348" on="0"/>
        <pt x="237" y="348" on="1"/>
        <pt x="199" y="348" on="0"/>
        <pt x="168" y="310" on="0"/>
        <pt x="168" y="259" on="1"/>
        <pt x="168" y="208" on="0"/>
        <pt x="199" y="170" on="0"/>
        <pt x="237" y="170" on="1"/>
        <pt x="265" y="170" on="0"/>
        <pt x="301" y="181" on="1"/>
        <pt x="314" y="136" on="1"/>
        <pt x="271" y="120" on="0"/>
        <pt x="234" y="120" on="1"/>
        <pt x="171" y="120" on="0"/>
        <pt x="112" y="196" on="0"/>
        <pt x="112" y="258" on="1"/>
        <pt x="112" y="321" on="0"/>
        <pt x="171" y="397" on="0"/>
        <pt x="234" y="397" on="1"/>
        <pt x="276" y="397" on="0"/>
        <pt x="314" y="381" on="1"/>
      </contour>
      <contour>
        <pt x="224" y="501" on="1"/>
        <pt x="280" y="501" on="0"/>
        <pt x="379" y="446" on="0"/>
        <pt x="440" y="335" on="0"/>
        <pt x="440" y="256" on="1"/>
        <pt x="440" y="178" on="0"/>
        <pt x="379" y="67" on="0"/>
        <pt x="280" y="11" on="0"/>
        <pt x="224" y="11" on="1"/>
        <pt x="168" y="11" on="0"/>
        <pt x="69" y="67" on="0"/>
        <pt x="8" y="178" on="0"/>
        <pt x="8" y="256" on="1"/>
        <pt x="8" y="335" on="0"/>
        <pt x="69" y="446" on="0"/>
        <pt x="168" y="501" on="0"/>
      </contour>
      <contour>
        <pt x="224" y="59" on="1"/>
        <pt x="308" y="59" on="0"/>
        <pt x="388" y="172" on="0"/>
        <pt x="388" y="256" on="1"/>
        <pt x="388" y="339" on="0"/>
        <pt x="308" y="453" on="0"/>
        <pt x="224" y="453" on="1"/>
        <pt x="140" y="453" on="0"/>
        <pt x="60" y="339" on="0"/>
        <pt x="60" y="256" on="1"/>
        <pt x="60" y="172" on="0"/>
        <pt x="140" y="59" on="0"/>
      </contour>
    </TTGlyph>
    <TTGlyph name="currency" xMin="43" yMin="57" xMax="405" yMax="519">
      <contour>
        <pt x="43" y="95" on="1"/>
        <pt x="95" y="165" on="1"/>
        <pt x="71" y="189" on="0"/>
        <pt x="46" y="252" on="0"/>
        <pt x="46" y="288" on="1"/>
        <pt x="46" y="324" on="0"/>
        <pt x="72" y="387" on="0"/>
        <pt x="95" y="410" on="1"/>
        <pt x="43" y="481" on="1"/>
        <pt x="95" y="519" on="1"/>
        <pt x="147" y="447" on="1"/>
        <pt x="183" y="464" on="0"/>
        <pt x="224" y="464" on="1"/>
        <pt x="265" y="464" on="0"/>
        <pt x="301" y="447" on="1"/>
        <pt x="353" y="519" on="1"/>
        <pt x="405" y="481" on="1"/>
        <pt x="353" y="410" on="1"/>
        <pt x="376" y="387" on="0"/>
        <pt x="402" y="324" on="0"/>
        <pt x="402" y="288" on="1"/>
        <pt x="402" y="252" on="0"/>
        <pt x="377" y="189" on="0"/>
        <pt x="353" y="165" on="1"/>
        <pt x="405" y="95" on="1"/>
        <pt x="353" y="57" on="1"/>
        <pt x="301" y="128" on="1"/>
        <pt x="264" y="112" on="0"/>
        <pt x="224" y="112" on="1"/>
        <pt x="184" y="112" on="0"/>
        <pt x="147" y="128" on="1"/>
        <pt x="95" y="57" on="1"/>
      </contour>
      <contour>
        <pt x="224" y="176" on="1"/>
        <pt x="271" y="176" on="0"/>
        <pt x="334" y="241" on="0"/>
        <pt x="334" y="288" on="1"/>
        <pt x="334" y="335" on="0"/>
        <pt x="271" y="400" on="0"/>
        <pt x="224" y="400" on="1"/>
        <pt x="177" y="400" on="0"/>
        <pt x="114" y="335" on="0"/>
        <pt x="114" y="288" on="1"/>
        <pt x="114" y="241" on="0"/>
        <pt x="177" y="176" on="0"/>
      </contour>
    </TTGlyph>
    <TTGlyph name="d" xMin="51" yMin="-8" xMax="390" yMax="640">
      <contour>
        <pt x="215" y="-8" on="1"/>
        <pt x="133" y="-8" on="0"/>
        <pt x="51" y="120" on="0"/>
        <pt x="51" y="224" on="1"/>
        <pt x="51" y="328" on="0"/>
        <pt x="134" y="456" on="0"/>
        <pt x="216" y="456" on="1"/>
        <pt x="248" y="456" on="0"/>
        <pt x="298" y="438" on="0"/>
        <pt x="316" y="421" on="1"/>
        <pt x="316" y="640" on="1"/>
        <pt x="388" y="640" on="1"/>
        <pt x="388" y="64" on="1"/>
        <pt x="390" y="0" on="1"/>
        <pt x="329" y="0" on="1"/>
        <pt x="324" y="36" on="1"/>
        <pt x="305" y="15" on="0"/>
        <pt x="250" y="-8" on="0"/>
      </contour>
      <contour>
        <pt x="224" y="56" on="1"/>
        <pt x="254" y="56" on="0"/>
        <pt x="301" y="77" on="0"/>
        <pt x="316" y="99" on="1"/>
        <pt x="316" y="350" on="1"/>
        <pt x="288" y="392" on="0"/>
        <pt x="224" y="392" on="1"/>
        <pt x="189" y="392" on="0"/>
        <pt x="148" y="361" on="0"/>
        <pt x="129" y="289" on="0"/>
        <pt x="129" y="224" on="1"/>
        <pt x="129" y="160" on="0"/>
        <pt x="148" y="87" on="0"/>
        <pt x="189" y="56" on="0"/>
      </contour>
    </TTGlyph>
    <TTGlyph name="dagger" xMin="64" yMin="0" xMax="384" yMax="640">
      <contour>
        <pt x="258" y="458" on="1"/>
        <pt x="384" y="458" on="1"/>
        <pt x="384" y="394" on="1"/>
        <pt x="258" y="394" on="1"/>
        <pt x="258" y="0" on="1"/>
        <pt x="190" y="0" on="1"/>
        <pt x="190" y="394" on="1"/>
        <pt x="64" y="394" on="1"/>
        <pt x="64" y="458" on="1"/>
        <pt x="190" y="458" on="1"/>
        <pt x="190" y="640" on="1"/>
        <pt x="258" y="640" on="1"/>
      </contour>
    </TTGlyph>
    <TTGlyph name="daggerdbl" xMin="64" yMin="0" xMax="384" yMax="640">
      <contour>
        <pt x="258" y="458" on="1"/>
        <pt x="384" y="458" on="1"/>
        <pt x="384" y="394" on="1"/>
        <pt x="258" y="394" on="1"/>
        <pt x="258" y="246" on="1"/>
        <pt x="384" y="246" on="1"/>
        <pt x="384" y="182" on="1"/>
        <pt x="258" y="182" on="1"/>
        <pt x="258" y="0" on="1"/>
        <pt x="190" y="0" on="1"/>
        <pt x="190" y="182" on="1"/>
        <pt x="64" y="182" on="1"/>
        <pt x="64" y="246" on="1"/>
        <pt x="190" y="246" on="1"/>
        <pt x="190" y="394" on="1"/>
        <pt x="64" y="394" on="1"/>
        <pt x="64" y="458" on="1"/>
        <pt x="190" y="458" on="1"/>
        <pt x="190" y="640" on="1"/>
        <pt x="258" y="640" on="1"/>
      </contour>
    </TTGlyph>
    <TTGlyph name="dcaron" xMin="21" yMin="-8" xMax="480" yMax="640">
      <component glyphName="d" x="-30" y="0" flags="0x0"/>
      <component glyphName="uni0315" x="492" y="0" flags="0x0"/>
    </TTGlyph>
    <TTGlyph name="dcroat" xMin="51" yMin="-8" xMax="438" yMax="640">
      <component glyphName="d" x="0" y="0" flags="0x0"/>
      <component glyphName="uni0335" x="534" y="310" flags="0x4"/>
    </TTGlyph>
    <TTGlyph name="degree" xMin="119" yMin="377" xMax="393" yMax="647">
      <contour>
        <pt x="256" y="647" on="1"/>
        <pt x="295" y="647" on="0"/>
        <pt x="358" y="610" on="0"/>
        <pt x="393" y="548" on="0"/>
        <pt x="393" y="512" on="1"/>
        <pt x="393" y="476" on="0"/>
        <pt x="358" y="414" on="0"/>
        <pt x="295" y="377" on="0"/>
        <pt x="256" y="377" on="1"/>
        <pt x="217" y="377" on="0"/>
        <pt x="154" y="414" on="0"/>
        <pt x="119" y="476" on="0"/>
        <pt x="119" y="512" on="1"/>
        <pt x="119" y="548" on="0"/>
        <pt x="154" y="610" on="0"/>
        <pt x="217" y="647" on="0"/>
      </contour>
      <contour>
        <pt x="256" y="433" on="1"/>
        <pt x="295" y="433" on="0"/>
        <pt x="330" y="481" on="0"/>
        <pt x="330" y="512" on="1"/>
        <pt x="330" y="542" on="0"/>
        <pt x="295" y="591" on="0"/>
        <pt x="256" y="591" on="1"/>
        <pt x="217" y="591" on="0"/>
        <pt x="182" y="542" on="0"/>
        <pt x="182" y="512" on="1"/>
        <pt x="182" y="481" on="0"/>
        <pt x="217" y="433" on="0"/>
      </contour>
    </TTGlyph>
    <TTGlyph name="delta" xMin="50" yMin="-13" xMax="398" yMax="642">
      <contour>
        <pt x="221" y="-13" on="1"/>
        <pt x="162" y="-13" on="0"/>
        <pt x="85" y="44" on="0"/>
        <pt x="50" y="131" on="0"/>
        <pt x="50" y="177" on="1"/>
        <pt x="50" y="247" on="0"/>
        <pt x="121" y="360" on="0"/>
        <pt x="184" y="396" on="1"/>
        <pt x="151" y="421" on="0"/>
        <pt x="117" y="478" on="0"/>
        <pt x="117" y="518" on="1"/>
        <pt x="117" y="572" on="0"/>
        <pt x="193" y="642" on="0"/>
        <pt x="278" y="642" on="1"/>
        <pt x="323" y="642" on="0"/>
        <pt x="384" y="635" on="1"/>
        <pt x="378" y="573" on="1"/>
        <pt x="315" y="578" on="0"/>
        <pt x="278" y="578" on="1"/>
        <pt x="231" y="578" on="0"/>
        <pt x="192" y="544" on="0"/>
        <pt x="192" y="516" on="1"/>
        <pt x="192" y="492" on="0"/>
        <pt x="218" y="457" on="0"/>
        <pt x="257" y="429" on="1"/>
        <pt x="317" y="386" on="0"/>
        <pt x="398" y="276" on="0"/>
        <pt x="398" y="192" on="1"/>
        <pt x="398" y="139" on="0"/>
        <pt x="362" y="46" on="0"/>
        <pt x="282" y="-13" on="0"/>
      </contour>
      <contour>
        <pt x="221" y="51" on="1"/>
        <pt x="272" y="51" on="0"/>
        <pt x="324" y="122" on="0"/>
        <pt x="324" y="192" on="1"/>
        <pt x="324" y="248" on="0"/>
        <pt x="277" y="328" on="0"/>
        <pt x="240" y="357" on="1"/>
        <pt x="175" y="320" on="0"/>
        <pt x="125" y="236" on="0"/>
        <pt x="125" y="176" on="1"/>
        <pt x="125" y="118" on="0"/>
        <pt x="175" y="51" on="0"/>
      </contour>
    </TTGlyph>
    <TTGlyph name="diamond" xMin="64" yMin="80" xMax="384" yMax="456">
      <contour>
        <pt x="202" y="456" on="1"/>
        <pt x="246" y="456" on="1"/>
        <pt x="384" y="284" on="1"/>
        <pt x="384" y="252" on="1"/>
        <pt x="246" y="80" on="1"/>
        <pt x="202" y="80" on="1"/>
        <pt x="64" y="252" on="1"/>
        <pt x="64" y="284" on="1"/>
      </contour>
    </TTGlyph>
    <TTGlyph name="dieresis" xMin="77" yMin="534" xMax="371" yMax="648">
      <component glyphName="uni0308" x="448" y="0" flags="0x0"/>
    </TTGlyph>
    <TTGlyph name="dieresistonos" xMin="58" yMin="512" xMax="390" yMax="704">
      <contour>
        <pt x="276" y="704" on="1"/>
        <pt x="246" y="512" on="1"/>
        <pt x="182" y="512" on="1"/>
        <pt x="192" y="704" on="1"/>
      </contour>
      <contour>
        <pt x="96" y="650" on="1"/>
        <pt x="113" y="650" on="0"/>
        <pt x="134" y="618" on="0"/>
        <pt x="134" y="586" on="1"/>
        <pt x="134" y="554" on="0"/>
        <pt x="113" y="522" on="0"/>
        <pt x="96" y="522" on="1"/>
        <pt x="79" y="522" on="0"/>
        <pt x="58" y="554" on="0"/>
        <pt x="58" y="586" on="1"/>
        <pt x="58" y="618" on="0"/>
        <pt x="79" y="650" on="0"/>
      </contour>
      <contour>
        <pt x="352" y="650" on="1"/>
        <pt x="369" y="650" on="0"/>
        <pt x="390" y="618" on="0"/>
        <pt x="390" y="586" on="1"/>
        <pt x="390" y="554" on="0"/>
        <pt x="369" y="522" on="0"/>
        <pt x="352" y="522" on="1"/>
        <pt x="335" y="522" on="0"/>
        <pt x="314" y="554" on="0"/>
        <pt x="314" y="586" on="1"/>
        <pt x="314" y="618" on="0"/>
        <pt x="335" y="650" on="0"/>
      </contour>
    </TTGlyph>
    <TTGlyph name="divide" xMin="24" yMin="62" xMax="424" yMax="514">
      <contour>
        <pt x="224" y="190" on="1"/>
        <pt x="251" y="190" on="0"/>
        <pt x="288" y="156" on="0"/>
        <pt x="288" y="126" on="1"/>
        <pt x="288" y="96" on="0"/>
        <pt x="252" y="62" on="0"/>
        <pt x="224" y="62" on="1"/>
        <pt x="196" y="62" on="0"/>
        <pt x="160" y="96" on="0"/>
        <pt x="160" y="126" on="1"/>
        <pt x="160" y="156" on="0"/>
        <pt x="197" y="190" on="0"/>
      </contour>
      <contour>
        <pt x="424" y="320" on="1"/>
        <pt x="424" y="256" on="1"/>
        <pt x="24" y="256" on="1"/>
        <pt x="24" y="320" on="1"/>
      </contour>
      <contour>
        <pt x="224" y="514" on="1"/>
        <pt x="251" y="514" on="0"/>
        <pt x="288" y="480" on="0"/>
        <pt x="288" y="450" on="1"/>
        <pt x="288" y="420" on="0"/>
        <pt x="252" y="386" on="0"/>
        <pt x="224" y="386" on="1"/>
        <pt x="196" y="386" on="0"/>
        <pt x="160" y="420" on="0"/>
        <pt x="160" y="450" on="1"/>
        <pt x="160" y="480" on="0"/>
        <pt x="197" y="514" on="0"/>
      </contour>
    </TTGlyph>
    <TTGlyph name="dkshade" xMin="0" yMin="-192" xMax="384" yMax="832">
      <contour>
        <pt x="64" y="64" on="1"/>
        <pt x="64" y="0" on="1"/>
        <pt x="0" y="0" on="1"/>
        <pt x="0" y="64" on="1"/>
      </contour>
      <contour>
        <pt x="64" y="0" on="1"/>
        <pt x="64" y="-64" on="1"/>
        <pt x="0" y="-64" on="1"/>
        <pt x="0" y="0" on="1"/>
      </contour>
      <contour>
        <pt x="64" y="-64" on="1"/>
        <pt x="64" y="-128" on="1"/>
        <pt x="0" y="-128" on="1"/>
        <pt x="0" y="-64" on="1"/>
      </contour>
      <contour>
        <pt x="128" y="-64" on="1"/>
        <pt x="128" y="-128" on="1"/>
        <pt x="64" y="-128" on="1"/>
        <pt x="64" y="-64" on="1"/>
      </contour>
      <contour>
        <pt x="192" y="-64" on="1"/>
        <pt x="192" y="-128" on="1"/>
        <pt x="128" y="-128" on="1"/>
        <pt x="128" y="-64" on="1"/>
      </contour>
      <contour>
        <pt x="256" y="-64" on="1"/>
        <pt x="256" y="-128" on="1"/>
        <pt x="192" y="-128" on="1"/>
        <pt x="192" y="-64" on="1"/>
      </contour>
      <contour>
        <pt x="320" y="-64" on="1"/>
        <pt x="320" y="-128" on="1"/>
        <pt x="256" y="-128" on="1"/>
        <pt x="256" y="-64" on="1"/>
      </contour>
      <contour>
        <pt x="384" y="-64" on="1"/>
        <pt x="384" y="-128" on="1"/>
        <pt x="320" y="-128" on="1"/>
        <pt x="320" y="-64" on="1"/>
      </contour>
      <contour>
        <pt x="384" y="-128" on="1"/>
        <pt x="384" y="-192" on="1"/>
        <pt x="320" y="-192" on="1"/>
        <pt x="320" y="-128" on="1"/>
      </contour>
      <contour>
        <pt x="256" y="-128" on="1"/>
        <pt x="256" y="-192" on="1"/>
        <pt x="192" y="-192" on="1"/>
        <pt x="192" y="-128" on="1"/>
      </contour>
      <contour>
        <pt x="128" y="-128" on="1"/>
        <pt x="128" y="-192" on="1"/>
        <pt x="64" y="-192" on="1"/>
        <pt x="64" y="-128" on="1"/>
      </contour>
      <contour>
        <pt x="128" y="64" on="1"/>
        <pt x="128" y="0" on="1"/>
        <pt x="64" y="0" on="1"/>
        <pt x="64" y="64" on="1"/>
      </contour>
      <contour>
        <pt x="192" y="64" on="1"/>
        <pt x="192" y="0" on="1"/>
        <pt x="128" y="0" on="1"/>
        <pt x="128" y="64" on="1"/>
      </contour>
      <contour>
        <pt x="256" y="64" on="1"/>
        <pt x="256" y="0" on="1"/>
        <pt x="192" y="0" on="1"/>
        <pt x="192" y="64" on="1"/>
      </contour>
      <contour>
        <pt x="320" y="64" on="1"/>
        <pt x="320" y="0" on="1"/>
        <pt x="256" y="0" on="1"/>
        <pt x="256" y="64" on="1"/>
      </contour>
      <contour>
        <pt x="384" y="64" on="1"/>
        <pt x="384" y="0" on="1"/>
        <pt x="320" y="0" on="1"/>
        <pt x="320" y="64" on="1"/>
      </contour>
      <contour>
        <pt x="320" y="0" on="1"/>
        <pt x="320" y="-64" on="1"/>
        <pt x="256" y="-64" on="1"/>
        <pt x="256" y="0" on="1"/>
      </contour>
      <contour>
        <pt x="192" y="0" on="1"/>
        <pt x="192" y="-64" on="1"/>
        <pt x="128" y="-64" on="1"/>
        <pt x="128" y="0" on="1"/>
      </contour>
      <contour>
        <pt x="64" y="192" on="1"/>
        <pt x="64" y="128" on="1"/>
        <pt x="0" y="128" on="1"/>
        <pt x="0" y="192" on="1"/>
      </contour>
      <contour>
        <pt x="64" y="256" on="1"/>
        <pt x="64" y="192" on="1"/>
        <pt x="0" y="192" on="1"/>
        <pt x="0" y="256" on="1"/>
      </contour>
      <contour>
        <pt x="64" y="320" on="1"/>
        <pt x="64" y="256" on="1"/>
        <pt x="0" y="256" on="1"/>
        <pt x="0" y="320" on="1"/>
      </contour>
      <contour>
        <pt x="128" y="320" on="1"/>
        <pt x="128" y="256" on="1"/>
        <pt x="64" y="256" on="1"/>
        <pt x="64" y="320" on="1"/>
      </contour>
      <contour>
        <pt x="128" y="384" on="1"/>
        <pt x="128" y="320" on="1"/>
        <pt x="64" y="320" on="1"/>
        <pt x="64" y="384" on="1"/>
      </contour>
      <contour>
        <pt x="128" y="448" on="1"/>
        <pt x="128" y="384" on="1"/>
        <pt x="64" y="384" on="1"/>
        <pt x="64" y="448" on="1"/>
      </contour>
      <contour>
        <pt x="64" y="448" on="1"/>
        <pt x="64" y="384" on="1"/>
        <pt x="0" y="384" on="1"/>
        <pt x="0" y="448" on="1"/>
      </contour>
      <contour>
        <pt x="64" y="512" on="1"/>
        <pt x="64" y="448" on="1"/>
        <pt x="0" y="448" on="1"/>
        <pt x="0" y="512" on="1"/>
      </contour>
      <contour>
        <pt x="64" y="576" on="1"/>
        <pt x="64" y="512" on="1"/>
        <pt x="0" y="512" on="1"/>
        <pt x="0" y="576" on="1"/>
      </contour>
      <contour>
        <pt x="128" y="576" on="1"/>
        <pt x="128" y="512" on="1"/>
        <pt x="64" y="512" on="1"/>
        <pt x="64" y="576" on="1"/>
      </contour>
      <contour>
        <pt x="128" y="704" on="1"/>
        <pt x="128" y="640" on="1"/>
        <pt x="64" y="640" on="1"/>
        <pt x="64" y="704" on="1"/>
      </contour>
      <contour>
        <pt x="64" y="704" on="1"/>
        <pt x="64" y="640" on="1"/>
        <pt x="0" y="640" on="1"/>
        <pt x="0" y="704" on="1"/>
      </contour>
      <contour>
        <pt x="64" y="768" on="1"/>
        <pt x="64" y="704" on="1"/>
        <pt x="0" y="704" on="1"/>
        <pt x="0" y="768" on="1"/>
      </contour>
      <contour>
        <pt x="64" y="832" on="1"/>
        <pt x="64" y="768" on="1"/>
        <pt x="0" y="768" on="1"/>
        <pt x="0" y="832" on="1"/>
      </contour>
      <contour>
        <pt x="128" y="832" on="1"/>
        <pt x="128" y="768" on="1"/>
        <pt x="64" y="768" on="1"/>
        <pt x="64" y="832" on="1"/>
      </contour>
      <contour>
        <pt x="192" y="832" on="1"/>
        <pt x="192" y="768" on="1"/>
        <pt x="128" y="768" on="1"/>
        <pt x="128" y="832" on="1"/>
      </contour>
      <contour>
        <pt x="256" y="832" on="1"/>
        <pt x="256" y="768" on="1"/>
        <pt x="192" y="768" on="1"/>
        <pt x="192" y="832" on="1"/>
      </contour>
      <contour>
        <pt x="320" y="832" on="1"/>
        <pt x="320" y="768" on="1"/>
        <pt x="256" y="768" on="1"/>
        <pt x="256" y="832" on="1"/>
      </contour>
      <contour>
        <pt x="384" y="832" on="1"/>
        <pt x="384" y="768" on="1"/>
        <pt x="320" y="768" on="1"/>
        <pt x="320" y="832" on="1"/>
      </contour>
      <contour>
        <pt x="192" y="768" on="1"/>
        <pt x="192" y="704" on="1"/>
        <pt x="128" y="704" on="1"/>
        <pt x="128" y="768" on="1"/>
      </contour>
      <contour>
        <pt x="192" y="704" on="1"/>
        <pt x="192" y="640" on="1"/>
        <pt x="128" y="640" on="1"/>
        <pt x="128" y="704" on="1"/>
      </contour>
      <contour>
        <pt x="256" y="704" on="1"/>
        <pt x="256" y="640" on="1"/>
        <pt x="192" y="640" on="1"/>
        <pt x="192" y="704" on="1"/>
      </contour>
      <contour>
        <pt x="320" y="768" on="1"/>
        <pt x="320" y="704" on="1"/>
        <pt x="256" y="704" on="1"/>
        <pt x="256" y="768" on="1"/>
      </contour>
      <contour>
        <pt x="320" y="704" on="1"/>
        <pt x="320" y="640" on="1"/>
        <pt x="256" y="640" on="1"/>
        <pt x="256" y="704" on="1"/>
      </contour>
      <contour>
        <pt x="384" y="704" on="1"/>
        <pt x="384" y="640" on="1"/>
        <pt x="320" y="640" on="1"/>
        <pt x="320" y="704" on="1"/>
      </contour>
      <contour>
        <pt x="192" y="576" on="1"/>
        <pt x="192" y="512" on="1"/>
        <pt x="128" y="512" on="1"/>
        <pt x="128" y="576" on="1"/>
      </contour>
      <contour>
        <pt x="256" y="576" on="1"/>
        <pt x="256" y="512" on="1"/>
        <pt x="192" y="512" on="1"/>
        <pt x="192" y="576" on="1"/>
      </contour>
      <contour>
        <pt x="320" y="576" on="1"/>
        <pt x="320" y="512" on="1"/>
        <pt x="256" y="512" on="1"/>
        <pt x="256" y="576" on="1"/>
      </contour>
      <contour>
        <pt x="384" y="576" on="1"/>
        <pt x="384" y="512" on="1"/>
        <pt x="320" y="512" on="1"/>
        <pt x="320" y="576" on="1"/>
      </contour>
      <contour>
        <pt x="384" y="448" on="1"/>
        <pt x="384" y="384" on="1"/>
        <pt x="320" y="384" on="1"/>
        <pt x="320" y="448" on="1"/>
      </contour>
      <contour>
        <pt x="320" y="448" on="1"/>
        <pt x="320" y="384" on="1"/>
        <pt x="256" y="384" on="1"/>
        <pt x="256" y="448" on="1"/>
      </contour>
      <contour>
        <pt x="256" y="448" on="1"/>
        <pt x="256" y="384" on="1"/>
        <pt x="192" y="384" on="1"/>
        <pt x="192" y="448" on="1"/>
      </contour>
      <contour>
        <pt x="192" y="448" on="1"/>
        <pt x="192" y="384" on="1"/>
        <pt x="128" y="384" on="1"/>
        <pt x="128" y="448" on="1"/>
      </contour>
      <contour>
        <pt x="192" y="512" on="1"/>
        <pt x="192" y="448" on="1"/>
        <pt x="128" y="448" on="1"/>
        <pt x="128" y="512" on="1"/>
      </contour>
      <contour>
        <pt x="320" y="512" on="1"/>
        <pt x="320" y="448" on="1"/>
        <pt x="256" y="448" on="1"/>
        <pt x="256" y="512" on="1"/>
      </contour>
      <contour>
        <pt x="128" y="640" on="1"/>
        <pt x="128" y="576" on="1"/>
        <pt x="64" y="576" on="1"/>
        <pt x="64" y="640" on="1"/>
      </contour>
      <contour>
        <pt x="256" y="640" on="1"/>
        <pt x="256" y="576" on="1"/>
        <pt x="192" y="576" on="1"/>
        <pt x="192" y="640" on="1"/>
      </contour>
      <contour>
        <pt x="384" y="640" on="1"/>
        <pt x="384" y="576" on="1"/>
        <pt x="320" y="576" on="1"/>
        <pt x="320" y="640" on="1"/>
      </contour>
      <contour>
        <pt x="384" y="320" on="1"/>
        <pt x="384" y="256" on="1"/>
        <pt x="320" y="256" on="1"/>
        <pt x="320" y="320" on="1"/>
      </contour>
      <contour>
        <pt x="384" y="384" on="1"/>
        <pt x="384" y="320" on="1"/>
        <pt x="320" y="320" on="1"/>
        <pt x="320" y="384" on="1"/>
      </contour>
      <contour>
        <pt x="320" y="320" on="1"/>
        <pt x="320" y="256" on="1"/>
        <pt x="256" y="256" on="1"/>
        <pt x="256" y="320" on="1"/>
      </contour>
      <contour>
        <pt x="256" y="384" on="1"/>
        <pt x="256" y="320" on="1"/>
        <pt x="192" y="320" on="1"/>
        <pt x="192" y="384" on="1"/>
      </contour>
      <contour>
        <pt x="256" y="320" on="1"/>
        <pt x="256" y="256" on="1"/>
        <pt x="192" y="256" on="1"/>
        <pt x="192" y="320" on="1"/>
      </contour>
      <contour>
        <pt x="192" y="320" on="1"/>
        <pt x="192" y="256" on="1"/>
        <pt x="128" y="256" on="1"/>
        <pt x="128" y="320" on="1"/>
      </contour>
      <contour>
        <pt x="192" y="256" on="1"/>
        <pt x="192" y="192" on="1"/>
        <pt x="128" y="192" on="1"/>
        <pt x="128" y="256" on="1"/>
      </contour>
      <contour>
        <pt x="320" y="256" on="1"/>
        <pt x="320" y="192" on="1"/>
        <pt x="256" y="192" on="1"/>
        <pt x="256" y="256" on="1"/>
      </contour>
      <contour>
        <pt x="384" y="192" on="1"/>
        <pt x="384" y="128" on="1"/>
        <pt x="320" y="128" on="1"/>
        <pt x="320" y="192" on="1"/>
      </contour>
      <contour>
        <pt x="320" y="192" on="1"/>
        <pt x="320" y="128" on="1"/>
        <pt x="256" y="128" on="1"/>
        <pt x="256" y="192" on="1"/>
      </contour>
      <contour>
        <pt x="256" y="192" on="1"/>
        <pt x="256" y="128" on="1"/>
        <pt x="192" y="128" on="1"/>
        <pt x="192" y="192" on="1"/>
      </contour>
      <contour>
        <pt x="192" y="192" on="1"/>
        <pt x="192" y="128" on="1"/>
        <pt x="128" y="128" on="1"/>
        <pt x="128" y="192" on="1"/>
      </contour>
      <contour>
        <pt x="128" y="192" on="1"/>
        <pt x="128" y="128" on="1"/>
        <pt x="64" y="128" on="1"/>
        <pt x="64" y="192" on="1"/>
      </contour>
      <contour>
        <pt x="128" y="128" on="1"/>
        <pt x="128" y="64" on="1"/>
        <pt x="64" y="64" on="1"/>
        <pt x="64" y="128" on="1"/>
      </contour>
      <contour>
        <pt x="256" y="128" on="1"/>
        <pt x="256" y="64" on="1"/>
        <pt x="192" y="64" on="1"/>
        <pt x="192" y="128" on="1"/>
      </contour>
      <contour>
        <pt x="384" y="128" on="1"/>
        <pt x="384" y="64" on="1"/>
        <pt x="320" y="64" on="1"/>
        <pt x="320" y="128" on="1"/>
      </contour>
    </TTGlyph>
    <TTGlyph name="dkshade.layer0" xMin="0" yMin="-192" xMax="448" yMax="832">
      <contour>
        <pt x="448" y="832" on="1"/>
        <pt x="448" y="-192" on="1"/>
        <pt x="0" y="-192" on="1"/>
        <pt x="0" y="832" on="1"/>
      </contour>
    </TTGlyph>
    <TTGlyph name="dkshade.varAlt01" xMin="0" yMin="-192" xMax="448" yMax="832">
      <contour>
        <pt x="448" y="832" on="1"/>
        <pt x="448" y="-192" on="1"/>
        <pt x="0" y="-192" on="1"/>
        <pt x="0" y="832" on="1"/>
      </contour>
    </TTGlyph>
    <TTGlyph name="dnblock" xMin="0" yMin="-192" xMax="448" yMax="320">
      <contour>
        <pt x="0" y="-192" on="1"/>
        <pt x="0" y="320" on="1"/>
        <pt x="448" y="320" on="1"/>
        <pt x="448" y="-192" on="1"/>
      </contour>
    </TTGlyph>
    <TTGlyph name="dollar" xMin="51" yMin="-74" xMax="391" yMax="650">
      <contour>
        <pt x="195" y="-8" on="1"/>
        <pt x="120" y="-8" on="0"/>
        <pt x="51" y="18" on="1"/>
        <pt x="70" y="84" on="1"/>
        <pt x="103" y="71" on="0"/>
        <pt x="163" y="58" on="0"/>
        <pt x="198" y="58" on="1"/>
        <pt x="267" y="58" on="0"/>
        <pt x="319" y="109" on="0"/>
        <pt x="319" y="151" on="1"/>
        <pt x="319" y="181" on="0"/>
        <pt x="290" y="219" on="0"/>
        <pt x="246" y="240" on="0"/>
        <pt x="208" y="253" on="1"/>
        <pt x="160" y="270" on="0"/>
        <pt x="101" y="301" on="0"/>
        <pt x="59" y="366" on="0"/>
        <pt x="59" y="420" on="1"/>
        <pt x="59" y="467" on="0"/>
        <pt x="104" y="542" on="0"/>
        <pt x="192" y="584" on="0"/>
        <pt x="256" y="584" on="1"/>
        <pt x="286" y="584" on="0"/>
        <pt x="351" y="575" on="0"/>
        <pt x="376" y="566" on="1"/>
        <pt x="360" y="500" on="1"/>
        <pt x="308" y="518" on="0"/>
        <pt x="256" y="518" on="1"/>
        <pt x="187" y="518" on="0"/>
        <pt x="131" y="467" on="0"/>
        <pt x="131" y="419" on="1"/>
        <pt x="131" y="387" on="0"/>
        <pt x="162" y="348" on="0"/>
        <pt x="207" y="327" on="0"/>
        <pt x="246" y="314" on="1"/>
        <pt x="293" y="299" on="0"/>
        <pt x="351" y="270" on="0"/>
        <pt x="391" y="210" on="0"/>
        <pt x="391" y="160" on="1"/>
        <pt x="391" y="80" on="0"/>
        <pt x="291" y="-8" on="0"/>
      </contour>
      <contour>
        <pt x="192" y="650" on="1"/>
        <pt x="256" y="650" on="1"/>
        <pt x="256" y="-74" on="1"/>
        <pt x="192" y="-74" on="1"/>
      </contour>
    </TTGlyph>
    <TTGlyph name="dotaccent" xMin="165" yMin="532" xMax="283" yMax="650">
      <component glyphName="uni0307" x="448" y="0" flags="0x0"/>
    </TTGlyph>
    <TTGlyph name="dotlessi" xMin="74" yMin="0" xMax="270" yMax="448">
      <contour>
        <pt x="198" y="382" on="1"/>
        <pt x="74" y="390" on="1"/>
        <pt x="74" y="448" on="1"/>
        <pt x="270" y="448" on="1"/>
        <pt x="270" y="0" on="1"/>
        <pt x="198" y="0" on="1"/>
      </contour>
    </TTGlyph>
    <TTGlyph name="dotmath" xMin="160" yMin="224" xMax="288" yMax="352">
      <component glyphName="period" x="32" y="234" flags="0x4"/>
    </TTGlyph>
    <TTGlyph name="e" xMin="50" yMin="-13" xMax="401" yMax="461">
      <contour>
        <pt x="242" y="-13" on="1"/>
        <pt x="139" y="-13" on="0"/>
        <pt x="50" y="116" on="0"/>
        <pt x="50" y="224" on="1"/>
        <pt x="50" y="331" on="0"/>
        <pt x="133" y="461" on="0"/>
        <pt x="224" y="461" on="1"/>
        <pt x="284" y="461" on="0"/>
        <pt x="365" y="398" on="0"/>
        <pt x="401" y="281" on="0"/>
        <pt x="395" y="201" on="1"/>
        <pt x="126" y="201" on="1"/>
        <pt x="128" y="145" on="0"/>
        <pt x="153" y="80" on="0"/>
        <pt x="203" y="51" on="0"/>
        <pt x="246" y="51" on="1"/>
        <pt x="274" y="51" on="0"/>
        <pt x="329" y="63" on="0"/>
        <pt x="361" y="74" on="1"/>
        <pt x="375" y="16" on="1"/>
        <pt x="310" y="-13" on="0"/>
      </contour>
      <contour>
        <pt x="321" y="263" on="1"/>
        <pt x="319" y="332" on="0"/>
        <pt x="271" y="397" on="0"/>
        <pt x="224" y="397" on="1"/>
        <pt x="177" y="397" on="0"/>
        <pt x="131" y="335" on="0"/>
        <pt x="127" y="263" on="1"/>
      </contour>
    </TTGlyph>
    <TTGlyph name="eacute" xMin="50" yMin="-13" xMax="401" yMax="650">
      <component glyphName="e" x="0" y="0" flags="0x0"/>
      <component glyphName="acutecomb" x="448" y="0" flags="0x0"/>
    </TTGlyph>
    <TTGlyph name="ebreve" xMin="50" yMin="-13" xMax="401" yMax="640">
      <component glyphName="e" x="0" y="0" flags="0x0"/>
      <component glyphName="uni0306" x="448" y="0" flags="0x0"/>
    </TTGlyph>
    <TTGlyph name="ecaron" xMin="50" yMin="-13" xMax="401" yMax="643">
      <component glyphName="e" x="0" y="0" flags="0x0"/>
      <component glyphName="uni030C" x="448" y="0" flags="0x0"/>
    </TTGlyph>
    <TTGlyph name="ecircumflex" xMin="50" yMin="-13" xMax="401" yMax="650">
      <component glyphName="e" x="0" y="0" flags="0x0"/>
      <component glyphName="uni0302" x="448" y="0" flags="0x0"/>
    </TTGlyph>
    <TTGlyph name="edieresis" xMin="50" yMin="-13" xMax="401" yMax="648">
      <component glyphName="e" x="0" y="0" flags="0x0"/>
      <component glyphName="uni0308" x="448" y="0" flags="0x0"/>
    </TTGlyph>
    <TTGlyph name="edotaccent" xMin="50" yMin="-13" xMax="401" yMax="650">
      <component glyphName="e" x="0" y="0" flags="0x0"/>
      <component glyphName="uni0307" x="448" y="0" flags="0x0"/>
    </TTGlyph>
    <TTGlyph name="egrave" xMin="50" yMin="-13" xMax="401" yMax="650">
      <component glyphName="e" x="0" y="0" flags="0x0"/>
      <component glyphName="gravecomb" x="448" y="0" flags="0x0"/>
    </TTGlyph>
    <TTGlyph name="eight" xMin="32" yMin="-11" xMax="415" yMax="586">
      <contour>
        <pt x="224" y="-11" on="1"/>
        <pt x="164" y="-11" on="0"/>
        <pt x="77" y="31" on="0"/>
        <pt x="32" y="105" on="0"/>
        <pt x="32" y="152" on="1"/>
        <pt x="32" y="201" on="0"/>
        <pt x="83" y="279" on="0"/>
        <pt x="126" y="307" on="1"/>
        <pt x="89" y="337" on="0"/>
        <pt x="58" y="399" on="0"/>
        <pt x="58" y="435" on="1"/>
        <pt x="58" y="478" on="0"/>
        <pt x="101" y="547" on="0"/>
        <pt x="177" y="586" on="0"/>
        <pt x="224" y="586" on="1"/>
        <pt x="297" y="586" on="0"/>
        <pt x="390" y="499" on="0"/>
        <pt x="390" y="427" on="1"/>
        <pt x="390" y="388" on="0"/>
        <pt x="352" y="308" on="0"/>
        <pt x="312" y="276" on="1"/>
        <pt x="365" y="247" on="0"/>
        <pt x="415" y="183" on="0"/>
        <pt x="415" y="137" on="1"/>
        <pt x="415" y="98" on="0"/>
        <pt x="369" y="30" on="0"/>
        <pt x="283" y="-11" on="0"/>
      </contour>
      <contour>
        <pt x="224" y="53" on="1"/>
        <pt x="282" y="53" on="0"/>
        <pt x="341" y="105" on="0"/>
        <pt x="341" y="137" on="1"/>
        <pt x="341" y="158" on="0"/>
        <pt x="321" y="191" on="0"/>
        <pt x="265" y="230" on="0"/>
        <pt x="211" y="256" on="1"/>
        <pt x="207" y="258" on="0"/>
        <pt x="198" y="263" on="0"/>
        <pt x="193" y="265" on="1"/>
        <pt x="189" y="267" on="0"/>
        <pt x="181" y="272" on="0"/>
        <pt x="177" y="274" on="1"/>
        <pt x="136" y="248" on="0"/>
        <pt x="106" y="188" on="0"/>
        <pt x="106" y="152" on="1"/>
        <pt x="106" y="110" on="0"/>
        <pt x="164" y="53" on="0"/>
      </contour>
      <contour>
        <pt x="257" y="305" on="1"/>
        <pt x="289" y="333" on="0"/>
        <pt x="316" y="394" on="0"/>
        <pt x="316" y="429" on="1"/>
        <pt x="316" y="469" on="0"/>
        <pt x="271" y="522" on="0"/>
        <pt x="224" y="522" on="1"/>
        <pt x="176" y="522" on="0"/>
        <pt x="132" y="471" on="0"/>
        <pt x="132" y="434" on="1"/>
        <pt x="132" y="409" on="0"/>
        <pt x="150" y="372" on="0"/>
        <pt x="204" y="330" on="0"/>
      </contour>
    </TTGlyph>
    <TTGlyph name="eight.dnom" xMin="176" yMin="-198" xMax="400" yMax="134">
      <component glyphName="uni2078" x="128" y="-512" flags="0x4"/>
    </TTGlyph>
    <TTGlyph name="eight.numr" xMin="48" yMin="314" xMax="272" yMax="646">
      <component glyphName="uni2078" x="0" y="0" flags="0x0"/>
    </TTGlyph>
    <TTGlyph name="ellipsis" xMin="64" yMin="0" xMax="384" yMax="128">
      <contour>
        <pt x="128" y="128" on="1"/>
        <pt x="128" y="0" on="1"/>
        <pt x="64" y="0" on="1"/>
        <pt x="64" y="128" on="1"/>
      </contour>
      <contour>
        <pt x="256" y="128" on="1"/>
        <pt x="256" y="0" on="1"/>
        <pt x="192" y="0" on="1"/>
        <pt x="192" y="128" on="1"/>
      </contour>
      <contour>
        <pt x="384" y="128" on="1"/>
        <pt x="384" y="0" on="1"/>
        <pt x="320" y="0" on="1"/>
        <pt x="320" y="128" on="1"/>
      </contour>
    </TTGlyph>
    <TTGlyph name="emacron" xMin="50" yMin="-13" xMax="401" yMax="640">
      <component glyphName="e" x="0" y="0" flags="0x0"/>
      <component glyphName="uni0304" x="448" y="0" flags="0x0"/>
    </TTGlyph>
    <TTGlyph name="emdash" xMin="-10" yMin="256" xMax="458" yMax="320">
      <contour>
        <pt x="-10" y="256" on="1"/>
        <pt x="-10" y="320" on="1"/>
        <pt x="458" y="320" on="1"/>
        <pt x="458" y="256" on="1"/>
      </contour>
    </TTGlyph>
    <TTGlyph name="endash" xMin="84" yMin="256" xMax="364" yMax="320">
      <component glyphName="hyphen" x="0" y="0" flags="0x0"/>
    </TTGlyph>
    <TTGlyph name="eng" xMin="58" yMin="-196" xMax="388" yMax="452">
      <contour>
        <pt x="239" y="-136" on="1"/>
        <pt x="284" y="-117" on="0"/>
        <pt x="316" y="-66" on="0"/>
        <pt x="316" y="-13" on="1"/>
        <pt x="316" y="289" on="1"/>
        <pt x="316" y="342" on="0"/>
        <pt x="286" y="388" on="0"/>
        <pt x="247" y="388" on="1"/>
        <pt x="218" y="388" on="0"/>
        <pt x="158" y="356" on="0"/>
        <pt x="132" y="330" on="1"/>
        <pt x="132" y="0" on="1"/>
        <pt x="60" y="0" on="1"/>
        <pt x="60" y="383" on="1"/>
        <pt x="58" y="448" on="1"/>
        <pt x="124" y="448" on="1"/>
        <pt x="130" y="400" on="1"/>
        <pt x="158" y="424" on="0"/>
        <pt x="226" y="452" on="0"/>
        <pt x="261" y="452" on="1"/>
        <pt x="318" y="452" on="0"/>
        <pt x="388" y="382" on="0"/>
        <pt x="388" y="297" on="1"/>
        <pt x="388" y="-5" on="1"/>
        <pt x="388" y="-77" on="0"/>
        <pt x="334" y="-168" on="0"/>
        <pt x="268" y="-196" on="1"/>
      </contour>
    </TTGlyph>
    <TTGlyph name="eogonek" xMin="50" yMin="-197" xMax="401" yMax="461">
      <component glyphName="e" x="0" y="0" flags="0x0"/>
      <component glyphName="uni0328" x="395" y="0" flags="0x0"/>
    </TTGlyph>
    <TTGlyph name="epsilon" xMin="64" yMin="0" xMax="384" yMax="448">
      <contour>
        <pt x="320" y="64" on="1"/>
        <pt x="320" y="0" on="1"/>
        <pt x="256" y="0" on="1"/>
        <pt x="256" y="64" on="1"/>
      </contour>
      <contour>
        <pt x="256" y="64" on="1"/>
        <pt x="256" y="0" on="1"/>
        <pt x="192" y="0" on="1"/>
        <pt x="192" y="64" on="1"/>
      </contour>
      <contour>
        <pt x="192" y="64" on="1"/>
        <pt x="192" y="0" on="1"/>
        <pt x="128" y="0" on="1"/>
        <pt x="128" y="64" on="1"/>
      </contour>
      <contour>
        <pt x="128" y="128" on="1"/>
        <pt x="128" y="64" on="1"/>
        <pt x="64" y="64" on="1"/>
        <pt x="64" y="128" on="1"/>
      </contour>
      <contour>
        <pt x="128" y="192" on="1"/>
        <pt x="128" y="128" on="1"/>
        <pt x="64" y="128" on="1"/>
        <pt x="64" y="192" on="1"/>
      </contour>
      <contour>
        <pt x="128" y="320" on="1"/>
        <pt x="128" y="256" on="1"/>
        <pt x="64" y="256" on="1"/>
        <pt x="64" y="320" on="1"/>
      </contour>
      <contour>
        <pt x="128" y="384" on="1"/>
        <pt x="128" y="320" on="1"/>
        <pt x="64" y="320" on="1"/>
        <pt x="64" y="384" on="1"/>
      </contour>
      <contour>
        <pt x="192" y="448" on="1"/>
        <pt x="192" y="384" on="1"/>
        <pt x="128" y="384" on="1"/>
        <pt x="128" y="448" on="1"/>
      </contour>
      <contour>
        <pt x="256" y="448" on="1"/>
        <pt x="256" y="384" on="1"/>
        <pt x="192" y="384" on="1"/>
        <pt x="192" y="448" on="1"/>
      </contour>
      <contour>
        <pt x="320" y="448" on="1"/>
        <pt x="320" y="384" on="1"/>
        <pt x="256" y="384" on="1"/>
        <pt x="256" y="448" on="1"/>
      </contour>
      <contour>
        <pt x="192" y="256" on="1"/>
        <pt x="192" y="192" on="1"/>
        <pt x="128" y="192" on="1"/>
        <pt x="128" y="256" on="1"/>
      </contour>
      <contour>
        <pt x="256" y="256" on="1"/>
        <pt x="256" y="192" on="1"/>
        <pt x="192" y="192" on="1"/>
        <pt x="192" y="256" on="1"/>
      </contour>
      <contour>
        <pt x="320" y="256" on="1"/>
        <pt x="320" y="192" on="1"/>
        <pt x="256" y="192" on="1"/>
        <pt x="256" y="256" on="1"/>
      </contour>
      <contour>
        <pt x="384" y="448" on="1"/>
        <pt x="384" y="384" on="1"/>
        <pt x="320" y="384" on="1"/>
        <pt x="320" y="448" on="1"/>
      </contour>
      <contour>
        <pt x="384" y="64" on="1"/>
        <pt x="384" y="0" on="1"/>
        <pt x="320" y="0" on="1"/>
        <pt x="320" y="64" on="1"/>
      </contour>
    </TTGlyph>
    <TTGlyph name="epsilontonos" xMin="64" yMin="0" xMax="384" yMax="704">
      <component glyphName="epsilon" x="0" y="0" flags="0x0"/>
      <component glyphName="tonos" x="0" y="0" flags="0x0"/>
    </TTGlyph>
    <TTGlyph name="equal" xMin="32" yMin="176" xMax="416" yMax="400">
      <contour>
        <pt x="32" y="176" on="1"/>
        <pt x="32" y="240" on="1"/>
        <pt x="416" y="240" on="1"/>
        <pt x="416" y="176" on="1"/>
      </contour>
      <contour>
        <pt x="32" y="336" on="1"/>
        <pt x="32" y="400" on="1"/>
        <pt x="416" y="400" on="1"/>
        <pt x="416" y="336" on="1"/>
      </contour>
    </TTGlyph>
    <TTGlyph name="equivalence" xMin="24" yMin="128" xMax="424" yMax="448">
      <contour>
        <pt x="24" y="128" on="1"/>
        <pt x="24" y="192" on="1"/>
        <pt x="424" y="192" on="1"/>
        <pt x="424" y="128" on="1"/>
      </contour>
      <contour>
        <pt x="24" y="256" on="1"/>
        <pt x="24" y="320" on="1"/>
        <pt x="424" y="320" on="1"/>
        <pt x="424" y="256" on="1"/>
      </contour>
      <contour>
        <pt x="24" y="384" on="1"/>
        <pt x="24" y="448" on="1"/>
        <pt x="424" y="448" on="1"/>
        <pt x="424" y="384" on="1"/>
      </contour>
    </TTGlyph>
    <TTGlyph name="estimated" xMin="50" yMin="-13" xMax="398" yMax="461">
      <contour>
        <pt x="362" y="8" on="1"/>
        <pt x="296" y="-13" on="0"/>
        <pt x="238" y="-13" on="1"/>
        <pt x="138" y="-13" on="0"/>
        <pt x="50" y="122" on="0"/>
        <pt x="50" y="224" on="1"/>
        <pt x="50" y="326" on="0"/>
        <pt x="139" y="461" on="0"/>
        <pt x="229" y="461" on="1"/>
        <pt x="317" y="461" on="0"/>
        <pt x="398" y="333" on="0"/>
        <pt x="398" y="224" on="1"/>
        <pt x="398" y="191" on="1"/>
        <pt x="284" y="224" on="1"/>
        <pt x="284" y="292" on="0"/>
        <pt x="273" y="371" on="0"/>
        <pt x="248" y="407" on="0"/>
        <pt x="225" y="407" on="1"/>
        <pt x="190" y="407" on="0"/>
        <pt x="164" y="326" on="0"/>
        <pt x="164" y="225" on="1"/>
        <pt x="164" y="157" on="0"/>
        <pt x="178" y="79" on="0"/>
        <pt x="214" y="41" on="0"/>
        <pt x="249" y="41" on="1"/>
        <pt x="297" y="41" on="0"/>
        <pt x="348" y="57" on="1"/>
      </contour>
      <contour>
        <pt x="360" y="247" on="1"/>
        <pt x="398" y="191" on="1"/>
        <pt x="92" y="191" on="1"/>
        <pt x="92" y="247" on="1"/>
      </contour>
    </TTGlyph>
    <TTGlyph name="eta" xMin="58" yMin="-192" xMax="388" yMax="452">
      <contour>
        <pt x="316" y="289" on="1"/>
        <pt x="316" y="342" on="0"/>
        <pt x="286" y="388" on="0"/>
        <pt x="247" y="388" on="1"/>
        <pt x="218" y="388" on="0"/>
        <pt x="158" y="356" on="0"/>
        <pt x="132" y="330" on="1"/>
        <pt x="132" y="0" on="1"/>
        <pt x="60" y="0" on="1"/>
        <pt x="60" y="383" on="1"/>
        <pt x="58" y="448" on="1"/>
        <pt x="124" y="448" on="1"/>
        <pt x="130" y="400" on="1"/>
        <pt x="158" y="424" on="0"/>
        <pt x="226" y="452" on="0"/>
        <pt x="261" y="452" on="1"/>
        <pt x="318" y="452" on="0"/>
        <pt x="388" y="382" on="0"/>
        <pt x="388" y="297" on="1"/>
        <pt x="388" y="-192" on="1"/>
        <pt x="316" y="-192" on="1"/>
      </contour>
    </TTGlyph>
    <TTGlyph name="etatonos" xMin="58" yMin="-192" xMax="388" yMax="704">
      <component glyphName="eta" x="0" y="0" flags="0x0"/>
      <component glyphName="tonos" x="0" y="0" flags="0x0"/>
    </TTGlyph>
    <TTGlyph name="eth" xMin="47" yMin="-8" xMax="400" yMax="648">
      <contour>
        <pt x="221" y="-8" on="1"/>
        <pt x="168" y="-8" on="0"/>
        <pt x="90" y="44" on="0"/>
        <pt x="47" y="139" on="0"/>
        <pt x="47" y="203" on="1"/>
        <pt x="47" y="269" on="0"/>
        <pt x="91" y="364" on="0"/>
        <pt x="168" y="414" on="0"/>
        <pt x="215" y="414" on="1"/>
        <pt x="263" y="414" on="0"/>
        <pt x="306" y="391" on="1"/>
        <pt x="283" y="458" on="0"/>
        <pt x="230" y="514" on="1"/>
        <pt x="154" y="461" on="1"/>
        <pt x="123" y="505" on="1"/>
        <pt x="190" y="552" on="1"/>
        <pt x="168" y="572" on="0"/>
        <pt x="132" y="596" on="1"/>
        <pt x="168" y="648" on="1"/>
        <pt x="215" y="616" on="0"/>
        <pt x="245" y="590" on="1"/>
        <pt x="310" y="635" on="1"/>
        <pt x="341" y="591" on="1"/>
        <pt x="284" y="552" on="1"/>
        <pt x="400" y="427" on="0"/>
        <pt x="400" y="252" on="1"/>
        <pt x="400" y="124" on="0"/>
        <pt x="308" y="-8" on="0"/>
      </contour>
      <contour>
        <pt x="224" y="56" on="1"/>
        <pt x="282" y="56" on="0"/>
        <pt x="327" y="154" on="0"/>
        <pt x="327" y="247" on="1"/>
        <pt x="327" y="289" on="0"/>
        <pt x="323" y="320" on="1"/>
        <pt x="301" y="334" on="0"/>
        <pt x="249" y="350" on="0"/>
        <pt x="223" y="350" on="1"/>
        <pt x="166" y="350" on="0"/>
        <pt x="121" y="270" on="0"/>
        <pt x="121" y="203" on="1"/>
        <pt x="121" y="135" on="0"/>
        <pt x="168" y="56" on="0"/>
      </contour>
    </TTGlyph>
</ttFont>
